<?xml version="1.0" encoding="utf-8"?>
<!-- Generator: Adobe Illustrator 15.0.1, SVG Export Plug-In . SVG Version: 6.00 Build 0)  -->
<!DOCTYPE svg PUBLIC "-//W3C//DTD SVG 1.1//EN" "http://www.w3.org/Graphics/SVG/1.1/DTD/svg11.dtd">
<svg version="1.1" id="Layer_1" xmlns="http://www.w3.org/2000/svg" xmlns:xlink="http://www.w3.org/1999/xlink" x="0px" y="0px"
	 width="600px" height="750px" viewBox="0 0 600 750" enable-background="new 0 0 600 750" xml:space="preserve">
<g>
	<g>
		<path d="M210.887,132.661c-39.297,113.008-56.252,231.89-84.79,347.722c-7.361,29.881-15.577,59.558-25.121,88.818
			c-2.379,7.295-4.865,14.554-7.426,21.787c-1.181,3.338-2.393,6.664-3.616,9.987c-2.135,5.801,2.032-5.361-0.152,0.422
			c-0.834,2.208-1.685,4.411-2.539,6.612c-5.558,14.333-11.583,28.483-18.028,42.439c-2.336,5.058-4.476,11.473-0.874,16.617
			c3.505,5.006,10.456,5.54,15.914,4.862c15.649-1.942,33.805-13.821,40.528-28.378c50.737-109.859,72.329-229.277,97.576-346.762
			c13.298-61.881,27.941-123.604,48.752-183.45c1.78-5.12-0.521-11.228-5.306-13.727c-5.902-3.082-13.549-1.769-19.526,0.145
			C230.394,104.844,216.396,116.818,210.887,132.661L210.887,132.661z"/>
	</g>
</g>
<g>
	<g>
		<path d="M155.719,138.243c2.727-0.692,9.737-2.222-2.077,0.404c1.517-0.337,3.041-0.64,4.566-0.932
			c2.982-0.569,5.985-1.024,8.996-1.407c2.928-0.372,5.869-0.628,8.814-0.811c1.446-0.09,2.893-0.145,4.34-0.187
			c2.096-0.062,5.805-0.052-3.765,0.019c0.95-0.007,1.899,0.004,2.849,0.018c11.289,0.167,22.52,1.95,33.345,5.137
			c-1.81-0.535-3.62-1.07-5.43-1.605c20.355,6.113,38.666,17.241,54.738,31.014c-1.284-1.107-2.567-2.214-3.851-3.321
			c42.147,36.392,69.805,87.84,92.314,137.923c7.981,17.759,15.301,35.812,22.209,54.014c-0.602-1.585-1.202-3.17-1.804-4.754
			c21.834,57.663,39.335,116.814,56.895,175.881c7.29,24.521,14.553,49.062,22.662,73.327c6.395,19.133,13.046,38.55,22.364,56.494
			c4.898,9.431,11.502,19.938,21.308,24.93c13.809,7.031,33.046-4.998,42.68-14.075c6.829-6.434,21.022-25.525,6.934-32.698
			c-1.477-0.752-2.819-1.706-4.079-2.777c1.283,1.106,2.567,2.214,3.851,3.32c-5.396-4.686-9.209-11.075-12.565-17.297
			c-5.082-9.422-9.128-19.402-12.921-29.398c0.601,1.585,1.202,3.17,1.803,4.755c-18.237-48.25-31.293-98.477-46.232-147.801
			c-18.612-61.447-38.57-122.766-64.651-181.51c-22.359-50.361-49.935-102.066-91.795-139.025
			c-9.831-8.68-20.083-16.73-31.455-23.305c-11.414-6.599-23.524-11.063-36.179-14.641c-27.312-7.721-56.144-5.064-83.301,1.823
			c-14.505,3.679-31.941,17.784-35.394,32.903c-1.224,5.36,0.101,11.008,5.306,13.727
			C142.362,141.608,149.45,139.833,155.719,138.243L155.719,138.243z"/>
	</g>
</g>
<g>
	<g>
		<path d="M370.281,399.758c-2.661,0.717-5.329,1.403-8.006,2.061c-1.075,0.261-2.152,0.517-3.23,0.766
			c8.868-2.075,2.851-0.656,0.953-0.255c-5.481,1.16-11,2.138-16.531,3.027c-11.831,1.903-23.763,3.151-35.711,4.027
			c-5.783,0.424-11.575,0.714-17.369,0.941c-2.915,0.115-5.832,0.193-8.749,0.264c-1.638,0.039-11.52,0.137-3.909,0.084
			c-12.378,0.087-24.757-0.223-37.123-0.739c-46.896-1.96-93.514-7.66-140.229-11.926c-16.3-1.489-33.414,9.595-43.024,22.005
			c-3.842,4.962-7.691,11.699-6.814,18.299c0.754,5.678,5.634,9.184,11.084,9.681c98.781,9.021,200.59,24.541,298.096-1.75
			c14.52-3.914,31.904-17.622,35.394-32.903c1.225-5.359-0.101-11.008-5.306-13.726C383.703,396.426,376.48,398.086,370.281,399.758
			L370.281,399.758z"/>
	</g>
</g>
</svg>
