<?xml version="1.0" encoding="utf-8"?>
<!-- Generator: Adobe Illustrator 15.0.1, SVG Export Plug-In . SVG Version: 6.00 Build 0)  -->
<!DOCTYPE svg PUBLIC "-//W3C//DTD SVG 1.1//EN" "http://www.w3.org/Graphics/SVG/1.1/DTD/svg11.dtd">
<svg version="1.1" id="Layer_1" xmlns="http://www.w3.org/2000/svg" xmlns:xlink="http://www.w3.org/1999/xlink" x="0px" y="0px"
	 width="5000px" height="6311.262px" viewBox="0 0 5000 6311.262" enable-background="new 0 0 5000 6311.262" xml:space="preserve">
<g id="Layer_2" display="none">
	
		<rect x="653.744" y="704.17" display="inline" fill="none" stroke="#0090A3" stroke-width="1.6498" stroke-miterlimit="10" width="3043.012" height="539.756"/>
	
		<rect x="1025.893" y="1326.737" display="inline" fill="none" stroke="#0090A3" stroke-width="1.2535" stroke-miterlimit="10" width="3043.012" height="311.591"/>
	
		<rect x="1025.893" y="1721.138" display="inline" fill="none" stroke="#0090A3" stroke-width="1.2535" stroke-miterlimit="10" width="3043.012" height="311.59"/>
	
		<rect x="1025.893" y="2115.538" display="inline" fill="none" stroke="#0090A3" stroke-width="1.2535" stroke-miterlimit="10" width="3043.012" height="311.59"/>
	
		<rect x="1025.893" y="2509.938" display="inline" fill="none" stroke="#0090A3" stroke-width="1.2535" stroke-miterlimit="10" width="3043.012" height="311.592"/>
	
		<rect x="1025.893" y="2904.339" display="inline" fill="none" stroke="#0090A3" stroke-width="1.2535" stroke-miterlimit="10" width="3043.012" height="311.591"/>
	
		<rect x="1025.893" y="3298.739" display="inline" fill="none" stroke="#0090A3" stroke-width="1.2535" stroke-miterlimit="10" width="3043.012" height="311.591"/>
	
		<rect x="1025.893" y="3693.14" display="inline" fill="none" stroke="#0090A3" stroke-width="1.2535" stroke-miterlimit="10" width="3043.012" height="311.591"/>
	
		<rect x="1025.893" y="4087.539" display="inline" fill="none" stroke="#0090A3" stroke-width="1.373" stroke-miterlimit="10" width="3651.107" height="311.591"/>
	
		<rect x="1025.893" y="4481.939" display="inline" fill="none" stroke="#0090A3" stroke-width="1.3947" stroke-miterlimit="10" width="3767.012" height="311.59"/>
	
		<rect x="1025.893" y="4876.342" display="inline" fill="none" stroke="#0090A3" stroke-width="1.3947" stroke-miterlimit="10" width="3767.012" height="311.59"/>
	
		<rect x="1025.893" y="5270.741" display="inline" fill="none" stroke="#0090A3" stroke-width="1.3602" stroke-miterlimit="10" width="3583.107" height="311.591"/>
</g>
<g id="Layer_1_1_">
	<g>
		<g>
			<path d="M806.887,725.661c-39.297,113.008-56.252,231.89-84.79,347.722c-7.36,29.881-15.577,59.559-25.12,88.819
				c-2.38,7.295-4.865,14.554-7.427,21.787c-1.181,3.338-2.393,6.665-3.616,9.987c-2.135,5.802,2.032-5.361-0.151,0.422
				c-0.834,2.209-1.686,4.41-2.539,6.612c-5.558,14.333-11.583,28.483-18.028,42.439c-2.336,5.058-4.476,11.473-0.874,16.617
				c3.505,5.005,10.456,5.54,15.914,4.861c15.649-1.941,33.805-13.82,40.528-28.378c50.736-109.858,72.329-229.277,97.576-346.762
				c13.298-61.881,27.94-123.604,48.752-183.45c1.779-5.12-0.521-11.228-5.307-13.727c-5.901-3.082-13.549-1.77-19.525,0.145
				C826.394,697.844,812.396,709.818,806.887,725.661L806.887,725.661z"/>
		</g>
	</g>
	<g>
		<g>
			<path d="M751.719,731.243c2.728-0.692,9.737-2.222-2.077,0.403c1.518-0.337,3.041-0.64,4.566-0.932
				c2.981-0.568,5.985-1.023,8.996-1.407c2.928-0.372,5.869-0.628,8.813-0.811c1.446-0.09,2.894-0.146,4.341-0.188
				c2.096-0.062,5.805-0.052-3.766,0.02c0.95-0.007,1.899,0.004,2.85,0.018c11.288,0.166,22.52,1.95,33.345,5.138
				c-1.811-0.535-3.62-1.07-5.43-1.605c20.354,6.113,38.666,17.241,54.737,31.014c-1.284-1.106-2.566-2.214-3.851-3.32
				c42.146,36.392,69.805,87.84,92.313,137.923c7.982,17.759,15.302,35.812,22.209,54.014c-0.601-1.585-1.202-3.17-1.804-4.754
				c21.833,57.663,39.334,116.814,56.895,175.881c7.291,24.521,14.554,49.062,22.662,73.327
				c6.396,19.133,13.046,38.55,22.364,56.494c4.898,9.431,11.502,19.938,21.309,24.93c13.809,7.031,33.045-4.998,42.68-14.076
				c6.829-6.434,21.022-25.524,6.933-32.698c-1.476-0.751-2.819-1.706-4.08-2.777c1.284,1.107,2.567,2.214,3.852,3.321
				c-5.396-4.687-9.209-11.076-12.565-17.297c-5.083-9.422-9.128-19.401-12.922-29.397c0.602,1.584,1.203,3.169,1.804,4.754
				c-18.237-48.25-31.293-98.477-46.232-147.801c-18.612-61.447-38.57-122.766-64.652-181.509
				c-22.358-50.361-49.934-102.066-91.794-139.025c-9.831-8.68-20.083-16.729-31.455-23.305
				c-11.414-6.599-23.523-11.063-36.179-14.641c-27.312-7.722-56.145-5.064-83.301,1.822c-14.505,3.68-31.941,17.784-35.395,32.903
				c-1.224,5.36,0.102,11.008,5.307,13.727C738.362,734.608,745.45,732.833,751.719,731.243L751.719,731.243z"/>
		</g>
	</g>
	<g>
		<g>
			<path d="M966.281,992.757c-2.661,0.717-5.329,1.404-8.005,2.062c-1.076,0.261-2.153,0.516-3.231,0.766
				c8.868-2.075,2.852-0.656,0.953-0.255c-5.481,1.161-11,2.138-16.531,3.026c-11.831,1.903-23.763,3.151-35.711,4.027
				c-5.783,0.424-11.575,0.714-17.369,0.942c-2.915,0.114-5.832,0.192-8.749,0.263c-1.638,0.039-11.52,0.137-3.909,0.083
				c-12.378,0.087-24.757-0.222-37.123-0.739c-46.896-1.96-93.514-7.66-140.229-11.926c-16.3-1.488-33.414,9.595-43.024,22.006
				c-3.842,4.961-7.69,11.699-6.813,18.298c0.754,5.679,5.634,9.184,11.084,9.682c98.781,9.021,200.59,24.54,298.096-1.75
				c14.52-3.915,31.904-17.623,35.395-32.903c1.224-5.36-0.102-11.008-5.307-13.727C979.703,989.426,972.48,991.086,966.281,992.757
				L966.281,992.757z"/>
		</g>
	</g>
	<g>
		<g>
			<path d="M1302.539,719.312c19.943,129.272,7.051,259.969,1.145,389.782c-2.216,48.701-3.315,97.494-1.145,146.218
				c0.258,5.798,6.059,9.052,11.084,9.681c7.516,0.94,15.413-1.692,22.014-5.012c12.715-6.396,28.528-19.503,27.824-35.292
				c-5.759-129.277,11.416-258.15,10.827-387.389c-0.228-49.712-3.243-99.454-10.827-148.611c-2.4-15.56-24.352-9.069-33.098-4.669
				c-8.043,4.046-15.481,9.854-21.011,16.993C1305.591,705.872,1301.534,712.801,1302.539,719.312L1302.539,719.312z"/>
		</g>
	</g>
	<g>
		<g>
			<path d="M1304.256,724.929c32.458-2.525,64.686-7.391,97.156-9.787c8.174-0.603,16.361-1.027,24.555-1.24
				c2.141-0.057,9.457-0.135-0.004-0.045c2.196-0.021,4.393-0.013,6.588,0.007c4.344,0.039,8.686,0.183,13.022,0.403
				c15.59,0.796,31.157,2.977,46.162,7.355c-1.811-0.535-3.62-1.07-5.43-1.605c16.242,4.858,31.456,12.45,44.41,23.469
				c-1.284-1.107-2.566-2.214-3.851-3.321c15.527,13.46,26.463,30.887,33.808,49.965c-0.601-1.585-1.202-3.17-1.803-4.755
				c7.894,20.994,12.169,43.43,10.876,65.892c0.116-1.884,0.232-3.768,0.349-5.65c-0.628,9.431-2.237,18.712-4.892,27.785
				c-0.615,2.102-1.314,4.177-2.041,6.242c-1.504,4.274,2.445-6.353,0.793-2.14c-0.396,1.01-0.818,2.009-1.241,3.008
				c-1.823,4.313-3.941,8.497-6.225,12.583c-1.054,1.887-2.175,3.732-3.317,5.565c6.106-9.796,1.496-2.366-0.067-0.133
				c-2.712,3.87-5.651,7.576-8.708,11.177c-0.711,0.837-1.439,1.661-2.166,2.484c-3.42,3.869,6.323-6.854,2.799-3.068
				c-1.512,1.624-3.07,3.204-4.642,4.769c-3.444,3.435-7.055,6.699-10.745,9.867c-0.859,0.738-1.731,1.463-2.604,2.188
				c-4.219,3.507,7.996-6.437,3.698-3.012c-1.792,1.43-3.617,2.817-5.45,4.192c-4.02,3.014-8.149,5.876-12.335,8.651
				c-1.952,1.294-3.928,2.552-5.912,3.799c-0.996,0.626-1.999,1.24-3.002,1.854c-4.757,2.913,8.756-5.21,3.95-2.365
				c-4.43,2.622-8.937,5.112-13.479,7.531c-8.812,4.692-17.834,8.988-26.961,13.032c-2.192,0.972-4.397,1.919-6.604,2.858
				c-1.104,0.469-2.209,0.931-3.314,1.392c10.836-4.521,5.896-2.422,3.489-1.444c-4.78,1.943-9.595,3.803-14.426,5.614
				c-21.125,7.922-42.695,14.618-64.412,20.709c-14.526,4.075-31.879,17.515-35.395,32.903c-1.224,5.36,0.102,11.008,5.307,13.727
				c6.06,3.164,13.374,1.581,19.525-0.145c39.415-11.057,78.346-24.386,115.263-42.199c41.321-19.938,81.096-46.811,109.542-83.3
				c13.63-17.484,23.964-37.443,29.807-58.847c5.595-20.496,5.88-42.756,2.394-63.628c-6.789-40.658-27.067-79.134-62.86-101.026
				c-32.693-19.998-72.667-22.743-109.982-22.284c-37.043,0.455-73.771,6.078-110.569,9.731c-5.185,0.515-10.372,0.978-15.565,1.382
				c-15.952,1.241-33.383,14.401-40.528,28.378c-2.503,4.896-4.378,11.611-0.873,16.617
				C1291.959,725.231,1298.691,725.362,1304.256,724.929L1304.256,724.929z"/>
		</g>
	</g>
	<g>
		<g>
			<path d="M1522.193,967.387c17.328,6.848,33.381,16.378,47.53,28.515c-1.284-1.107-2.566-2.214-3.851-3.321
				c17.966,15.68,32.209,35.176,40.781,57.484c-0.603-1.586-1.203-3.17-1.805-4.755c6.264,16.79,9.052,34.52,8.043,52.421
				c0.115-1.884,0.231-3.768,0.348-5.651c-0.768,11.44-3.04,22.628-6.682,33.498c-0.537,1.605-2.448,6.535,0.368-0.834
				c-0.518,1.354-1.077,2.692-1.638,4.03c-1.141,2.724-2.408,5.393-3.714,8.041c-1.341,2.718-2.806,5.373-4.308,8.004
				c-0.768,1.344-1.574,2.664-2.381,3.983c-3.037,4.972,4.404-6.584,0.666-1.088c-2.494,3.669-5.253,7.154-8.129,10.529
				c-0.737,0.866-1.498,1.714-2.257,2.562c7.888-8.801,4.45-4.86,2.628-2.957c-1.895,1.981-3.866,3.888-5.863,5.765
				c-1.751,1.646-3.558,3.233-5.377,4.802c-0.924,0.796-1.865,1.574-2.807,2.352c9.961-8.233,5.643-4.565,3.379-2.795
				c-4.33,3.391-8.837,6.551-13.424,9.582c-2.18,1.439-4.396,2.821-6.625,4.187c12.035-7.37,2.831-1.72-0.048-0.104
				c-5.161,2.895-10.442,5.567-15.784,8.112c-2.521,1.201-5.066,2.347-7.622,3.475c-1.29,0.568-2.587,1.12-3.885,1.67
				c-5.406,2.293,8.129-3.306,2.665-1.106c-5.796,2.333-11.678,4.448-17.602,6.435c-5.576,1.87-11.213,3.552-16.879,5.125
				c-2.864,0.795-5.745,1.534-8.631,2.255c-1.448,0.361-2.903,0.706-4.357,1.049c-5,1.181,7.789-1.689,0.143-0.057
				c-12.35,2.637-24.854,4.525-37.415,5.811c-8.093,0.827-16.217,1.314-24.347,1.556c-1.703,0.052-9.119,0.11-0.99,0.058
				c-2.031,0.013-4.062-0.007-6.094-0.032c-4.057-0.05-8.11-0.208-12.161-0.415c-16.048-0.822-32.022-3.021-47.696-6.559
				c-6.97-1.573-16.008,1.99-22.014,5.012c-8.043,4.046-15.481,9.854-21.01,16.994c-3.843,4.961-7.691,11.699-6.814,18.298
				c0.829,6.241,5.638,8.452,11.084,9.681c53.095,11.983,108.608,7.967,161.11-4.909c50.923-12.487,101.382-36.551,139.812-72.661
				c37.565-35.3,61.317-87.145,54.303-139.2c-6.338-47.047-37.847-87.059-78.112-110.591c-7.33-4.284-15.037-7.9-22.929-11.019
				c-14.764-5.833-32.157,4.163-42.68,14.076c-5.378,5.067-10.553,11.587-12.239,18.972
				C1515.779,958.515,1516.807,965.259,1522.193,967.387L1522.193,967.387z"/>
		</g>
	</g>
	<g>
		<g>
			<path d="M2184.807,734.613c-44.642-34.919-94.732-70.846-154.576-63.962c-31.242,3.593-61.498,19.707-85.736,39.229
				c-22.582,18.188-42.272,39.284-58.223,63.55c-25.332,38.54-43.994,81.615-53.54,126.798
				c-7.92,37.488-10.882,76.279-9.954,114.551c0.93,38.375,6.455,76.94,18.525,113.452c11.727,35.47,29.146,69.459,56.338,95.573
				c32.224,30.946,74.733,49.358,119.667,48.896c29.864-0.308,59.456-10.818,85.591-24.672
				c27.968-14.824,52.854-34.017,77.269-53.977c5.946-4.86,11.826-9.802,17.707-14.741c7.384-6.201,20.593-25.565,6.933-32.698
				c-5.901-3.082-13.549-1.77-19.524,0.145c-8.914,2.854-16.08,7.989-23.155,13.932c-6.279,5.273-12.566,10.538-18.916,15.729
				c10.851-8.871-1.079,0.829-3.801,2.971c-3.734,2.939-7.516,5.819-11.327,8.658c-6.782,5.052-13.733,9.875-20.848,14.452
				c-1.771,1.139-3.56,2.245-5.354,3.345c5.757-3.427,7.071-4.217,3.945-2.37c-0.902,0.529-1.81,1.053-2.719,1.569
				c-4.064,2.329-8.215,4.5-12.414,6.574c-1.854,0.915-3.729,1.78-5.609,2.637c-2.334,1.063-9.848,4.098,0.826-0.239
				c-3.785,1.538-7.644,2.892-11.531,4.144c-1.936,0.624-3.893,1.179-5.852,1.723c-2.105,0.585-9.643,2.255,0.069,0.114
				c-4.466,0.983-8.99,1.664-13.531,2.172c-2.03,0.228-4.068,0.367-6.106,0.493c-1.707,0.104-9.107,0.093-1.08,0.114
				c-4.188-0.012-8.366-0.329-12.525-0.786c-8.084-0.889-16.023-2.825-23.814-5.109c1.81,0.535,3.619,1.07,5.429,1.604
				c-21.966-6.6-42.212-17.551-59.634-32.479c1.283,1.107,2.566,2.214,3.851,3.321c-26.145-22.696-44.354-52.757-56.633-84.87
				c0.601,1.585,1.202,3.17,1.804,4.754c-20.041-53.032-25.285-111.207-21.879-167.486c-0.116,1.885-0.232,3.769-0.35,5.651
				c2.227-35.42,7.604-71.379,19.333-104.982c0.688-1.967,4.057-11.071,0.884-2.614c0.958-2.556,1.956-5.096,2.966-7.629
				c2.231-5.599,4.622-11.133,7.116-16.619c4.914-10.808,10.413-21.345,16.438-31.571c1.459-2.479,2.972-4.924,4.503-7.359
				c-5.723,9.103-0.005,0.081,1.397-1.98c3.504-5.153,7.226-10.155,11.096-15.038c1.781-2.248,3.624-4.447,5.487-6.628
				c0.93-1.089,1.881-2.159,2.832-3.229c3.922-4.416-5.941,6.419-1.906,2.112c4.221-4.506,8.686-8.779,13.306-12.872
				c1.417-1.256,2.869-2.473,4.324-3.684c-10.387,8.642-3.04,2.498-0.545,0.618c3.776-2.845,7.706-5.481,11.712-7.991
				c4.961-3.108-9.204,5.325-1.877,1.185c2.068-1.169,4.179-2.26,6.3-3.331c2.13-1.075,4.302-2.068,6.48-3.041
				c3.06-1.317,1.745-0.791-3.942,1.582c1.428-0.587,2.854-1.112,4.323-1.588c2.147-0.696,4.333-1.268,6.521-1.819
				c-9.488,2.393,0.002,0.162,2.256-0.172c2.664-0.395,5.35-0.616,8.035-0.793c1.064-0.062,2.131-0.105,3.197-0.135
				c-7.451,0.254-1.857,0.051-0.27,0.096c10.057,0.283,20.011,2.245,29.642,5.06c-1.81-0.535-3.62-1.07-5.429-1.605
				c36.418,11.097,67.311,34.91,96.887,58.044c4.775,3.735,14.615,1.428,19.525-0.145c8.601-2.753,16.602-7.757,23.154-13.932
				c5.377-5.066,10.553-11.587,12.239-18.972C2191.54,742.088,2189.578,738.345,2184.807,734.613L2184.807,734.613z"/>
		</g>
	</g>
	<g>
		<g>
			<path d="M2384.539,701.312c1.97,73.337,1.831,146.745,1.77,220.103c-0.065,79.248-0.521,158.495-1.09,237.741
				c-0.234,32.717-0.674,65.438-0.68,98.156c-0.001,5.774,6.275,9.079,11.084,9.682c7.516,0.941,15.413-1.692,22.014-5.012
				c13.231-6.656,27.821-19.307,27.824-35.292c0.009-48.031,0.684-96.067,0.994-144.098c0.533-82.377,0.908-164.756,0.749-247.135
				c-0.107-54.92-0.269-109.865-1.743-164.768c-0.155-5.789-6.145-9.062-11.084-9.682c-7.516-0.94-15.413,1.692-22.014,5.013
				C2399.444,672.519,2384.113,685.441,2384.539,701.312L2384.539,701.312z"/>
		</g>
	</g>
	<g>
		<g>
			<path d="M2400.256,718.929c11.872-1.817,23.803-3.138,35.79-3.885c2.688-0.167,5.376-0.29,8.065-0.396
				c2.25-0.09,13.238-0.248,4-0.172c5.66-0.047,11.318,0.084,16.973,0.336c21.93,0.974,43.759,4.421,64.829,10.601
				c-1.81-0.535-3.619-1.07-5.429-1.605c29.736,8.882,57.417,23.441,81.024,43.648c-1.282-1.107-2.566-2.214-3.851-3.321
				c30.249,26.185,52.02,60.245,66.285,97.432c-0.603-1.584-1.203-3.169-1.805-4.754c18.499,48.896,24.617,101.361,21.532,153.384
				c0.115-1.883,0.231-3.768,0.348-5.651c-1.464,23.395-4.782,46.631-10.136,69.455c-2.646,11.277-5.866,22.417-9.587,33.386
				c-0.883,2.603-1.813,5.188-2.761,7.769c3.096-8.431-0.346,0.774-1.12,2.705c-2.186,5.436-4.56,10.793-7.062,16.092
				c-2.277,4.822-4.726,9.562-7.281,14.244c-1.266,2.315-2.582,4.602-3.918,6.877c-1.371,2.333-7.518,11.947-1.379,2.458
				c-5.812,8.982-12.312,17.513-19.397,25.526c-3.665,4.146,6.129-6.633,2.361-2.591c-0.859,0.922-1.736,1.827-2.614,2.732
				c-1.749,1.803-3.553,3.552-5.374,5.28c-1.904,1.809-3.873,3.545-5.84,5.282c-2.003,1.771-7.095,5.882,2.323-1.759
				c-1.64,1.33-3.325,2.6-5.02,3.86c-2.507,1.865-5.1,3.614-7.714,5.322c-0.437,0.278-0.871,0.557-1.308,0.834
				c-3.08,1.912-1.732,1.12,4.045-2.377c-1.319,0.788-2.661,1.536-4.004,2.285c-2.668,1.489-5.4,2.861-8.15,4.195
				c-1.368,0.665-2.756,1.291-4.143,1.917c-7.606,3.435,6.135-2.407,0.918-0.324c-5.635,2.25-11.408,4.138-17.231,5.831
				c-2.919,0.849-5.866,1.601-8.819,2.321c-5.679,1.387,7.238-1.576,1.52-0.341c-1.99,0.43-3.99,0.813-5.991,1.192
				c-12.622,2.391-25.435,3.707-38.247,4.508c-6.208,0.387-12.427,0.6-18.645,0.735c-1.558,0.035-3.114,0.056-4.67,0.077
				c7.621-0.105,1.982-0.021,0.406-0.016c-3.628,0.014-7.256-0.012-10.884-0.049c-13.312-0.134-26.618-0.582-39.924-0.966
				c-16.691-0.479-32.923,8.962-43.024,22.007c-3.842,4.961-7.69,11.698-6.813,18.298c0.719,5.411,5.657,9.524,11.084,9.681
				c54.771,1.574,110.938,3.85,163.569-14.163c56.719-19.412,101.032-60.64,130.516-112.075
				c23.628-41.223,36.813-88.793,42.419-135.758c5.479-45.917,4.623-93.213-5.67-138.409
				c-9.934-43.609-27.822-86.511-56.513-121.165c-25.894-31.276-60.254-55.176-98.482-68.716
				c-51.148-18.116-106.423-19.799-159.718-11.635c-16.229,2.485-32.97,13.591-40.528,28.378
				c-2.503,4.897-4.378,11.611-0.873,16.617C2387.778,718.973,2394.868,719.754,2400.256,718.929L2400.256,718.929z"/>
		</g>
	</g>
	<g>
		<g>
			<path d="M2926.539,703.312c2.845,131.34-2.454,262.655-5.715,393.936c-1.309,52.678-2.273,105.368-2.285,158.064
				c-0.002,5.773,6.277,9.078,11.084,9.681c7.516,0.94,15.413-1.692,22.014-5.012c13.231-6.656,27.82-19.307,27.824-35.292
				c0.031-131.768,6.096-263.428,8.163-395.161c0.821-52.276,0.97-104.567-0.163-156.839c-0.125-5.787-6.17-9.065-11.084-9.682
				c-7.516-0.94-15.413,1.692-22.014,5.013C2941.385,674.549,2926.194,687.418,2926.539,703.312L2926.539,703.312z"/>
		</g>
	</g>
	<g>
		<g>
			<path d="M2878.256,720.929c96.758-2.161,193.471-6.083,290.244-7.582c4.023-0.062,8.05-0.117,12.074-0.169
				c1.742-0.021,3.483-0.042,5.228-0.062c0.86-0.009,1.72-0.02,2.579-0.028c4.979-0.053-6.479,0.061-1.544,0.014
				c7.595-0.068,15.19-0.106,22.786-0.108c16.848-0.005,32.696-8.668,43.023-22.006c3.843-4.961,7.69-11.699,6.813-18.298
				c-0.703-5.289-5.672-9.684-11.084-9.682c-98.522,0.028-197.039,4.041-295.51,6.803c-16.373,0.459-32.748,0.896-49.123,1.262
				c-7.976,0.178-17.101,5.343-23.379,9.74c-6.879,4.816-13.287,11.082-17.149,18.638c-2.503,4.896-4.378,11.611-0.873,16.617
				C2866.096,721.426,2872.573,721.056,2878.256,720.929L2878.256,720.929z"/>
		</g>
	</g>
	<g>
		<g>
			<path d="M2882.256,1018.929c33.701-7.096,67.928-11.399,102.314-13.203c8.733-0.458,17.478-0.71,26.223-0.826
				c-6.816,0.091-0.377,0.019,0.854,0.016c2.493-0.005,4.985,0.015,7.479,0.038c4.353,0.041,8.705,0.144,13.056,0.271
				c17.191,0.509,34.357,1.785,51.441,3.768c16.129,1.871,33.605-9.844,43.022-22.006c6.814-8.801,11.938-26.1-4.27-27.979
				c-71.186-8.257-144.522-4.698-214.634,10.064c-16.361,3.444-32.662,12.989-40.527,28.378c-2.503,4.896-4.378,11.611-0.873,16.617
				C2869.646,1018.783,2877.013,1020.033,2882.256,1018.929L2882.256,1018.929z"/>
		</g>
	</g>
	<g>
		<g>
			<path d="M2929.256,1276.929c79.941-2.172,159.831-5.95,239.784-7.729c6.382-0.143,12.764-0.267,19.146-0.368
				c2.925-0.047,5.848-0.086,8.771-0.121c0.623-0.007,1.246-0.014,1.869-0.021c4.155-0.045-7.095,0.064-2.988,0.029
				c1.459-0.012,2.919-0.021,4.379-0.029c8.467-0.046,16.946-0.054,25.408,0.304c16.612,0.702,33.028-9.099,43.022-22.006
				c3.844-4.962,7.691-11.699,6.814-18.298c-0.728-5.47-5.65-9.452-11.084-9.682c-32.62-1.377-65.485,0.145-98.103,1.045
				c-43.473,1.201-86.935,2.782-130.396,4.323c-27.042,0.959-54.085,1.96-81.135,2.695c-8,0.217-17.07,5.321-23.379,9.739
				c-6.879,4.817-13.287,11.082-17.149,18.639c-2.503,4.896-4.378,11.61-0.873,16.617
				C2917.083,1277.409,2923.583,1277.083,2929.256,1276.929L2929.256,1276.929z"/>
		</g>
	</g>
	<g>
		<g>
			<path d="M3459.539,705.312c11.757,131.404,16.454,263.3,20.043,395.141c0.732,26.923,1.957,53.902,1.957,80.834
				c0,27.342,0,54.684,0,82.025c0,5.773,6.275,9.078,11.084,9.681c7.516,0.94,15.413-1.692,22.014-5.012
				c13.229-6.655,27.824-19.308,27.824-35.292c0-32.595,0.584-65.252-0.252-97.835c-0.843-32.863-1.695-65.728-2.645-98.587
				c-1.904-65.959-4.231-131.91-7.682-197.809c-2.861-54.65-6.546-109.261-11.423-163.77c-1.415-15.818-25.099-8.693-33.098-4.669
				C3475.164,676.157,3458.146,689.749,3459.539,705.312L3459.539,705.312z"/>
		</g>
	</g>
	<g>
		<g>
			<path d="M3412.623,728.993c30.938,0.896,62.056-1.288,92.926-3.083c40.239-2.34,80.455-5.087,120.695-7.403
				c29.507-1.698,59.039-3.25,88.592-3.844c2.742-0.055,14.482-0.189,3.766-0.087c2.959-0.028,5.918-0.036,8.879-0.028
				c5.31,0.012,10.619,0.099,15.927,0.285c7.743,0.272,15.596,0.666,23.217,2.16c7.137,1.398,15.833-1.903,22.014-5.013
				c8.043-4.046,15.481-9.854,21.011-16.993c7.471-9.646,11.354-24.916-4.271-27.979c-10.104-1.98-20.598-2.171-30.858-2.362
				c-17.487-0.324-35,0.077-52.479,0.651c-39.509,1.297-78.976,3.797-118.425,6.267c-30.685,1.922-61.362,3.938-92.062,5.58
				c-12.66,0.678-25.326,1.282-38,1.686c-2.697,0.085-5.396,0.157-8.094,0.218c-2.764,0.062-12.732,0.167-1.51,0.063
				c-4.19,0.038-8.381,0.019-12.57-0.104c-16.689-0.484-32.925,8.963-43.023,22.006c-3.843,4.961-7.69,11.699-6.813,18.298
				C3402.258,724.725,3407.195,728.835,3412.623,728.993L3412.623,728.993z"/>
		</g>
	</g>
	<g>
		<g>
			<path d="M3470.623,1012.993c32.946,2.049,66.029,0.597,98.939-1.442c15.599-0.967,31.188-2.065,46.791-2.958
				c7.823-0.448,15.649-0.823,23.479-1.121c3.915-0.148,7.832-0.26,11.75-0.354c1.959-0.047,3.918-0.08,5.877-0.112
				c2.863-0.037,2.611-0.037-0.757,0.001c1.307-0.008,2.611-0.012,3.919-0.012c16.854-0.027,32.686-8.655,43.022-22.006
				c3.844-4.961,7.691-11.699,6.814-18.298c-0.702-5.283-5.674-9.689-11.084-9.682c-33.557,0.054-66.967,2.305-100.439,4.441
				c-15.476,0.987-30.96,1.851-46.462,2.298c-3.846,0.111-7.691,0.179-11.54,0.228c6.692-0.086,0.131-0.022-1.04-0.022
				c-1.915,0.001-3.829-0.018-5.743-0.035c-8.266-0.08-16.525-0.396-24.774-0.909c-16.49-1.025-33.187,9.3-43.022,22.006
				c-3.844,4.961-7.691,11.699-6.814,18.298C3460.277,1008.866,3465.182,1012.654,3470.623,1012.993L3470.623,1012.993z"/>
		</g>
	</g>
	<g>
		<g>
			<path d="M4281.807,698.613c-41.682-13.25-84.293-21.756-128.201-18.867c-36.912,2.43-72.313,15.143-103.125,35.398
				c-53.19,34.97-84.273,92.995-100.093,153.165c-12.706,48.331-16.15,98.687-17.38,148.467
				c-0.779,31.603-1.391,63.197,3.161,94.584c3.303,22.768,9.533,45.052,19.063,66.016c9.537,20.978,23.481,38.279,40.989,53.114
				c19.095,16.178,42.57,25.273,66.5,31.601c26.166,6.918,53.464,8.215,80.392,6.916c58.211-2.809,119.086-23.499,162.399-63.332
				c14.756-13.569,27.586-30.521,35.319-49.091c7.369-17.688,10.484-35.375,10.992-54.483c0.881-33.17-8.535-66.065-18.365-97.414
				c-1.809-5.769-4.774-8.891-11.084-9.681c-7.516-0.94-15.412,1.692-22.014,5.012c-8.043,4.047-15.48,9.854-21.01,16.994
				c-3.197,4.127-8.639,12.481-6.814,18.299c10.474,33.399,20.248,68.394,18.088,103.742c0.117-1.884,0.232-3.768,0.35-5.65
				c-0.729,10.385-2.564,20.591-5.861,30.477c-0.584,1.752-2.4,6.228,0.617-1.551c-0.451,1.162-0.943,2.307-1.438,3.451
				c-0.994,2.307-2.119,4.556-3.285,6.78c-1.214,2.314-6.422,10.562-0.417,1.257c-1.659,2.572-3.484,5.031-5.37,7.44
				c-0.827,1.059-1.694,2.083-2.562,3.107c-3.705,4.379,6.064-6.484,2.106-2.26c-1.933,2.06-3.978,4.008-6.056,5.919
				c-1.071,0.984-2.178,1.931-3.283,2.877c-4.746,4.058,7.576-6.01,2.586-2.131c-2.875,2.233-5.877,4.299-8.916,6.302
				c-1.278,0.843-2.584,1.646-3.89,2.45c1.886-1.131,3.771-2.262,5.655-3.392c-0.789,0.463-1.582,0.92-2.379,1.371
				c-2.412,1.378-4.871,2.669-7.345,3.935c-2.517,1.285-5.073,2.486-7.642,3.661c-1.301,0.595-2.612,1.161-3.924,1.729
				c-5.071,2.19,8.828-3.515,1.236-0.538c-5.477,2.148-11.057,4.021-16.682,5.74c-2.859,0.875-5.744,1.67-8.633,2.438
				c-1.457,0.388-2.918,0.749-4.381,1.11c-7.607,1.88,5.133-1.092,0.08,0c-12.502,2.704-25.219,4.389-37.975,5.294
				c-3.079,0.219-6.165,0.358-9.249,0.473c-1.543,0.058-3.085,0.087-4.627,0.118c7.646-0.15,2.063-0.025,0.47-0.031
				c-6.646-0.021-13.289-0.351-19.912-0.884c-12.476-1.003-24.86-3.053-37.002-6.078c-2.371-0.59-4.726-1.249-7.072-1.925
				c1.809,0.535,3.619,1.07,5.429,1.605c-20.552-6.088-39.999-15.368-56.422-29.282c1.284,1.106,2.566,2.214,3.851,3.321
				c-18.902-16.351-32.242-37.548-41.068-60.791c0.603,1.584,1.203,3.168,1.805,4.754c-14.744-39.633-16.76-82.28-15.906-124.131
				c0.396-19.442,0.807-38.879,1.993-58.293c-0.116,1.884-0.232,3.767-0.349,5.65c1.552-25.036,4.243-50.016,8.834-74.687
				c2.445-13.144,5.479-26.18,9.186-39.024c1.86-6.445,3.923-12.831,6.169-19.151c0.802-2.256,3.237-8.703-0.392,0.938
				c0.564-1.5,1.147-2.994,1.736-4.484c1.273-3.221,2.619-6.412,4.014-9.583c2.664-6.055,5.584-11.996,8.73-17.813
				c1.499-2.773,3.071-5.506,4.688-8.211c0.807-1.349,1.636-2.684,2.473-4.013c2.225-3.537-4.721,7.3-2.441,3.799
				c0.568-0.875,1.15-1.742,1.733-2.607c3.632-5.391,7.565-10.575,11.749-15.549c1.001-1.191,2.027-2.361,3.061-3.524
				c2.965-3.335-6.705,7.302-3.68,4.023c0.527-0.572,1.062-1.136,1.6-1.701c2.322-2.448,4.739-4.807,7.214-7.104
				c2.293-2.128,4.664-4.169,7.082-6.152c-12.634,10.37-1.872,1.633,1.553-0.779c2.604-1.836,5.284-3.565,8.002-5.229
				c-13.917,8.515-1.851,1.197,1.901-0.719c2.941-1.503,5.945-2.883,8.98-4.188c4.212-1.812-9.082,3.703-4.82,1.979
				c0.782-0.315,1.57-0.62,2.357-0.923c1.856-0.715,3.733-1.379,5.617-2.022c3.303-1.128,6.649-2.12,10.018-3.032
				c1.723-0.467,3.457-0.893,5.193-1.303c-11.824,2.8-3.184,0.726-0.342,0.177c8.819-1.702,17.771-2.665,26.736-3.127
				c2.378-0.123,4.758-0.188,7.139-0.233c4.408-0.083-6.905,0.035-2.473,0.033c1.407-0.001,2.814,0.021,4.225,0.045
				c5.471,0.095,10.937,0.413,16.389,0.86c23.959,1.964,47.586,7.166,70.607,13.954c-1.81-0.535-3.619-1.07-5.429-1.605
				c3.216,0.959,6.422,1.947,9.621,2.964c15.394,4.894,31.515-3.555,42.681-14.076c5.379-5.066,10.553-11.587,12.24-18.972
				C4288.146,707.812,4287.286,700.354,4281.807,698.613L4281.807,698.613z"/>
		</g>
	</g>
	<g>
		<g>
			<path d="M4139.719,1061.243c23.287-5.408,46.232-12.063,69.125-18.922c10.679-3.199,21.353-6.412,32.076-9.452
				c4.943-1.401,9.901-2.747,14.873-4.044c2.457-0.642,4.92-1.256,7.387-1.863c1.473-0.362,2.948-0.711,4.423-1.059
				c5.669-1.338-7.246,1.604-1.567,0.348c10.285-2.276,20.67-4.084,31.125-5.368c5.023-0.617,10.068-1.054,15.119-1.383
				c2.559-0.167,5.119-0.271,7.68-0.359c1.577-0.054,7.189-0.12-0.42-0.052c1.568-0.015,3.137,0.001,4.704,0.019
				c24.257,0.249,48.274,4.542,71.517,11.33c-1.811-0.535-3.621-1.07-5.431-1.605c0.622,0.187,1.244,0.371,1.866,0.557
				c6.955,2.077,12.451,2.12,19.525-0.145c8.602-2.753,16.602-7.757,23.153-13.931c5.379-5.067,10.554-11.587,12.24-18.973
				c1.015-4.443,0.192-12.084-5.308-13.727c-25.287-7.552-50.773-12.849-77.233-13.466c-23.642-0.553-46.979,1.765-70.104,6.608
				c-48.793,10.224-95.647,27.73-144.187,39.001c-8.394,1.949-17.017,8.147-23.153,13.932c-5.379,5.066-10.554,11.587-12.24,18.972
				c-1.224,5.36,0.102,11.008,5.307,13.728C4126.448,1064.653,4133.359,1062.72,4139.719,1061.243L4139.719,1061.243z"/>
		</g>
	</g>
	<g>
		<g>
			<path d="M565.539,1469.312c-2.787,126.603-6.315,253.319-0.866,379.902c2.534,58.868,7.112,117.678,14.866,176.098
				c2.077,15.65,24.599,8.943,33.098,4.669c11.71-5.892,29.858-19.972,27.824-35.292c-16.646-125.409-18.741-252.267-17.404-378.6
				c0.626-59.143,2.104-118.271,3.404-177.4c0.127-5.76-6.382-9.093-11.084-9.682c-7.516-0.94-15.413,1.692-22.014,5.012
				C579.88,1440.803,565.893,1453.241,565.539,1469.312L565.539,1469.312z"/>
		</g>
	</g>
	<g>
		<g>
			<path d="M847.539,1463.312c-2.254,65.762,0.74,131.516,3.746,197.201c1.491,32.597,2.949,65.195,3.724,97.817
				c0.75,31.577,0.472,63.099,2.36,94.646c2.849,47.555,7.738,95.166,4.883,142.847c0.116-1.883,0.232-3.767,0.349-5.651
				c-0.592,9.195-1.472,18.358-2.714,27.489c-0.751,5.524-0.244,10.829,5.307,13.728c5.901,3.082,13.549,1.769,19.525-0.146
				c8.601-2.753,16.602-7.757,23.154-13.931c4.934-4.648,11.271-11.855,12.239-18.973c8.639-63.517,0.542-127.318-2.646-190.896
				c-1.592-31.757-1.019-63.588-1.952-95.369c-0.959-32.636-2.542-65.25-4.023-97.865c-2.749-60.462-5.104-120.996-3.029-181.52
				c0.197-5.75-6.441-9.101-11.084-9.682c-7.516-0.94-15.413,1.692-22.014,5.012
				C861.738,1434.874,848.091,1447.197,847.539,1463.312L847.539,1463.312z"/>
		</g>
	</g>
	<g>
		<g>
			<path d="M875.377,1717.007c-120.163-16.481-245.456-15.876-362.735,17.718c-4.473,1.281-8.923,2.64-13.36,4.032
				c-14.538,4.565-31.803,17.181-35.395,32.903c-3.632,15.906,14.117,16.947,24.832,13.582c13.936-4.376,28.022-8.207,42.239-11.553
				c1.797-0.423,8.07-1.812-0.582,0.119c1.725-0.385,3.453-0.756,5.181-1.126c3.464-0.743,6.936-1.441,10.41-2.127
				c7.559-1.49,15.148-2.817,22.752-4.049c29.514-4.776,59.333-7.562,89.189-8.925c7.191-0.328,14.388-0.546,21.585-0.7
				c1.799-0.039,3.597-0.065,5.396-0.094c1.32-0.021,7.573-0.068,0.56-0.014c4.192-0.033,8.384-0.025,12.576-0.002
				c14.903,0.081,29.804,0.549,44.688,1.296c29.139,1.464,58.208,4.22,87.135,8.01c2.26,0.296,4.518,0.604,6.774,0.914
				c15.977,2.191,33.771-10.057,43.024-22.006C886.637,1735.961,891.438,1719.21,875.377,1717.007L875.377,1717.007z"/>
		</g>
	</g>
	<g>
		<g>
			<path d="M1158.539,1473.312c-7.188,130.541-17.229,261.01-18.212,391.807c-0.397,52.759,0.769,105.541,4.212,158.193
				c1.04,15.899,25.377,8.553,33.098,4.668c12.476-6.275,28.851-19.604,27.824-35.291c-8.533-130.514-2.871-261.396,4.671-391.808
				c3.05-52.735,6.425-105.45,9.329-158.192c0.316-5.734-6.542-9.112-11.084-9.682c-7.516-0.941-15.413,1.692-22.014,5.012
				c-8.043,4.047-15.481,9.854-21.011,16.994C1160.818,1460.869,1158.938,1466.074,1158.539,1473.312L1158.539,1473.312z"/>
		</g>
	</g>
	<g>
		<g>
			<path d="M1450.623,1480.993c48.26,8.333,97.23,12.017,146.177,12.509c50.94,0.512,101.912-2.166,152.457-8.573
				c16.145-2.046,33.113-13.873,40.528-28.378c2.503-4.896,4.378-11.61,0.873-16.617c-3.499-4.996-10.461-5.554-15.914-4.861
				c-23.882,3.026-47.855,5.226-71.885,6.661c-12.277,0.732-24.567,1.229-36.862,1.548c-3.086,0.081-6.173,0.14-9.261,0.193
				c-1.235,0.021-2.471,0.039-3.707,0.057c-6.398,0.09,5.615-0.037-0.784,0.009c-6.183,0.045-12.364,0.021-18.545-0.042
				c-48.312-0.485-96.694-4.266-144.323-12.49c-7.266-1.254-15.694,1.833-22.014,5.012c-8.043,4.047-15.481,9.854-21.011,16.994
				C1439.072,1462.415,1434.822,1478.264,1450.623,1480.993L1450.623,1480.993z"/>
		</g>
	</g>
	<g>
		<g>
			<path d="M1735.539,1475.312c0,66.242,0.005,132.484,0.517,198.727c0.256,33.123,0.65,66.244,1.229,99.363
				c0.459,26.356,2.489,52.641,3.138,78.992c0.312,12.692,0.218,25.396-0.521,38.074c0.116-1.884,0.232-3.768,0.349-5.65
				c-0.816,12.951-2.359,25.824-5.119,38.513c-1.286,5.909-2.925,11.734-4.827,17.473c-0.516,1.558-2.433,6.691,0.311-0.591
				c-0.524,1.393-1.093,2.767-1.66,4.141c-1.319,3.191-2.813,6.31-4.381,9.386c-1.343,2.631-2.825,5.188-4.356,7.712
				c-2.504,4.127,4.478-6.816,1.79-2.821c-0.598,0.89-1.224,1.759-1.85,2.628c-1.246,1.729-2.572,3.397-3.924,5.043
				c-0.674,0.82-1.373,1.618-2.071,2.417c-3.308,3.779,6.976-7.407,2.167-2.452c-1.473,1.519-3.014,2.968-4.574,4.395
				c-2.525,2.308-9.781,7.953,1.578-1.096c-3.613,2.878-7.439,5.479-11.365,7.912c12.311-7.625,4.48-2.677,1.458-1.043
				c-1.911,1.032-3.859,1.994-5.818,2.933c-1.977,0.947-3.985,1.824-6.002,2.678c12.345-5.229,2.686-1.163-0.348-0.083
				c-4.235,1.508-8.55,2.79-12.893,3.948c-2.581,0.688-11.47,2.622-0.296,0.17c-2.623,0.576-5.264,1.07-7.907,1.534
				c-9.623,1.688-19.377,2.577-29.136,2.925c-1.188,0.042-2.374,0.066-3.561,0.09c-4.76,0.097,6.641-0.027,1.875-0.027
				c-2.386,0-4.771-0.056-7.154-0.126c-5.183-0.155-10.356-0.516-15.519-0.997c-15.766-1.472-31.382-4.53-46.577-8.966
				c1.811,0.535,3.619,1.069,5.43,1.604c-24.349-7.237-48.045-18.169-67.506-34.722c1.284,1.107,2.567,2.214,3.852,3.321
				c-13.471-11.642-24.158-25.923-30.676-42.548c0.601,1.586,1.202,3.171,1.804,4.755c-6.694-17.862-8.222-36.81-7.099-55.734
				c-0.115,1.884-0.231,3.768-0.348,5.651c1.006-14.993,3.525-29.799,6.567-44.499c3.274-15.83-13.846-17.1-24.832-13.582
				c-14.287,4.573-32.136,17.157-35.395,32.902c-5.562,26.88-9.712,55.034-5.858,82.438c3.616,25.726,15.898,49.708,34.824,67.45
				c29.271,27.438,67.909,42.119,106.926,49.159c41.688,7.521,87.282,5.346,127.082-9.799c24.258-9.229,46.997-22.369,65.718-40.526
				c20.206-19.601,33.698-43.77,41.757-70.629c7.841-26.137,9.183-54.171,9.174-81.288c-0.008-25.488-2.046-50.913-2.999-76.371
				c-1.229-32.884-1.097-65.879-1.397-98.782c-0.306-33.12-0.463-66.242-0.551-99.363c-0.103-38.42-0.101-76.84-0.101-115.261
				c0-5.774-6.275-9.079-11.084-9.681c-7.517-0.941-15.413,1.691-22.015,5.012
				C1750.134,1446.675,1735.539,1459.327,1735.539,1475.312L1735.539,1475.312z"/>
		</g>
	</g>
	<g>
		<g>
			<path d="M1976.539,1473.312c-1.131,66.938,1.445,134.011,3.517,200.905c2.462,79.492,5.484,158.965,8.575,238.436
				c1.344,34.55,2.855,69.099,3.909,103.659c0.176,5.791,6.127,9.061,11.084,9.681c7.516,0.94,15.413-1.692,22.014-5.012
				c12.877-6.479,28.308-19.438,27.824-35.292c-1.685-55.349-4.208-110.676-6.31-166.008c-3.09-81.396-6.041-162.804-8.11-244.233
				c-1.124-44.224-2.328-88.52-1.581-132.759c0.098-5.764-6.357-9.09-11.084-9.682c-7.516-0.94-15.413,1.692-22.014,5.012
				C1990.939,1444.773,1976.811,1457.26,1976.539,1473.312L1976.539,1473.312z"/>
		</g>
	</g>
	<g>
		<g>
			<path d="M2252.539,1461.312c0.25,4.687,0.217,9.368-0.046,14.054c0.116-1.884,0.231-3.768,0.348-5.651
				c-1.116,17.619-5.414,34.853-11.194,51.484c-0.379,1.087-0.771,2.168-1.161,3.25c-1.595,4.408,2.378-6.26,0.702-1.859
				c-0.838,2.2-1.716,4.385-2.604,6.564c-1.973,4.832-4.094,9.602-6.295,14.333c-4.397,9.449-9.262,18.679-14.417,27.735
				c-2.544,4.471-5.191,8.883-7.896,13.26c-1.349,2.184-6.76,10.575-0.732,1.246c-1.655,2.562-3.347,5.102-5.053,7.629
				c-6.142,9.104-12.641,17.965-19.395,26.621c-6.75,8.652-13.831,17.047-21.163,25.21c-3.761,4.188,6.058-6.6,2.253-2.46
				c-0.882,0.959-1.771,1.912-2.662,2.863c-1.771,1.896-3.568,3.771-5.375,5.634c-3.87,3.997-7.832,7.904-11.854,11.747
				c-4.549,4.346-9.215,8.563-13.967,12.685c-2.174,1.886-4.379,3.734-6.597,5.567c-4.31,3.562,8.554-6.87,2.502-2.047
				c-1.258,1.002-2.528,1.989-3.801,2.973c-4.662,3.605-9.443,7.057-14.31,10.382c-2.205,1.506-4.44,2.966-6.689,4.404
				c-1.265,0.811-2.542,1.6-3.822,2.387c-4.619,2.839,9.586-5.656,3.228-1.95c-4.646,2.708-9.405,5.215-14.246,7.552
				c-2.175,1.05-4.378,2.039-6.593,2.999c-4.561,1.978,9.49-3.818,3.236-1.335c-1.233,0.49-2.478,0.952-3.724,1.41
				c-4.511,1.656-9.114,3.043-13.776,4.198c-4.342,1.074,8.908-1.904,2.95-0.685c-1.188,0.244-2.383,0.452-3.579,0.654
				c-2.341,0.397-4.699,0.681-7.062,0.904c-16.023,1.52-33.289,14.217-40.527,28.378c-2.503,4.896-4.378,11.611-0.873,16.617
				c3.574,5.105,10.387,5.387,15.914,4.861c41.834-3.967,81.585-27.173,113.998-52.621c37.836-29.708,71.082-65.144,98.759-104.487
				c19.299-27.437,36.562-56.684,48.896-87.944c10.969-27.798,19.166-57.002,17.553-87.187c-0.311-5.802-6.017-9.046-11.084-9.681
				c-7.517-0.941-15.413,1.691-22.014,5.012C2267.751,1432.364,2251.697,1445.564,2252.539,1461.312L2252.539,1461.312z"/>
		</g>
	</g>
	<g>
		<g>
			<path d="M2087.184,1748.395c12.657,29.568,31.5,56.641,50.16,82.662c24.249,33.817,50.438,66.241,77.404,97.919
				c23.033,27.059,46.794,53.604,71.971,78.693c8.422,8.394,17.019,16.681,26.197,24.25c5.458,4.5,12.331,10.167,19.575,11.252
				c0.056,0.006,0.112,0.013,0.168,0.019c15.513,1.727,29.446-15.159,35.771-27.203c4.188-7.977,11.686-31.42-4.09-33.176
				c-0.674-0.074-1.312-0.273-1.942-0.515c1.574,0.629,3.148,1.257,4.723,1.886c-6.559-2.646-12.281-8.086-17.536-12.646
				c-9.757-8.468-18.958-17.584-28.014-26.791c-25.673-26.104-49.961-53.595-73.511-81.614c-1.568-1.866-3.131-3.737-4.691-5.609
				c1.085,1.304,2.169,2.605,3.254,3.908c-23.339-28.049-45.916-56.777-66.939-86.607c-16.727-23.731-33.397-48.425-44.866-75.217
				c-6.265-14.633-26.71,0.105-32.814,6.361C2092.318,1715.892,2081.009,1733.97,2087.184,1748.395L2087.184,1748.395z"/>
		</g>
	</g>
	<g>
		<g>
			<path d="M2518.539,1475.312c0.021,60.332,3.047,120.748,5.665,181.009c3.563,82.014,7.79,164.021,13.647,245.905
				c2.746,38.395,5.469,76.933,10.688,115.086c2.139,15.634,24.553,8.968,33.098,4.668c11.665-5.867,29.917-19.994,27.824-35.291
				c-9.023-65.968-12.225-132.937-16.131-199.35c-4.741-80.598-8.53-161.262-11.389-241.949c-1.188-33.544-2.47-67.132-2.48-100.701
				c-0.002-5.774-6.273-9.079-11.084-9.682c-7.516-0.941-15.413,1.692-22.014,5.012
				C2533.139,1446.673,2518.533,1459.328,2518.539,1475.312L2518.539,1475.312z"/>
		</g>
	</g>
	<g>
		<g>
			<path d="M2549.623,2032.993c93.446-0.017,187.271-1.94,280.438-9.479c9.408-0.761,18.808-1.619,28.195-2.585
				c16.057-1.652,33.244-14.13,40.528-28.378c2.503-4.896,4.378-11.61,0.873-16.617c-3.556-5.077-10.405-5.43-15.913-4.861
				c-49.033,5.048-98.352,7.37-147.597,9.129c-24.684,0.882-49.374,1.531-74.067,2.013c-10.967,0.214-21.934,0.388-32.899,0.528
				c-2.431,0.031-4.862,0.059-7.293,0.086c-2.216,0.025-11.165,0.109-1.536,0.02c-4.705,0.044-9.41,0.079-14.115,0.106
				c-5.953,0.035-11.904,0.053-17.857,0.054c-16.848,0.003-32.697,8.669-43.023,22.006c-3.843,4.961-7.69,11.699-6.813,18.298
				C2539.242,2028.601,2544.211,2032.993,2549.623,2032.993L2549.623,2032.993z"/>
		</g>
	</g>
	<g>
		<g>
			<path d="M3124.068,1461.015c-9.67,21.319-14.674,44.148-19.229,67.03c-5.718,28.729-10.055,57.735-14.101,86.74
				c-9.947,71.312-17.593,142.949-24.689,214.593c-5.477,55.281-10.491,110.608-15.133,165.965
				c-0.697,8.321-1.373,16.644-2.065,24.964c-0.465,5.585-0.559,12.261,4.584,15.996c4.944,3.592,11.69,1.834,16.631-0.583
				c13.966-6.835,27.76-24.148,29.08-40.025c3.104-37.265,6.27-74.521,9.67-111.757c6.403-70.089,13.371-140.136,21.569-210.038
				c7.216-61.517,14.279-123.63,27.615-184.186c0.419-1.899,0.851-3.796,1.291-5.69c0.235-1.011,0.476-2.019,0.718-3.026
				c0.844-3.515-2.372,9.592-0.956,3.932c0.847-3.384,1.751-6.754,2.722-10.104c0.832-2.867,1.729-5.714,2.715-8.532
				c0.404-1.162,0.835-2.314,1.279-3.462c0.229-0.588,0.469-1.173,0.711-1.756c1.403-3.381-4.552,10.326-2.55,5.913
				c3.879-8.553,11.896-30.766-4.091-33.176C3145.082,1431.586,3129.414,1449.23,3124.068,1461.015L3124.068,1461.015z"/>
		</g>
	</g>
	<g>
		<g>
			<path d="M3125.539,1477.312c37.271,121.09,76.845,241.491,119.799,360.69c23.221,64.435,47.454,128.517,73.005,192.064
				c2.132,5.299,11.681,5.388,15.913,4.861c8.422-1.045,16.5-4.923,23.379-9.739c6.879-4.817,13.287-11.082,17.149-18.639
				c3.09-6.044,3.33-10.506,0.873-16.617c-12.693-31.569-25.048-63.274-37.117-95.09c0.601,1.585,1.202,3.169,1.804,4.754
				c-44.977-118.679-86.06-238.812-124.672-359.702c-9.906-31.017-19.633-62.089-29.211-93.207
				c-4.544-14.766-22.648-9.926-33.098-4.669c-8.043,4.046-15.481,9.854-21.01,16.994
				C3129.137,1463.166,3123.74,1471.469,3125.539,1477.312L3125.539,1477.312z"/>
		</g>
	</g>
	<g>
		<g>
			<path d="M3483,1449.102c-18.695,25.841-31.488,55.731-43.248,85.184c-13.535,33.9-24.903,68.663-35.664,103.527
				c-22.791,73.843-42.215,148.668-62.015,223.354c-5.597,21.111-11.19,42.229-17.198,63.227
				c-2.146,7.506-4.354,14.996-6.746,22.428c-0.908,2.819-1.854,5.629-2.854,8.417c-1.338,3.722-5.586,13.375,0.793-1.223
				c-3.748,8.579-11.983,30.752,4.092,33.176c14.634,2.206,30.605-15.385,35.771-27.204c8.659-19.813,14.357-40.561,20.105-61.373
				c8.654-31.344,16.816-62.824,25.152-94.254c20.166-76.038,40.567-152.176,65.821-226.713c4.233-12.493,8.643-24.93,13.279-37.279
				c2.216-5.903,4.499-11.78,6.845-17.633c1.063-2.653,2.146-5.299,3.242-7.938c1.361-3.283,6.312-14.694,0.559-1.451
				c4.092-9.418,8.455-18.724,13.248-27.806c2.133-4.038,4.375-8.019,6.733-11.928c2.978-4.933-5.598,8.927-3.17,5.065
				c0.575-0.914,1.164-1.819,1.757-2.722c1.124-1.713,2.295-3.396,3.495-5.057c6.181-8.541,17.749-30.348,5.563-39.201
				C3506.4,1422.86,3489.178,1440.561,3483,1449.102L3483,1449.102z"/>
		</g>
	</g>
	<g>
		<g>
			<path d="M3475.539,1471.312c10.915,65.462,22.887,130.757,35.553,195.9c15.133,77.825,31.104,155.6,50.645,232.454
				c7.434,29.238,15.303,58.478,25.314,86.955c3.918,11.144,8.059,22.31,13.243,32.938c2.776,5.688,5.921,11.814,10.647,16.156
				c0.133,0.119,0.266,0.236,0.4,0.353c5.014,4.331,9.072,5.712,15.913,4.861c8.422-1.045,16.5-4.923,23.379-9.739
				c6.879-4.817,13.287-11.082,17.149-18.639c1.896-3.71,5.175-12.9,0.873-16.616c-3.914-3.382-6.623-8.104-9.048-12.6
				c-3.961-7.344-7.12-15.124-10.087-22.911c0.603,1.585,1.202,3.169,1.805,4.754c-10.125-26.735-17.762-54.425-25.028-82.048
				c-9.562-36.353-18.031-72.992-26.104-109.701c-17.051-77.53-32.166-155.492-46.377-233.591
				c-6.007-33.01-11.838-66.055-17.355-99.149c-2.585-15.504-24.209-9.141-33.098-4.669c-8.043,4.046-15.481,9.854-21.011,16.993
				C3478.637,1457.812,3474.462,1464.854,3475.539,1471.312L3475.539,1471.312z"/>
		</g>
	</g>
	<g>
		<g>
			<path d="M3835.539,1473.312c1.393,128.025-0.097,256.174,7.542,384.043c3.315,55.504,8.453,110.924,16.458,165.957
				c2.27,15.598,24.453,9.018,33.098,4.668c8.043-4.046,15.481-9.854,21.01-16.993c3.797-4.901,7.769-11.75,6.814-18.298
				c-18.363-126.25-21.643-254.111-22.82-381.498c-0.52-56.166-0.568-112.337-1.18-168.503c-0.062-5.779-6.223-9.071-11.084-9.681
				c-7.516-0.941-15.413,1.692-22.014,5.012C3850.26,1444.611,3835.365,1457.372,3835.539,1473.312L3835.539,1473.312z"/>
		</g>
	</g>
	<g>
		<g>
			<path d="M3839.343,1480.066c17.999,16.513,33.746,35.524,49.089,54.469c21.475,26.515,41.886,53.889,61.988,81.45
				c47.691,65.386,93.435,132.181,139.312,198.844c39.668,57.643,78.887,115.729,120.812,171.771
				c11.65,15.575,23.434,31.299,36.799,45.465c10.459,11.084,29.165,2.215,39.293-4.878c6.879-4.816,13.287-11.082,17.148-18.638
				c2.143-4.189,4.885-12.366,0.875-16.617c-14.664-15.54-27.478-32.901-40.199-50.023c-19.185-25.815-37.691-52.131-56.098-78.504
				c-45.794-65.618-90.7-131.852-136.521-197.45c-41.789-59.826-83.791-119.854-130.019-176.374
				c-14.131-17.279-28.688-34.531-45.165-49.648c-4.835-4.437-9.238-5.69-15.913-4.861c-8.422,1.045-16.5,4.923-23.379,9.739
				c-6.879,4.817-13.287,11.082-17.149,18.638C3838.248,1467.298,3835.121,1476.193,3839.343,1480.066L3839.343,1480.066z"/>
		</g>
	</g>
	<g>
		<g>
			<path d="M4258.674,1474.938c8.602,131.894,17.285,263.936,16.205,396.182c-0.102,12.493-0.307,24.984-0.593,37.476
				c-0.06,2.629-0.128,5.259-0.196,7.888c0.179-6.777-0.119,3.694-0.166,5.2c-0.205,6.573-0.446,13.146-0.711,19.716
				c-0.998,24.993-2.455,49.969-4.359,74.908c-0.428,5.6-0.583,12.243,4.584,15.996c4.943,3.592,11.689,1.834,16.63-0.583
				c7.623-3.729,13.998-10.027,18.935-16.821c4.666-6.421,9.524-15.062,10.146-23.205c10.163-133.006,6.941-266.561-0.266-399.625
				c-2.799-51.691-6.188-103.349-9.557-155.006c-0.355-5.454-3.857-10.402-9.484-11.251c-6.584-0.991-13.388,2.739-18.416,6.494
				C4268.762,1441.762,4257.605,1458.559,4258.674,1474.938L4258.674,1474.938z"/>
		</g>
	</g>
	<g>
		<g>
			<path d="M745.356,2248.823c-52.966,7.485-104.785,23.082-150.759,50.876c-36.719,22.199-68.171,52.917-91.574,88.843
				c-22.295,34.223-37.141,73.38-46.728,112.938c-8.159,33.668-12.767,67.353-10.118,101.985
				c5.02,65.612,33.655,132.479,82.646,177.187c24.173,22.058,52.117,37.47,82.882,48.146
				c36.806,12.773,76.335,15.025,114.938,12.879c12.908-0.718,35.012-9.104,38.217-23.646c3.484-15.812-20.137-16.229-29.505-15.708
				c-2.616,0.146-10.457,0.418,1.28-0.02c-1.91,0.071-3.82,0.111-5.731,0.147c-3.743,0.07-7.487,0.044-11.23-0.028
				c-7.191-0.138-14.376-0.599-21.534-1.301c-1.732-0.17-3.463-0.371-5.192-0.576c10.383,1.231,3.523,0.447,1.205,0.111
				c-3.336-0.482-6.658-1.06-9.973-1.679c-6.805-1.273-13.542-2.896-20.203-4.774c-3.039-0.856-6.053-1.803-9.051-2.79
				c-1.902-0.626-7.727-2.747,0.746,0.297c-1.448-0.521-2.889-1.068-4.327-1.62c-5.985-2.298-11.846-4.914-17.595-7.75
				c-10.725-5.292-20.934-11.604-30.569-18.68c1.519,1.122,3.036,2.244,4.554,3.366c-25.729-19.101-46.559-43.867-62.211-71.75
				c0.828,1.479,1.654,2.958,2.482,4.438c-22.083-39.704-34.262-85.259-35.008-130.688c0.023,1.695,0.046,3.39,0.068,5.084
				c-0.291-22.337,3.188-44.25,7.702-66.08c5.542-26.801,13.419-53.161,24.283-78.297c-0.753,1.729-1.507,3.461-2.26,5.19
				c7.725-17.703,16.949-34.698,27.901-50.616c2.599-3.777,5.318-7.471,8.109-11.107c1.396-1.819,2.828-3.61,4.271-5.392
				c0.722-0.891,1.457-1.771,2.189-2.653c2.772-3.327-4.78,5.498-0.578,0.681c6.329-7.259,13.122-14.105,20.247-20.582
				c3.467-3.15,7.044-6.177,10.684-9.126c2.051-1.662,9.502-7.312,0.439-0.455c2.22-1.68,4.479-3.307,6.752-4.911
				c8.321-5.873,17.035-11.178,25.985-16.035c0.367-0.196,0.734-0.394,1.102-0.591c2.889-1.531,1.471-0.791-4.256,2.219
				c1.121-0.582,2.249-1.146,3.378-1.713c2.277-1.143,4.579-2.238,6.888-3.318c5.107-2.39,10.302-4.593,15.54-6.683
				c2.472-0.987,4.963-1.924,7.46-2.846c1.262-0.466,2.531-0.916,3.799-1.365c-2.084,0.719-4.168,1.438-6.253,2.158
				c0.857-0.294,1.718-0.584,2.58-0.872c5.707-1.914,11.477-3.633,17.277-5.237c7.437-2.057,14.95-3.822,22.5-5.406
				c2.836-0.595,10.862-2.096-1.838,0.319c1.98-0.376,3.967-0.727,5.953-1.074c4.561-0.797,9.137-1.492,13.719-2.14
				c13.046-1.844,34.845-8.344,38.218-23.647C778.226,2249.263,754.83,2247.484,745.356,2248.823L745.356,2248.823z"/>
		</g>
	</g>
	<g>
		<g>
			<path d="M736.499,2283.566c9.908,1.785,19.696,4.088,29.354,6.925c2.261,0.664,4.505,1.375,6.745,2.1
				c1.834,0.593,9.923,3.482,1.71,0.532c4.804,1.725,9.54,3.63,14.232,5.635c17.975,7.684,34.982,17.553,50.749,29.094
				c-1.518-1.123-3.036-2.244-4.553-3.366c30.614,22.657,55.877,51.741,74.467,84.955c-0.828-1.479-1.655-2.958-2.483-4.438
				c21.239,38.389,34.34,82.592,34.965,126.608c-0.022-1.695-0.045-3.39-0.068-5.084c0.583,50.17-10.402,101.231-30.329,147.189
				c0.753-1.729,1.506-3.461,2.26-5.19c-6.786,15.521-14.72,30.507-23.945,44.719c-4.686,7.217-9.745,14.188-15.105,20.916
				c-1.295,1.625-2.62,3.227-3.955,4.82c-2.84,3.389,4.502-5.219,1.604-1.875c-0.685,0.788-1.377,1.566-2.07,2.347
				c-3.018,3.394-6.152,6.68-9.357,9.896c-6.242,6.264-12.881,12.125-19.807,17.621c-0.84,0.668-1.691,1.322-2.541,1.978
				c8.294-6.389,4.511-3.427,2.646-2.046c-1.741,1.288-3.511,2.537-5.287,3.771c-3.896,2.707-7.898,5.259-11.96,7.705
				c-1.899,1.145-3.824,2.244-5.758,3.33c-0.973,0.547-1.953,1.078-2.935,1.609c-4.576,2.479,8.253-4.271,3.616-1.882
				c-4.384,2.259-8.86,4.335-13.385,6.296c-4.277,1.853-8.625,3.537-13.009,5.121c-5.251,1.896,9.641-3.289,4.334-1.494
				c-1.131,0.382-2.268,0.747-3.404,1.112c-2.685,0.862-5.392,1.653-8.104,2.418c-4.359,1.229-8.764,2.3-13.186,3.284
				c-3.095,0.688-11.864,2.344,1.727-0.252c-2.523,0.481-5.06,0.907-7.597,1.314c-10.166,1.63-20.431,2.589-30.711,3.091
				c-12.895,0.63-35.025,9.165-38.217,23.647c-3.495,15.854,20.146,16.165,29.505,15.708c48.63-2.377,96.591-16.233,138.572-40.948
				c33.9-19.957,62.651-48.35,84.74-80.763c35.939-52.738,55.506-118.089,58.96-181.562c4.513-82.918-28.627-166.478-89.802-222.983
				c-39.333-36.332-88.977-60.504-141.613-69.988c-16.259-2.93-35.461,1.339-47.79,12.805c-4.026,3.746-8.086,9.414-6.504,15.316
				C724.738,2279.265,731.166,2282.605,736.499,2283.566L736.499,2283.566z"/>
		</g>
	</g>
	<g>
		<g>
			<path d="M1187.854,2297.307c-4.758,127.493-4.663,255.027-0.932,382.545c0.791,27.033,1.729,54.062,2.751,81.086
				c1.009,26.631,2.142,53.412,4,80c0.382,5.456,3.839,10.4,9.486,11.251c6.583,0.992,13.387-2.739,18.415-6.493
				c12.615-9.423,23.896-26.285,22.753-42.635c-2.178-31.152-3.364-62.516-4.513-93.721c-1.176-31.904-2.197-63.812-3.021-95.729
				c-1.602-62.055-2.359-124.132-1.995-186.207c0.152-25.83,0.513-51.656,1.058-77.479c0.135-6.406,0.285-12.812,0.444-19.217
				c0.038-1.522,0.312-11.896,0.125-4.976c0.105-3.89,0.218-7.779,0.332-11.668c0.405-13.793,0.874-27.584,1.39-41.374
				c0.212-5.685,0.718-12.145-4.584-15.996c-4.944-3.592-11.69-1.834-16.631,0.583c-7.621,3.73-13.998,10.027-18.934,16.821
				C1193.505,2280.288,1188.149,2289.35,1187.854,2297.307L1187.854,2297.307z"/>
		</g>
	</g>
	<g>
		<g>
			<path d="M1172.645,2285.677c2.806-0.153,5.611-0.292,8.418-0.417c-12.545,0.562-1.568,0.083,1.332-0.006
				c6.17-0.189,12.341-0.283,18.513-0.314c11.954-0.06,23.907,0.216,35.849,0.77c11.904,0.552,23.79,1.458,35.645,2.672
				c2.82,0.289,5.638,0.608,8.453,0.938c1.403,0.164,2.805,0.338,4.207,0.513c-9.642-1.199-4.114-0.522-2.007-0.238
				c5.992,0.806,11.968,1.732,17.929,2.74c21.828,3.694,43.445,8.871,64.394,16.065c4.665,1.603-6.133-2.197-1.514-0.526
				c1.173,0.424,2.34,0.862,3.508,1.301c2.309,0.868,4.603,1.779,6.887,2.707c4.833,1.96,9.597,4.092,14.3,6.345
				c8.591,4.115,16.896,8.817,24.819,14.104c2.121,1.415,4.196,2.897,6.25,4.409c-1.518-1.121-3.035-2.243-4.553-3.365
				c13.722,10.247,25.73,22.648,34.158,37.643c-0.828-1.479-1.655-2.958-2.482-4.438c7.935,14.456,11.908,30.419,12.152,46.884
				c-0.023-1.695-0.046-3.39-0.068-5.084c0.113,22.985-3.813,45.863-12.87,67.05c0.753-1.729,1.507-3.461,2.26-5.19
				c-3.698,8.471-8.143,16.551-13.312,24.213c-2.427,3.597-5.049,7.058-7.777,10.43c-1.216,1.502-4.158,4.919,1.537-1.731
				c-0.702,0.819-1.42,1.625-2.139,2.43c-1.676,1.876-3.414,3.695-5.176,5.49c-3.021,3.078-6.192,6.008-9.44,8.845
				c-1.627,1.422-3.294,2.798-4.972,4.159c-0.841,0.683-1.693,1.35-2.546,2.017c-3.698,2.894,7.112-5.31,1.764-1.368
				c-7.328,5.4-15.078,10.215-23.044,14.61c-0.963,0.532-1.935,1.049-2.905,1.567c1.879-0.981,3.758-1.963,5.637-2.945
				c-0.653,0.338-1.307,0.673-1.963,1.006c-1.969,1.003-3.958,1.967-5.954,2.917c-4.341,2.067-8.754,3.981-13.201,5.808
				c-4.122,1.693-8.295,3.262-12.49,4.76c-5.123,1.83,9.745-3.34,4.596-1.585c-1.058,0.36-2.117,0.708-3.178,1.057
				c-2.474,0.813-4.962,1.582-7.454,2.334c-8.874,2.677-17.872,4.935-26.93,6.896c-2.157,0.468-4.32,0.906-6.486,1.336
				c2.331-0.45,4.663-0.899,6.993-1.35c-0.719,0.137-1.438,0.271-2.159,0.406c-1.078,0.201-2.157,0.393-3.236,0.584
				c-4.638,0.824-9.294,1.545-13.958,2.204c-9.408,1.33-18.865,2.295-28.341,2.976c-2.375,0.17-4.753,0.312-7.131,0.442
				c-1.007,0.055-2.015,0.103-3.021,0.149c-4.935,0.233,10.25-0.393,3.57-0.158c-4.528,0.159-9.06,0.228-13.589,0.232
				c-15.462,0.02-35.485,4.838-44.514,18.812c-8.642,13.379,7.26,21.271,18.688,21.257c83.142-0.102,172.688-19.249,237.937-73.5
				c31.426-26.128,53.359-62.837,60.173-103.213c3.391-20.095,4.096-41.942-1.234-61.755c-4.635-17.228-14.411-33.422-26.449-46.482
				c-28.521-30.938-70.159-47.763-109.78-58.947c-46.637-13.164-95.911-18.226-144.244-19.155
				c-20.387-0.394-40.778,0.229-61.134,1.341c-12.906,0.704-35.014,9.114-38.217,23.646
				C1139.653,2285.789,1163.277,2286.188,1172.645,2285.677L1172.645,2285.677z"/>
		</g>
	</g>
	<g>
		<g>
			<path d="M1882.801,2253.105c-86.745,49.616-176.717,110.849-218.418,205.439c-8.521,19.327-16.436,39.641-19.181,60.717
				c-1.995,15.316-1.548,31.088-0.002,46.421c3.396,33.683,13.755,66.671,27.832,97.349c16.049,34.975,37.356,67.979,64.161,95.677
				c28.565,29.52,63.042,51.608,101.938,64.677c27.918,9.38,57.276,11.532,86.511,10.292c12.881-0.546,35.039-9.222,38.218-23.647
				c3.503-15.896-20.158-16.104-29.505-15.707c13.147-0.559,1.9-0.149-1.231-0.15c-2.811,0-5.621-0.086-8.428-0.206
				c-2.771-0.119-5.538-0.321-8.3-0.558c-1.564-0.135-3.125-0.302-4.687-0.475c-4.798-0.529,8.631,1.188,1.792,0.221
				c-11.336-1.601-22.5-4.322-33.368-7.904c-1.811-0.597-6.155-2.157,1.992,0.736c-1.414-0.502-2.817-1.031-4.218-1.565
				c-2.447-0.933-4.866-1.934-7.274-2.959c-5.142-2.193-10.173-4.64-15.12-7.24c-9.877-5.193-19.295-11.235-28.288-17.834
				c1.519,1.122,3.035,2.244,4.554,3.365c-33.733-25-60.666-58.211-81.141-94.69c0.828,1.479,1.655,2.958,2.483,4.438
				c-23.695-42.536-40.625-91.407-41.455-140.479c0.022,1.695,0.046,3.391,0.069,5.084c-0.342-27.486,7.196-53.193,18.106-78.31
				c-0.754,1.729-1.507,3.46-2.261,5.19c9.622-21.824,22.003-42.223,36.595-61.074c1.765-2.279,3.574-4.522,5.399-6.754
				c0.913-1.114,1.84-2.219,2.767-3.321c3.448-4.104-4.075,4.711-0.557,0.667c3.79-4.356,7.716-8.592,11.713-12.758
				c8.376-8.729,17.225-16.996,26.345-24.94c4.412-3.843,8.916-7.58,13.466-11.258c2.284-1.847,4.593-3.663,6.908-5.472
				c1.16-0.904,2.328-1.802,3.495-2.696c-7.591,5.825-3.055,2.325-1.389,1.073c9.88-7.42,20.022-14.486,30.305-21.336
				c20.344-13.555,41.354-26.088,62.567-38.224c9.933-5.681,19.709-20.499,5.558-27.752
				C1915.923,2239.539,1896.233,2245.422,1882.801,2253.105L1882.801,2253.105z"/>
		</g>
	</g>
	<g>
		<g>
			<path d="M1901.088,2280.035c7.248,0.262,14.477,0.76,21.689,1.505c1.519,0.157,3.035,0.338,4.551,0.518
				c-9.882-1.176-2.238-0.269-0.082,0.044c3.952,0.575,7.887,1.262,11.811,2.001c6.744,1.271,13.431,2.835,20.062,4.593
				c3.265,0.864,6.506,1.813,9.736,2.797c1.832,0.558,3.653,1.148,5.475,1.744c1.705,0.558,8.396,2.93,0.496,0.116
				c25.225,8.982,48.984,21.857,70.551,37.694c-1.518-1.122-3.035-2.244-4.553-3.366c33.468,24.826,61.113,56.747,81.495,93.058
				c-0.828-1.479-1.655-2.959-2.483-4.438c21.006,37.807,35.065,80.612,35.873,124.094c-0.022-1.694-0.046-3.39-0.068-5.085
				c0.408,32.362-6.485,64.229-19.33,93.887c0.754-1.729,1.508-3.459,2.261-5.19c-8.774,19.979-20.052,38.7-33.238,56.069
				c-3.25,4.281-6.644,8.451-10.114,12.552c5.84-6.899-0.546,0.545-1.943,2.101c-2.131,2.369-4.312,4.693-6.512,7
				c-7.986,8.371-16.462,16.268-25.253,23.784c-4.3,3.679-8.709,7.228-13.176,10.699c-4.433,3.446,6.045-4.56,1.552-1.176
				c-1.143,0.86-2.296,1.708-3.449,2.556c-2.703,1.988-5.443,3.924-8.198,5.839c-9.993,6.948-20.351,13.365-30.938,19.365
				c-2.578,1.461-5.181,2.88-7.791,4.285c-0.437,0.232-0.875,0.467-1.312,0.7c-2.962,1.563-1.75,0.934,3.632-1.894
				c-1.325,0.688-2.658,1.364-3.99,2.039c-5.814,2.945-11.713,5.723-17.658,8.397c-5.547,2.496-11.16,4.843-16.808,7.102
				c-2.846,1.138-5.709,2.23-8.578,3.311c-3.093,1.162-15.922,5.627-2.797,1.108c-8.839,3.043-17.787,5.76-26.798,8.244
				c-10.164,2.802-32.901,12.38-28.994,26.965c3.881,14.486,28.43,11.656,38.591,8.854
				c99.427-27.409,197.194-85.521,251.545-175.597c22.729-37.667,36.814-80.934,37.044-125.099
				c0.232-44.657-12.078-87.941-32.855-127.311c-21.309-40.369-50.332-75.942-87.087-103.207
				c-40.69-30.184-87.892-50.106-138.187-57.156c-12.736-1.785-25.49-3.112-38.346-3.577c-15.271-0.551-35.709,5.187-44.513,18.813
				C1873.585,2272.423,1889.827,2279.628,1901.088,2280.035L1901.088,2280.035z"/>
		</g>
	</g>
	<g>
		<g>
			<path d="M1911.645,2755.677c4.85-0.8,9.722-1.354,14.628-1.645c4.854-0.287-10.313,0.321-3.784,0.184
				c1.261-0.026,2.521-0.02,3.781-0.009c2.493,0.023,4.983,0.148,7.47,0.323c2.876,0.2,11.772,1.357-0.24-0.206
				c2.424,0.314,4.834,0.729,7.235,1.186c4.782,0.91,9.499,2.147,14.147,3.583c0.873,0.271,1.741,0.558,2.608,0.845
				c5.389,1.782-5.732-2.08-1.938-0.688c2.302,0.845,4.574,1.771,6.832,2.728c4.571,1.938,9.029,4.137,13.406,6.478
				c9.062,4.846,17.665,10.521,25.937,16.608c-1.519-1.123-3.035-2.244-4.554-3.365c28.534,21.165,53.003,47.312,76.956,73.387
				c25.725,28.002,50.924,56.574,78.915,82.371c40.239,37.083,87.54,68.504,142.455,77.612c16.374,2.715,35.336-1.225,47.79-12.806
				c4.027-3.746,8.086-9.414,6.504-15.315c-1.515-5.654-7.968-9.129-13.291-10.012c-8.74-1.45-17.35-3.487-25.82-6.086
				c-2.089-0.642-4.162-1.334-6.228-2.044c9.181,3.154,1.207,0.391-0.903-0.424c-4.396-1.696-8.72-3.576-12.994-5.56
				c-16.24-7.534-31.474-17.117-45.859-27.737c1.518,1.122,3.035,2.244,4.553,3.365c-60.402-44.902-104.39-107.048-159.004-158.129
				c-21.347-19.966-45.027-38.832-71.811-50.945c-30.601-13.842-64.895-18.529-98.079-13.051
				c-9.078,1.499-17.688,3.819-25.556,8.783c-5.308,3.348-11.229,8.361-12.662,14.863
				C1878.807,2755.087,1902.153,2757.244,1911.645,2755.677L1911.645,2755.677z"/>
		</g>
	</g>
	<g>
		<g>
			<path d="M2450.673,2300.938c-1.416,58.983,0.255,118.127,1.354,177.101c1.501,80.708,3.539,161.416,6.479,242.085
				c1.499,41.105,2.836,82.309,6.167,123.314c0.444,5.459,3.791,10.394,9.486,11.252c6.583,0.991,13.387-2.739,18.415-6.494
				c12.5-9.335,24.074-26.359,22.753-42.635c-5.083-62.565-6.418-125.537-8.327-188.259c-2.437-80.071-4.26-160.167-5.345-240.269
				c-0.515-37.969-1.24-76.005-0.328-113.973c0.13-5.406-4.237-10.459-9.485-11.25c-6.584-0.992-13.388,2.738-18.416,6.493
				C2459.847,2268.446,2451.078,2284.062,2450.673,2300.938L2450.673,2300.938z"/>
		</g>
	</g>
	<g>
		<g>
			<path d="M2412.088,2288.951c27.938-0.006,55.86-0.319,83.787,0.624c17.178,0.58,34.342,1.595,51.455,3.196
				c4.222,0.395,8.438,0.836,12.652,1.312c2.111,0.238,4.221,0.492,6.33,0.751c4.755,0.585-8.122-1.049-3.372-0.43
				c1.405,0.183,2.81,0.375,4.213,0.568c8.732,1.202,17.435,2.636,26.093,4.295c9.172,1.758,18.281,3.836,27.303,6.248
				c4.238,1.134,8.45,2.369,12.639,3.679c2.222,0.694,4.431,1.426,6.635,2.175c1.878,0.638,5.925,2.107-2.524-0.903
				c1.232,0.439,2.46,0.896,3.687,1.354c15.638,5.845,30.755,13.362,44.219,23.29c-1.518-1.122-3.035-2.244-4.553-3.365
				c12.108,9.053,22.574,20.084,30.01,33.309c-0.827-1.479-1.654-2.959-2.482-4.438c7.892,14.337,11.617,30.272,11.955,46.582
				c-0.022-1.695-0.045-3.39-0.067-5.084c0.309,25.019-3.812,50.21-13.791,73.238c0.753-1.73,1.506-3.461,2.26-5.191
				c-2.903,6.597-6.256,12.966-10.062,19.086c-1.86,2.995-3.856,5.904-5.931,8.755c-1.051,1.446-2.142,2.863-3.245,4.271
				c-1.512,1.928-7.038,8.308-0.311,0.534c-5.129,5.926-10.769,11.396-16.715,16.493c-1.486,1.275-3.009,2.513-4.539,3.735
				c-0.776,0.62-1.562,1.227-2.351,1.833c8.422-6.495,4.772-3.623,2.874-2.226c-3.604,2.654-7.329,5.143-11.113,7.532
				c-3.65,2.306-7.395,4.463-11.183,6.537c-0.324,0.175-0.648,0.352-0.974,0.526c-2.842,1.514-1.297,0.711,4.634-2.408
				c-1,0.521-2.007,1.027-3.015,1.534c-2.396,1.205-4.822,2.35-7.259,3.473c-4.34,2-8.75,3.843-13.191,5.601
				c-2.306,0.912-4.629,1.775-6.958,2.627c-1.188,0.434-2.379,0.852-3.571,1.27c6.81-2.338,8.535-2.941,5.18-1.809
				c-0.816,0.273-1.636,0.543-2.455,0.811c-10.86,3.555-21.929,6.454-33.077,8.945c-2.861,0.64-5.733,1.232-8.608,1.812
				c-6.151,1.239,9.479-1.797,3.269-0.634c-1.496,0.28-2.994,0.545-4.493,0.811c-6.728,1.189-13.484,2.197-20.254,3.107
				c-13.556,1.821-27.184,3.062-40.828,3.952c-12.928,0.842-34.993,9.02-38.217,23.646c-3.472,15.751,20.122,16.319,29.506,15.708
				c53.664-3.497,108.203-12.975,157.715-34.677c36.72-16.095,70.562-39.74,93.936-72.723
				c17.493-24.688,27.271-54.691,29.806-84.693c1.389-16.437,1.422-33.452-2.699-49.511c-3.854-15.02-11.736-29.359-21.658-41.215
				c-21.97-26.252-54.836-40.892-86.644-51.192c-35.212-11.404-72.501-16.365-109.253-19.532
				c-42.912-3.697-85.913-3.263-128.934-3.253c-15.457,0.003-35.491,4.849-44.514,18.813
				C2384.753,2281.08,2400.662,2288.954,2412.088,2288.951L2412.088,2288.951z"/>
		</g>
	</g>
	<g>
		<g>
			<path d="M2493.193,2619.387c8.826,7.109,17.512,14.389,26.1,21.784c-1.283-1.106-2.566-2.214-3.852-3.321
				c77.249,66.697,148.586,145.651,244.682,185.533c17.635,7.319,35.964,13.069,54.5,17.61c6.86,1.681,16.121-2.048,22.014-5.013
				c8.043-4.045,15.481-9.854,21.01-16.992c3.844-4.962,7.691-11.699,6.814-18.299c-0.84-6.32-5.645-8.35-11.084-9.682
				c-5.15-1.262-10.27-2.634-15.362-4.117c1.811,0.534,3.62,1.069,5.431,1.604c-65.946-19.555-122.143-59.377-173.687-103.803
				c1.284,1.105,2.567,2.214,3.851,3.321c-44-38.021-85.482-78.897-130.803-115.4c-4.688-3.775-14.695-1.402-19.524,0.145
				c-8.602,2.754-16.603,7.758-23.155,13.932c-5.377,5.066-10.553,11.587-12.239,18.972
				C2486.444,2611.982,2488.463,2615.577,2493.193,2619.387L2493.193,2619.387z"/>
		</g>
	</g>
	<g>
		<g>
			<path d="M3373.657,2337.934c-23.062-34.843-56.572-64.328-95.398-80.235c-21.431-8.781-44.577-13.778-67.753-13.772
				c-31.129,0.008-60.49,7.079-89.125,19.085c-31.208,13.086-60.379,32.829-85.41,55.507c-18.474,16.736-35.143,37.86-41.478,62.387
				c-4.454,17.242-1.093,34.563,7.075,50.082c8.199,15.581,21.726,27.785,35.16,38.783c28.475,23.308,62.209,39.811,95.135,55.784
				c37.572,18.229,75.516,35.899,112.424,55.445c26.443,14.004,52.697,29.291,75.518,48.793c-1.284-1.106-2.567-2.214-3.852-3.321
				c14.301,12.368,27.681,26.85,34.516,44.771c-0.601-1.585-1.201-3.17-1.803-4.754c3.665,10.041,4.312,20.178,3.753,30.799
				c0.116-1.884,0.232-3.767,0.35-5.651c-0.798,12.379-3.33,24.463-7.375,36.185c-1.777,5.152,2.243-5.743,0.254-0.667
				c-0.541,1.379-1.123,2.741-1.705,4.104c-1.165,2.726-2.451,5.397-3.775,8.05c-1.325,2.655-2.766,5.25-4.241,7.823
				c-0.738,1.289-1.514,2.556-2.287,3.821c-2.677,4.377,4.447-6.65,0.09-0.213c-3.328,4.917-6.988,9.603-10.826,14.129
				c-0.958,1.13-1.945,2.234-2.934,3.339c1.257-1.382,2.514-2.763,3.771-4.145c-0.674,0.72-1.354,1.434-2.039,2.143
				c-2.385,2.482-4.877,4.859-7.409,7.189c-2.37,2.182-11.275,9.507-0.561,0.807c-2.267,1.84-4.604,3.586-6.965,5.301
				c-2.346,1.703-4.759,3.311-7.192,4.882c-2.323,1.5-7.64,4.593,3.09-1.781c-1.642,0.976-3.313,1.896-4.991,2.808
				c-2.497,1.358-5.051,2.608-7.622,3.818c-1.275,0.602-2.569,1.163-3.864,1.727c10.26-4.458,5.067-2.067,2.717-1.157
				c-6.869,2.657-13.952,4.812-21.044,6.782c-2.259,0.627-13.876,3.372-4.067,1.167c-3.238,0.728-6.499,1.351-9.766,1.938
				c-6.883,1.236-13.83,2.074-20.797,2.646c-3.142,0.258-6.289,0.412-9.438,0.53c-1.577,0.059-7.229,0.114,0.396,0.055
				c-1.55,0.012-3.099-0.01-4.647-0.032c-6.639-0.094-13.267-0.577-19.865-1.297c-12.524-1.368-24.895-3.984-37.001-7.448
				c-0.482-0.143-0.966-0.283-1.449-0.425c1.811,0.534,3.621,1.069,5.431,1.604c-44.91-13.468-84.746-39.329-120.847-68.697
				c-4.657-3.789-14.725-1.394-19.525,0.145c-8.602,2.753-16.602,7.757-23.154,13.931c-5.378,5.067-10.554,11.587-12.238,18.972
				c-1.449,6.346,0.59,9.891,5.306,13.728c41.755,33.969,87.95,61.928,140.87,74.123c26.664,6.146,54.713,6.947,81.812,3.506
				c30.102-3.821,61.348-12.677,87.818-27.737c51.658-29.39,96.363-80.19,105.263-140.616c1.745-11.854,2.685-24.685,0.519-36.561
				c-1.705-9.335-5.594-18.543-10.31-26.743c-10.229-17.789-26.517-31.883-42.53-44.291c-36.876-28.573-80.024-48.687-121.82-68.873
				c-33.145-16.01-66.729-31.52-99.052-49.15c-19.813-10.809-39.269-22.73-56.464-37.431c1.284,1.106,2.566,2.214,3.852,3.321
				c-12.771-11.043-24.691-23.982-30.857-39.951c0.602,1.584,1.202,3.169,1.804,4.754c-2.655-7.174-3.93-14.643-3.517-22.293
				c-0.116,1.884-0.231,3.768-0.35,5.65c0.229-3.22,0.729-6.378,1.486-9.515c0.357-1.489,0.814-2.952,1.291-4.407
				c1.303-3.98-2.572,6.59-1.008,2.649c0.361-0.909,0.764-1.802,1.165-2.693c0.692-1.542,1.477-3.041,2.276-4.529
				c0.5-0.928,1.037-1.834,1.573-2.741c2.452-4.144-4.495,6.828-1.792,2.752c2.633-3.967,5.643-7.674,8.787-11.241
				c-8.253,9.362-2.402,2.659-0.354,0.596c1.98-1.998,4.047-3.911,6.132-5.8c1.851-1.676,3.755-3.288,5.67-4.887
				c-10.804,9.02,0.323-0.148,2.945-2.135c5.498-4.162,11.179-8.078,16.967-11.822c1.519-0.982,3.056-1.933,4.594-2.883
				c-9.896,6.112-4.116,2.456-1.896,1.171c2.989-1.73,6.034-3.364,9.096-4.962c2.481-1.294,5-2.515,7.527-3.715
				c2.525-1.2,13.694-5.891,2.532-1.312c5.306-2.177,10.726-4.064,16.199-5.767c2.404-0.748,4.834-1.417,7.268-2.065
				c1.438-0.383,2.884-0.729,4.33-1.077c-9.258,2.223-3.785,0.855-1.729,0.434c5.598-1.147,11.26-1.948,16.94-2.528
				c2.306-0.234,4.62-0.392,6.934-0.528c1.373-0.082,2.748-0.128,4.123-0.175c5.181-0.177-6.34-0.006-1.181-0.008
				c5.357-0.001,10.711,0.332,16.041,0.866c9.924,0.994,19.727,3.037,29.293,5.829c-1.811-0.535-3.619-1.07-5.429-1.605
				c25.362,7.611,48.483,20.984,68.512,38.223c-1.284-1.107-2.567-2.215-3.851-3.321c14.824,12.915,27.814,27.771,38.666,44.167
				c3.346,5.053,10.601,5.521,15.914,4.862c8.422-1.045,16.5-4.923,23.379-9.74
				C3364.537,2366.955,3381.98,2350.509,3373.657,2337.934L3373.657,2337.934z"/>
		</g>
	</g>
	<g>
		<g>
			<path d="M3472.256,2290.929c1.971-0.028,3.941-0.053,5.912-0.075c-6.559,0.074,0.147,0.009,1.249,0.002
				c3.94-0.023,7.882-0.023,11.822-0.017c8.537,0.015,17.074,0.11,25.61,0.244c16.406,0.256,32.811,0.721,49.211,1.254
				c32.704,1.062,65.396,2.461,98.105,3.354c66.169,1.806,132.771,1.629,198.438-7.628c2.554-0.359,5.103-0.745,7.65-1.133
				c16.227-2.473,32.974-13.6,40.528-28.378c2.503-4.897,4.378-11.611,0.873-16.617c-3.438-4.909-10.523-5.684-15.913-4.862
				c-31.883,4.858-64.033,7.496-96.25,8.711c-7.756,0.293-15.517,0.483-23.274,0.623c-1.943,0.034-3.887,0.061-5.828,0.086
				c-6.635,0.089,5.494-0.039-1.145,0.013c-4.54,0.034-9.082,0.04-13.622,0.032c-16.267-0.021-32.53-0.316-48.792-0.729
				c-67.081-1.697-134.081-5.499-201.207-4.832c-2.628,0.025-5.255,0.059-7.882,0.095c-7.932,0.112-17.149,5.378-23.379,9.74
				c-6.879,4.817-13.287,11.082-17.149,18.638c-2.502,4.897-4.377,11.611-0.873,16.617
				C3460.115,2291.454,3466.559,2291.01,3472.256,2290.929L3472.256,2290.929z"/>
		</g>
	</g>
	<g>
		<g>
			<path d="M3662.539,2303.312c0.056,130.586,11.004,260.877,11.795,391.449c0.253,41.635-0.604,83.283-3.158,124.844
				c0.115-1.884,0.231-3.767,0.348-5.65c-0.202,3.236-0.414,6.472-0.636,9.707c-0.385,5.627-0.504,10.693,5.306,13.727
				c5.902,3.082,13.55,1.77,19.525-0.145c8.602-2.753,16.602-7.757,23.154-13.931c4.597-4.331,11.771-12.108,12.238-18.972
				c8.993-131.711,0.681-263.466-4.504-395.144c-1.791-45.481-3.127-90.988-3.146-136.508c-0.002-5.774-6.273-9.079-11.084-9.681
				c-7.516-0.941-15.413,1.691-22.014,5.012C3677.139,2274.672,3662.532,2287.328,3662.539,2303.312L3662.539,2303.312z"/>
		</g>
	</g>
	<g>
		<g>
			<path d="M4024.539,2277.312c6.104,83.008-0.875,166.403-4.681,249.353c-1.818,39.624-3.148,79.343-1.613,119
				c1.302,33.632,4.612,67.69,14.252,100.063c8.211,27.576,20.903,54.73,42.865,74.009c11.308,9.926,23.419,17.896,37.553,23.219
				c15.965,6.014,32.802,9.303,49.81,10.19c35.699,1.862,72.027-3.773,103.451-21.59c32.142-18.223,57.137-43.997,76.101-75.542
				c15.953-26.537,26.127-56.767,33.522-86.698c7.918-32.043,12.357-64.897,15.314-97.737c6.117-67.97,5.625-136.23,5.848-204.401
				c0.082-24.88,0.201-49.799,1.713-74.641c-0.115,1.884-0.231,3.768-0.348,5.65c0.911-14.67,2.118-29.566,5.787-43.847
				c1.361-5.306-0.205-11.062-5.307-13.728c-5.902-3.082-13.549-1.769-19.525,0.146c-14.869,4.76-31.33,17.083-35.395,32.903
				c-5.426,21.123-6.076,43.641-6.908,65.306c-1.099,28.521-0.951,57.087-0.99,85.625c-0.062,47.395-0.299,94.819-3.209,142.141
				c0.117-1.884,0.231-3.768,0.35-5.65c-2.098,33.643-5.494,67.26-11.699,100.413c-2.898,15.479-6.479,30.84-10.943,45.945
				c-2.121,7.17-4.481,14.27-7.069,21.284c3.515-9.522,1.003-2.688,0.14-0.487c-0.633,1.612-1.289,3.217-1.951,4.817
				c-1.416,3.416-2.916,6.795-4.477,10.147c-2.909,6.252-6.113,12.365-9.596,18.318c-0.813,1.394-1.654,2.772-2.504,4.146
				c-3.735,6.041,4.293-6.541,1.113-1.728c-1.883,2.849-3.866,5.631-5.915,8.363c-1.86,2.481-3.81,4.896-5.813,7.262
				c-0.99,1.172-2.01,2.32-3.037,3.461c8.478-9.408,5.59-6.094,3.701-4.084c-0.694,0.739-1.403,1.466-2.114,2.188
				c-2.119,2.159-4.326,4.229-6.584,6.242c-1.124,1.001-2.272,1.973-3.433,2.934c10.728-8.903,7.273-5.871,4.898-3.991
				c-0.785,0.621-1.582,1.226-2.383,1.827c-2.398,1.806-4.879,3.503-7.404,5.129c-0.631,0.407-1.271,0.802-1.912,1.198
				c-3.963,2.448,9.436-5.597,5.41-3.248c-1.523,0.89-3.076,1.73-4.638,2.552c-2.702,1.421-5.472,2.712-8.272,3.923
				c-4.078,1.764,9.197-3.744,5.068-2.082c-0.719,0.289-1.443,0.564-2.168,0.84c-1.705,0.647-3.43,1.242-5.162,1.814
				c-3.025,1-6.098,1.855-9.188,2.626c-2.351,0.585-6.488,1.46,4.303-0.95c-0.799,0.18-1.602,0.343-2.402,0.507
				c-1.896,0.388-3.804,0.717-5.715,1.023c-7.838,1.261-15.776,1.745-23.707,1.939c-1.935,0.047-6.469,0.032,2.295-0.011
				c-1.067,0.006-2.135-0.004-3.201-0.017c-2.432-0.024-4.861-0.111-7.291-0.226c-4.31-0.201-8.608-0.584-12.891-1.1
				c-7.896-0.949-15.711-2.542-23.344-4.771c1.811,0.535,3.619,1.07,5.43,1.605c-15.141-4.532-29.209-11.833-41.258-22.102
				c1.283,1.106,2.566,2.214,3.852,3.32c-17.127-14.812-28.818-34.459-36.821-55.454c0.603,1.584,1.203,3.169,1.806,4.754
				c-11.48-30.526-15.893-63.338-18.098-95.714c-2.641-38.787-1.771-77.768-0.271-116.583
				c3.226-83.362,10.711-166.842,6.798-250.313c-0.314-6.709-0.727-13.416-1.22-20.115c-1.167-15.873-25.283-8.601-33.099-4.669
				C4039.98,2248.249,4023.389,2261.666,4024.539,2277.312L4024.539,2277.312z"/>
		</g>
	</g>
	<g>
		<g>
			<path d="M801.154,3113.057c34.101,117.193,70.582,233.792,115.729,347.264c28.089,70.599,59.822,139.766,96.096,206.545
				c2.815,5.186,11.072,5.463,15.913,4.862c8.421-1.045,16.5-4.924,23.38-9.739c9.796-6.859,25.273-21.903,18.021-35.256
				c-42.484-78.214-78.597-159.675-110.21-242.843c0.601,1.585,1.202,3.169,1.804,4.754
				c-38.093-100.428-69.812-203.12-99.812-306.211c-4.324-14.86-22.829-9.834-33.099-4.669c-8.043,4.046-15.48,9.854-21.01,16.993
				C804.696,3098.984,799.433,3107.141,801.154,3113.057L801.154,3113.057z"/>
		</g>
	</g>
	<g>
		<g>
			<path d="M1229.874,3098.194c-51.292,104.126-95.843,211.552-135.853,320.479c-27.293,74.308-52.09,149.569-73.498,225.787
				c-1.477,5.257,0.291,11.107,5.307,13.728c5.902,3.082,13.549,1.769,19.525-0.146c15.145-4.848,30.944-17.062,35.395-32.903
				c16.716-59.512,35.54-118.416,55.929-176.768c5.114-14.635,10.343-29.23,15.656-43.794c2.539-6.958,5.106-13.907,7.688-20.849
				c0.645-1.731,1.291-3.463,1.938-5.191c-2.413,6.453-0.18,0.486,0.265-0.696c1.514-4.02,3.036-8.034,4.563-12.049
				c10.738-28.219,21.856-56.292,33.313-84.228c26.379-64.313,54.618-127.903,85.338-190.268c2.442-4.957,4.416-11.561,0.873-16.617
				c-3.505-5.005-10.454-5.54-15.913-4.861C1254.448,3071.797,1237.021,3083.686,1229.874,3098.194L1229.874,3098.194z"/>
		</g>
	</g>
	<g>
		<g>
			<path d="M1407.715,3113.057c18.512,115.63,46.257,229.574,82.589,340.889c23.851,73.07,51.357,144.907,80.731,215.922
				c2.371,2.966,5.464,4.607,9.279,4.927c7.332,0.918,15.647-1.543,22.015-5.013c42.258-23.026,79.251-55.686,111.635-91.023
				c16.924-18.467,33.066-37.529,47.354-58.132c12.086-17.431,23.637-35.732,31.612-55.464c2.121-5.248,4.596-11.304,0.874-16.617
				c-3.505-5.006-10.456-5.541-15.913-4.863c-8.422,1.046-16.5,4.924-23.38,9.741c-6.356,4.452-14.135,11.18-17.148,18.637
				c-3.216,7.957-7.042,15.629-11.213,23.125c-2.307,4.144-4.751,8.207-7.257,12.231c-3.981,6.395,3.946-6.004-0.232,0.364
				c-1.516,2.312-3.071,4.595-4.637,6.87c-12.273,17.834-26.024,34.65-40.555,50.685c8.047-8.88,1.418-1.584-0.427,0.385
				c-2.081,2.222-4.188,4.417-6.307,6.604c-3.862,3.986-7.802,7.899-11.784,11.767c-7.768,7.539-15.797,14.806-24.051,21.808
				c-1.814,1.539-3.648,3.054-5.488,4.562c10.752-8.814,2.131-1.765-0.419,0.222c-3.903,3.039-7.883,5.978-11.916,8.841
				c-3.821,2.717-7.722,5.317-11.677,7.834c-0.694,0.438-1.392,0.875-2.09,1.307c-2.443,1.52-7.354,4.345,3.856-2.293
				c-2.014,1.191-4.057,2.333-6.111,3.453c10.432-0.029,20.863-0.059,31.294-0.086c-13.125-31.733-25.878-63.621-38.074-95.724
				c0.601,1.585,1.203,3.17,1.804,4.754c-38.376-101.167-70.728-204.526-95.007-310c-11.15-48.434-20.578-97.259-28.436-146.333
				c-2.485-15.533-24.285-9.102-33.098-4.669c-8.043,4.046-15.481,9.854-21.01,16.993
				C1410.788,3099.589,1406.676,3106.57,1407.715,3113.057L1407.715,3113.057z"/>
		</g>
	</g>
	<g>
		<g>
			<path d="M1701.235,3287.074c16.148,88.177,29.823,178.988,66.198,261.631c19.123,43.447,45.243,83.265,73.627,121.161
				c3.702,4.941,10.278,5.562,15.914,4.862c11.438-1.42,22.344-7.843,30.617-15.617c73.382-68.948,119.446-160.534,153.438-254.01
				c33.229-91.385,54.285-186.715,73.332-281.892c3.543-17.701,7.009-35.416,10.493-53.128c3.11-15.812-13.717-17.14-24.832-13.582
				c-14.167,4.536-32.3,17.178-35.394,32.903c-18.312,93.104-36.725,186.351-64.539,277.184
				c-3.635,11.867-7.449,23.679-11.428,35.435c-1.904,5.625-3.861,11.23-5.853,16.826c-0.994,2.789-2.003,5.574-3.021,8.356
				c-0.506,1.39-1.021,2.776-1.533,4.164c-2.469,6.671,1.343-3.545-0.265,0.704c-8.606,22.762-18.083,45.197-28.556,67.164
				c-10.178,21.347-21.418,42.191-33.848,62.314c-1.463,2.371-2.952,4.723-4.451,7.069c5.862-9.183,0.223-0.405-1.167,1.688
				c-3.301,4.969-6.704,9.867-10.176,14.717c-6.592,9.207-13.541,18.156-20.793,26.852c-2.297,2.752-4.641,5.467-7.006,8.16
				c-1.179,1.342-2.373,2.671-3.568,3.998c8.288-9.195,2.268-2.49,0.337-0.433c-5.454,5.812-11.112,11.429-16.92,16.885
				c15.51-3.585,31.021-7.17,46.53-10.754c-33.708-45.002-63.501-92.603-83.522-145.338c0.602,1.585,1.203,3.169,1.804,4.754
				c-12.086-32.044-20.844-65.19-28.339-98.575c-9.979-44.443-17.957-89.329-26.161-134.124
				C1757.102,3228.844,1696.82,3262.965,1701.235,3287.074L1701.235,3287.074z"/>
		</g>
	</g>
	<g>
		<g>
			<path d="M2264.104,3120.812c55.232,99.759,107.772,201.068,167.179,298.459c57.991,95.074,122.987,186.59,201.858,265.597
				c10.796,10.813,28.872,2.419,39.292-4.877c6.879-4.817,13.287-11.082,17.149-18.638c2.072-4.056,4.97-12.514,0.873-16.616
				c-80.519-80.656-146.44-174.3-205.428-271.46c-58.011-95.553-109.486-194.842-163.609-292.596
				c-2.864-5.175-11.029-5.47-15.913-4.862c-8.422,1.045-16.5,4.923-23.379,9.739
				C2272.414,3092.359,2256.75,3107.53,2264.104,3120.812L2264.104,3120.812z"/>
		</g>
	</g>
	<g>
		<g>
			<path d="M2629.15,3103.76c-70.232,94.758-138.086,191.564-196.932,293.894c-49.652,86.342-91.774,176.729-124.565,270.81
				c-1.784,5.118,0.523,11.229,5.306,13.728c5.902,3.082,13.549,1.769,19.525-0.146c15.896-5.089,29.873-17.062,35.395-32.902
				c2.357-6.767,4.764-13.516,7.217-20.248c1.223-3.353,2.462-6.697,3.709-10.041c-2.467,6.613-0.295,0.805,0.18-0.45
				c0.84-2.216,1.688-4.427,2.539-6.638c5.281-13.741,10.803-27.39,16.502-40.963c11.268-26.826,23.382-53.295,36.166-79.431
				c25.286-51.688,53.455-101.933,83.526-150.979c6.011-9.804,12.111-19.55,18.272-29.259c1.541-2.43,3.09-4.854,4.641-7.278
				c0.62-0.97,1.242-1.939,1.864-2.908c-4.841,7.542-1.414,2.206-0.396,0.627c3.439-5.326,6.904-10.635,10.384-15.935
				c13.014-19.824,26.314-39.459,39.812-58.957c27.334-39.492,55.554-78.365,84.151-116.949c3.774-5.096,7.703-11.596,6.812-18.299
				c-0.773-5.821-5.629-8.998-11.084-9.682C2656.344,3079.771,2638.179,3091.579,2629.15,3103.76L2629.15,3103.76z"/>
		</g>
	</g>
	<g>
		<g>
			<path d="M2821,3125.141c2.863,10.136,7.887,19.684,12.85,28.916c7.371,13.715,15.539,26.998,23.865,40.146
				c20.906,33.014,43.239,65.123,65.682,97.104c18.602,26.511,37.429,52.861,56.037,79.366
				c12.543,17.868,25.48,35.679,36.586,54.498c7.948,13.47,25.534,1.102,32.814-6.362c6.288-6.443,11.43-14.355,14.333-22.907
				c1.879-5.534,3.752-13.985,0.485-19.521c-13.744-23.291-30.014-45.214-45.592-67.287c-22.709-32.18-45.594-64.237-67.98-96.643
				c-18.161-26.29-36.11-52.77-52.824-80.009c-10.729-17.489-22.986-36.143-28.623-56.091c-1.561-5.525-9.158-6.483-13.632-5.545
				c-7.413,1.558-14.022,6.618-19.183,11.906c-6.289,6.444-11.431,14.356-14.334,22.908
				C2819.102,3112.64,2819.028,3118.162,2821,3125.141L2821,3125.141z"/>
		</g>
	</g>
	<g>
		<g>
			<path d="M3212.926,3089.141c-67.52,104.324-137.693,207.651-191.628,319.92c-2.399,4.998-4.438,11.526-0.873,16.617
				c3.505,5.006,10.455,5.541,15.913,4.863c15.834-1.966,33.549-13.85,40.528-28.378c26.236-54.614,56.412-107.203,88.19-158.755
				c7.885-12.792,15.882-25.515,23.936-38.202c4.027-6.344,8.074-12.674,12.131-18.999c3.625-5.65-3.707,5.764-0.074,0.116
				c1.016-1.58,2.032-3.158,3.051-4.737c2.033-3.156,4.072-6.311,6.111-9.464c16.618-25.702,33.379-51.312,50.011-77.007
				c3.552-5.489,7.745-11.291,6.812-18.299c-0.772-5.821-5.629-8.998-11.084-9.682c-7.517-0.94-15.413,1.692-22.014,5.012
				C3226.42,3075.929,3217.6,3081.921,3212.926,3089.141L3212.926,3089.141z"/>
		</g>
	</g>
	<g>
		<g>
			<path d="M3003.291,3408.667c0.423,6.173,0.669,12.351,0.773,18.537c-0.023-1.694-0.047-3.39-0.069-5.084
				c0.503,41.089-5.144,81.915-8.071,122.826c-2.971,41.507-3.574,84.565,8.867,124.708c4.469,14.418,27.943,11.708,38.591,8.854
				c8.112-2.173,16.274-5.868,22.489-11.647c3.87-3.6,8.291-9.551,6.504-15.316c-7.256-23.414-9.975-47.783-10.396-72.22
				c0.023,1.694,0.046,3.39,0.069,5.084c-0.829-64.8,13.272-128.981,8.826-193.851c-0.396-5.754-8.953-9.018-13.291-10.013
				c-8.271-1.897-17.188-1.017-25.3,1.157C3019.756,3385.061,3002.244,3393.393,3003.291,3408.667L3003.291,3408.667z"/>
		</g>
	</g>
	<g>
		<g>
			<path d="M3533.53,3123.423c29.077-1.325,58.147-2.817,87.229-4.071c2.285-0.099,8.84-0.369-1.726,0.07
				c1.704-0.07,3.407-0.14,5.112-0.208c3.402-0.137,6.807-0.268,10.209-0.395c7.353-0.275,14.705-0.521,22.06-0.739
				c14.127-0.421,28.258-0.706,42.392-0.838c28.763-0.27,57.53,0.232,86.259,1.691c14.941,0.761,29.868,1.822,44.771,3.137
				c7.362,0.648,14.718,1.384,22.066,2.172c3.732,0.4,7.465,0.828,11.194,1.264c1.882,0.221,3.762,0.449,5.642,0.678
				c1.26,0.154,2.519,0.312,3.777,0.47c-4.433-0.568-5.064-0.647-1.898-0.237c12.298,1.598,24.563,3.42,36.806,5.398
				c-3.7-6.763-7.4-13.524-11.101-20.287c-15.282,20.809-31.285,41.069-47.736,60.965c-3.996,4.833-8.024,9.638-12.071,14.429
				c-2.028,2.403-4.066,4.798-6.107,7.192c-3.689,4.327,3.921-4.573,0.216-0.254c-1.368,1.597-2.741,3.189-4.114,4.781
				c-8.621,9.994-17.334,19.908-26.094,29.78c-35.385,39.877-71.647,78.963-107.052,118.823
				c-70.384,79.244-139.183,162.174-185.738,258.104c-9.089,18.73-17.327,37.917-24.604,57.425
				c-2.017,5.404,2.827,10.694,7.104,12.888c8.999,4.612,22.204,4.252,31.556,1.052c6.027-2.062,12.166-3.762,18.354-5.268
				c3.364-0.817,6.747-1.56,10.137-2.266c0.886-0.184,1.772-0.362,2.659-0.54c2.91-0.583,7.827-1.487-5.536,1.063
				c2.175-0.414,4.354-0.806,6.532-1.188c17.559-3.074,35.287-5.166,53.028-6.843c9.935-0.939,19.884-1.706,29.84-2.367
				c4.963-0.33,9.928-0.621,14.894-0.892c2.521-0.138,5.039-0.264,7.561-0.387c3.094-0.15,14.7-0.641,1.623-0.097
				c21.713-0.902,43.446-1.294,65.177-1.297c40.961-0.005,81.974,1.392,122.79,4.895c8.758,0.752,17.505,1.628,26.237,2.634
				c2.065,0.238,4.13,0.488,6.193,0.743c4.67,0.578-8.188-1.054-3.55-0.452c0.994,0.129,1.988,0.262,2.982,0.396
				c4.146,0.557,8.288,1.164,12.422,1.812c12.924,2.021,25.854,4.469,38.4,8.209c7.829,2.334,17.629,0.898,25.3-1.156
				c8.112-2.174,16.274-5.869,22.489-11.648c4.027-3.746,8.086-9.414,6.504-15.315c-1.652-6.166-7.909-8.408-13.291-10.013
				c-31.517-9.395-65.251-12.44-97.865-15.275c-41.686-3.624-83.585-4.934-125.418-4.895c-44.545,0.041-89.214,1.615-133.576,5.754
				c-17.747,1.654-35.463,3.804-53.029,6.843c-16.51,2.855-33.192,5.993-49.133,11.282c-0.44,0.146-0.882,0.297-1.32,0.448
				c12.887,4.646,25.772,9.293,38.659,13.939c3.759-10.078,7.79-20.048,12.076-29.912c-0.753,1.729-1.507,3.461-2.26,5.19
				c20.681-47.269,47.243-91.658,76.938-133.779c15.121-21.448,31.103-42.283,47.562-62.721
				c8.305-10.312,16.758-20.506,25.299-30.625c2.055-2.436,4.12-4.863,6.188-7.291c3.721-4.367-3.899,4.549-0.166,0.191
				c1.039-1.212,2.08-2.422,3.121-3.631c4.517-5.25,9.062-10.473,13.621-15.684c70.697-80.812,146.153-157.663,211.635-242.922
				c4.996-6.505,9.913-13.07,14.769-19.68c6.845-9.317-1.479-18.733-11.1-20.288c-62.196-10.052-124.95-15.536-187.941-16.436
				c-59.232-0.846-118.45,2.068-177.597,4.905c-13.548,0.648-27.097,1.302-40.646,1.919c-12.887,0.587-35.03,9.194-38.217,23.647
				C3500.525,3123.591,3524.178,3123.85,3533.53,3123.423L3533.53,3123.423z"/>
		</g>
	</g>
</g>
</svg>
