<?xml version="1.0" encoding="utf-8"?>
<!-- Generator: Adobe Illustrator 15.0.1, SVG Export Plug-In . SVG Version: 6.00 Build 0)  -->
<!DOCTYPE svg PUBLIC "-//W3C//DTD SVG 1.1//EN" "http://www.w3.org/Graphics/SVG/1.1/DTD/svg11.dtd">
<svg version="1.1" id="Layer_1" xmlns="http://www.w3.org/2000/svg" xmlns:xlink="http://www.w3.org/1999/xlink" x="0px" y="0px"
	 width="600px" height="750px" viewBox="0 0 600 750" enable-background="new 0 0 600 750" xml:space="preserve">
<g>
	<g>
		<path d="M122.539,160.312c19.943,129.273,7.051,259.969,1.145,389.782c-2.216,48.702-3.316,97.494-1.145,146.218
			c0.258,5.798,6.059,9.052,11.084,9.681c7.516,0.941,15.413-1.691,22.014-5.012c12.714-6.396,28.528-19.503,27.824-35.292
			c-5.759-129.276,11.417-258.15,10.827-387.388c-0.227-49.712-3.243-99.453-10.827-148.612c-2.4-15.559-24.352-9.069-33.098-4.669
			c-8.043,4.046-15.481,9.854-21.01,16.994C125.591,146.872,121.535,153.801,122.539,160.312L122.539,160.312z"/>
	</g>
</g>
<g>
	<g>
		<path d="M124.256,165.929c32.458-2.526,64.685-7.391,97.156-9.787c8.174-0.603,16.361-1.028,24.555-1.241
			c2.14-0.056,9.457-0.134-0.004-0.045c2.196-0.021,4.392-0.012,6.588,0.007c4.343,0.039,8.685,0.183,13.022,0.404
			c15.59,0.795,31.158,2.976,46.162,7.355c-1.81-0.535-3.619-1.07-5.43-1.605c16.243,4.858,31.456,12.45,44.411,23.468
			c-1.284-1.107-2.567-2.214-3.852-3.321c15.527,13.46,26.464,30.887,33.809,49.965c-0.601-1.585-1.202-3.17-1.804-4.755
			c7.895,20.994,12.17,43.43,10.877,65.892c0.116-1.884,0.232-3.768,0.349-5.651c-0.628,9.431-2.238,18.712-4.893,27.785
			c-0.614,2.102-1.313,4.177-2.04,6.242c-1.505,4.275,2.445-6.352,0.793-2.139c-0.396,1.01-0.818,2.009-1.24,3.008
			c-1.823,4.313-3.942,8.497-6.225,12.583c-1.054,1.886-2.175,3.732-3.317,5.565c6.106-9.796,1.496-2.366-0.068-0.133
			c-2.711,3.87-5.651,7.576-8.708,11.177c-0.711,0.837-1.438,1.661-2.166,2.484c-3.42,3.869,6.324-6.853,2.799-3.068
			c-1.512,1.624-3.069,3.204-4.641,4.769c-3.445,3.434-7.055,6.699-10.745,9.867c-0.86,0.738-1.732,1.463-2.604,2.188
			c-4.22,3.507,7.995-6.436,3.697-3.011c-1.792,1.429-3.617,2.817-5.45,4.192c-4.019,3.014-8.149,5.876-12.335,8.651
			c-1.952,1.294-3.929,2.552-5.911,3.799c-0.996,0.626-2,1.24-3.003,1.854c-4.757,2.913,8.756-5.21,3.949-2.366
			c-4.43,2.622-8.936,5.113-13.479,7.532c-8.812,4.692-17.834,8.988-26.961,13.032c-2.193,0.972-4.397,1.919-6.605,2.859
			c-1.103,0.469-2.208,0.93-3.314,1.392c10.836-4.521,5.895-2.423,3.489-1.445c-4.78,1.943-9.595,3.802-14.426,5.614
			c-21.125,7.922-42.695,14.618-64.412,20.71c-14.526,4.074-31.879,17.513-35.394,32.903c-1.224,5.359,0.101,11.008,5.306,13.726
			c6.06,3.164,13.374,1.581,19.526-0.145c39.415-11.055,78.345-24.386,115.262-42.198c41.322-19.939,81.096-46.811,109.541-83.3
			c13.63-17.484,23.964-37.443,29.807-58.847c5.596-20.496,5.88-42.756,2.394-63.628c-6.79-40.658-27.068-79.133-62.861-101.026
			c-32.693-19.998-72.667-22.743-109.982-22.284c-37.043,0.455-73.771,6.079-110.57,9.731c-5.184,0.515-10.372,0.978-15.565,1.382
			c-15.952,1.241-33.383,14.402-40.528,28.378c-2.503,4.897-4.378,11.611-0.874,16.617
			C111.959,166.231,118.691,166.362,124.256,165.929L124.256,165.929z"/>
	</g>
</g>
<g>
	<g>
		<path d="M342.193,408.387c17.328,6.848,33.381,16.379,47.53,28.514c-1.283-1.106-2.567-2.214-3.851-3.32
			c17.966,15.68,32.209,35.176,40.781,57.483c-0.602-1.585-1.203-3.17-1.804-4.755c6.263,16.79,9.051,34.52,8.041,52.421
			c0.116-1.884,0.232-3.768,0.349-5.651c-0.768,11.44-3.04,22.628-6.681,33.498c-0.538,1.606-2.449,6.535,0.368-0.834
			c-0.518,1.354-1.078,2.692-1.638,4.029c-1.141,2.725-2.408,5.394-3.714,8.041c-1.341,2.718-2.806,5.373-4.308,8.004
			c-0.768,1.344-1.574,2.664-2.381,3.984c-3.037,4.972,4.405-6.585,0.667-1.088c-2.495,3.669-5.253,7.153-8.129,10.529
			c-0.738,0.866-1.498,1.714-2.258,2.562c7.888-8.801,4.45-4.86,2.629-2.956c-1.895,1.981-3.867,3.888-5.864,5.764
			c-1.752,1.646-3.557,3.233-5.377,4.803c-0.925,0.797-1.865,1.574-2.807,2.352c9.962-8.233,5.643-4.566,3.38-2.795
			c-4.33,3.39-8.837,6.551-13.424,9.581c-2.18,1.439-4.397,2.822-6.625,4.187c12.035-7.37,2.831-1.721-0.049-0.104
			c-5.16,2.895-10.442,5.568-15.783,8.113c-2.521,1.201-5.067,2.346-7.622,3.473c-1.29,0.569-2.587,1.12-3.885,1.671
			c-5.405,2.293,8.13-3.305,2.665-1.106c-5.797,2.333-11.679,4.448-17.603,6.435c-5.575,1.869-11.212,3.551-16.877,5.124
			c-2.866,0.796-5.747,1.535-8.632,2.256c-1.449,0.362-2.903,0.705-4.357,1.049c-5,1.181,7.788-1.69,0.143-0.058
			c-12.35,2.637-24.854,4.526-37.415,5.811c-8.093,0.827-16.217,1.313-24.347,1.556c-1.703,0.051-9.119,0.11-0.99,0.058
			c-2.031,0.013-4.063-0.008-6.094-0.033c-4.056-0.05-8.11-0.207-12.161-0.415c-16.048-0.822-32.022-3.021-47.696-6.558
			c-6.97-1.573-16.008,1.99-22.014,5.012c-8.043,4.047-15.481,9.854-21.01,16.993c-3.842,4.962-7.691,11.699-6.814,18.299
			c0.83,6.241,5.638,8.452,11.084,9.681c53.095,11.983,108.608,7.967,161.11-4.908c50.923-12.489,101.382-36.552,139.812-72.662
			c37.565-35.299,61.316-87.144,54.304-139.2c-6.339-47.046-37.848-87.058-78.113-110.591c-7.33-4.284-15.037-7.9-22.929-11.018
			c-14.764-5.833-32.158,4.163-42.68,14.076c-5.378,5.067-10.554,11.587-12.239,18.972
			C335.779,399.515,336.808,406.259,342.193,408.387L342.193,408.387z"/>
	</g>
</g>
</svg>
