<?xml version="1.0" encoding="utf-8"?>
<!-- Generator: Adobe Illustrator 15.0.1, SVG Export Plug-In . SVG Version: 6.00 Build 0)  -->
<!DOCTYPE svg PUBLIC "-//W3C//DTD SVG 1.1//EN" "http://www.w3.org/Graphics/SVG/1.1/DTD/svg11.dtd">
<svg version="1.1" id="Layer_1" xmlns="http://www.w3.org/2000/svg" xmlns:xlink="http://www.w3.org/1999/xlink" x="0px" y="0px"
	 width="600px" height="750px" viewBox="0 0 600 750" enable-background="new 0 0 600 750" xml:space="preserve">
<g>
	<g>
		<path d="M467.807,163.613c-44.642-34.919-94.733-70.845-154.577-63.962c-31.241,3.593-61.499,19.707-85.736,39.229
			c-22.582,18.188-42.272,39.284-58.222,63.55c-25.332,38.54-43.995,81.615-53.54,126.798c-7.92,37.488-10.882,76.279-9.955,114.551
			c0.93,38.374,6.457,76.94,18.526,113.451c11.726,35.47,29.146,69.46,56.338,95.574c32.223,30.945,74.733,49.358,119.667,48.896
			c29.863-0.308,59.456-10.819,85.592-24.673c27.967-14.824,52.853-34.016,77.267-53.976c5.946-4.861,11.826-9.802,17.707-14.741
			c7.385-6.202,20.594-25.566,6.934-32.698c-5.902-3.082-13.549-1.77-19.525,0.145c-8.914,2.854-16.08,7.988-23.154,13.931
			c-6.28,5.274-12.567,10.539-18.916,15.729c10.85-8.87-1.079,0.829-3.802,2.972c-3.734,2.938-7.516,5.819-11.327,8.657
			c-6.783,5.053-13.734,9.876-20.848,14.452c-1.77,1.139-3.56,2.245-5.354,3.345c5.756-3.427,7.071-4.217,3.945-2.37
			c-0.903,0.528-1.81,1.052-2.72,1.569c-4.063,2.329-8.214,4.501-12.413,6.574c-1.853,0.915-3.729,1.78-5.609,2.638
			c-2.334,1.063-9.848,4.098,0.826-0.239c-3.786,1.538-7.644,2.891-11.531,4.143c-1.936,0.623-3.893,1.179-5.852,1.723
			c-2.106,0.585-9.642,2.255,0.069,0.114c-4.465,0.984-8.99,1.664-13.531,2.173c-2.03,0.228-4.068,0.366-6.106,0.492
			c-1.706,0.105-9.107,0.093-1.08,0.115c-4.187-0.012-8.366-0.33-12.525-0.786c-8.084-0.889-16.024-2.826-23.815-5.11
			c1.81,0.535,3.619,1.07,5.429,1.605c-21.966-6.6-42.212-17.55-59.634-32.48c1.284,1.107,2.567,2.214,3.851,3.321
			c-26.144-22.696-44.353-52.758-56.633-84.869c0.601,1.584,1.203,3.169,1.804,4.754c-20.041-53.032-25.285-111.207-21.879-167.486
			c-0.116,1.884-0.232,3.768-0.349,5.651c2.226-35.42,7.604-71.379,19.333-104.982c0.687-1.967,4.056-11.072,0.883-2.615
			c0.958-2.555,1.956-5.095,2.966-7.629c2.232-5.598,4.623-11.132,7.117-16.619c4.914-10.807,10.413-21.344,16.438-31.571
			c1.459-2.478,2.972-4.924,4.503-7.359c-5.723,9.102-0.005,0.081,1.397-1.981c3.504-5.153,7.226-10.155,11.096-15.038
			c1.782-2.248,3.624-4.447,5.487-6.628c0.93-1.089,1.881-2.159,2.832-3.229c3.922-4.416-5.941,6.419-1.906,2.112
			c4.221-4.506,8.685-8.779,13.306-12.872c1.417-1.256,2.869-2.473,4.324-3.684c-10.387,8.642-3.04,2.498-0.545,0.619
			c3.777-2.845,7.706-5.482,11.712-7.992c4.961-3.108-9.204,5.325-1.877,1.185c2.069-1.169,4.18-2.26,6.3-3.331
			c2.13-1.076,4.301-2.07,6.48-3.042c3.06-1.318,1.746-0.791-3.942,1.582c1.428-0.587,2.854-1.112,4.323-1.588
			c2.147-0.696,4.333-1.268,6.521-1.819c-9.488,2.392,0.001,0.162,2.255-0.172c2.664-0.395,5.35-0.616,8.035-0.793
			c1.065-0.062,2.131-0.106,3.198-0.135c-7.451,0.254-1.858,0.051-0.269,0.096c10.056,0.283,20.01,2.245,29.642,5.059
			c-1.811-0.535-3.62-1.07-5.43-1.605c36.418,11.097,67.311,34.91,96.887,58.044c4.775,3.735,14.615,1.427,19.525-0.145
			c8.601-2.753,16.602-7.757,23.154-13.931c5.378-5.067,10.554-11.587,12.239-18.972
			C474.54,171.088,472.578,167.345,467.807,163.613L467.807,163.613z"/>
	</g>
</g>
</svg>
