<?xml version="1.0" encoding="utf-8"?>
<!-- Generator: Adobe Illustrator 15.0.1, SVG Export Plug-In . SVG Version: 6.00 Build 0)  -->
<!DOCTYPE svg PUBLIC "-//W3C//DTD SVG 1.1//EN" "http://www.w3.org/Graphics/SVG/1.1/DTD/svg11.dtd">
<svg version="1.1" id="Layer_1" xmlns="http://www.w3.org/2000/svg" xmlns:xlink="http://www.w3.org/1999/xlink" x="0px" y="0px"
	 width="600px" height="750px" viewBox="0 0 600 750" enable-background="new 0 0 600 750" xml:space="preserve">
<g>
	<g>
		<path d="M118.539,135.312c1.97,73.337,1.831,146.746,1.77,220.103c-0.066,79.248-0.521,158.495-1.09,237.741
			c-0.235,32.717-0.674,65.438-0.68,98.156c-0.001,5.773,6.276,9.079,11.084,9.681c7.516,0.941,15.413-1.691,22.014-5.012
			c13.231-6.656,27.821-19.307,27.824-35.292c0.009-48.031,0.684-96.067,0.994-144.098c0.533-82.376,0.909-164.756,0.749-247.134
			c-0.107-54.92-0.268-109.865-1.743-164.768c-0.155-5.789-6.145-9.062-11.084-9.681c-7.516-0.941-15.413,1.692-22.014,5.012
			C133.445,106.519,118.113,119.441,118.539,135.312L118.539,135.312z"/>
	</g>
</g>
<g>
	<g>
		<path d="M134.256,152.929c11.871-1.818,23.803-3.138,35.79-3.885c2.687-0.167,5.376-0.29,8.066-0.396
			c2.25-0.089,13.239-0.248,4-0.171c5.66-0.047,11.319,0.084,16.973,0.335c21.93,0.974,43.759,4.421,64.83,10.601
			c-1.81-0.535-3.62-1.07-5.429-1.605c29.736,8.881,57.417,23.441,81.025,43.648c-1.283-1.107-2.567-2.214-3.851-3.321
			c30.249,26.184,52.02,60.245,66.285,97.431c-0.602-1.584-1.203-3.169-1.804-4.754c18.499,48.896,24.617,101.362,21.532,153.384
			c0.115-1.884,0.231-3.768,0.348-5.65c-1.464,23.393-4.782,46.63-10.136,69.454c-2.646,11.277-5.866,22.417-9.587,33.386
			c-0.883,2.603-1.813,5.188-2.761,7.768c3.096-8.43-0.345,0.775-1.12,2.705c-2.185,5.437-4.559,10.795-7.061,16.092
			c-2.277,4.823-4.726,9.563-7.282,14.244c-1.265,2.315-2.582,4.602-3.918,6.877c-1.37,2.333-7.517,11.947-1.379,2.458
			c-5.811,8.983-12.312,17.514-19.398,25.527c-3.664,4.145,6.129-6.633,2.362-2.591c-0.859,0.922-1.736,1.826-2.614,2.731
			c-1.749,1.803-3.553,3.552-5.374,5.281c-1.904,1.808-3.872,3.544-5.84,5.281c-2.003,1.771-7.095,5.883,2.323-1.759
			c-1.639,1.33-3.326,2.6-5.019,3.859c-2.507,1.866-5.099,3.615-7.714,5.323c-0.436,0.278-0.871,0.556-1.307,0.834
			c-3.081,1.912-1.733,1.12,4.044-2.377c-1.319,0.788-2.661,1.536-4.003,2.285c-2.67,1.488-5.401,2.861-8.15,4.195
			c-1.369,0.664-2.757,1.29-4.144,1.916c-7.606,3.436,6.135-2.406,0.919-0.323c-5.635,2.25-11.409,4.138-17.232,5.831
			c-2.92,0.849-5.866,1.6-8.819,2.32c-5.679,1.388,7.239-1.575,1.519-0.341c-1.99,0.43-3.991,0.814-5.991,1.193
			c-12.622,2.39-25.434,3.707-38.247,4.507c-6.208,0.388-12.427,0.6-18.645,0.736c-1.557,0.034-3.114,0.056-4.67,0.077
			c7.621-0.105,1.983-0.022,0.407-0.017c-3.628,0.015-7.256-0.011-10.883-0.047c-13.312-0.135-26.618-0.584-39.924-0.966
			c-16.691-0.48-32.923,8.961-43.024,22.005c-3.842,4.962-7.691,11.699-6.814,18.299c0.719,5.412,5.657,9.525,11.084,9.681
			c54.771,1.574,110.94,3.851,163.569-14.162c56.719-19.413,101.033-60.641,130.516-112.075
			c23.628-41.223,36.814-88.793,42.419-135.759c5.48-45.916,4.623-93.212-5.67-138.409c-9.933-43.61-27.823-86.511-56.512-121.165
			c-25.894-31.277-60.255-55.176-98.483-68.716c-51.148-18.116-106.423-19.799-159.718-11.635
			c-16.228,2.485-32.969,13.591-40.528,28.378c-2.503,4.897-4.378,11.611-0.874,16.617
			C121.778,152.973,128.868,153.754,134.256,152.929L134.256,152.929z"/>
	</g>
</g>
</svg>
