<?xml version="1.0" encoding="utf-8"?>
<!-- Generator: Adobe Illustrator 15.0.1, SVG Export Plug-In . SVG Version: 6.00 Build 0)  -->
<!DOCTYPE svg PUBLIC "-//W3C//DTD SVG 1.1//EN" "http://www.w3.org/Graphics/SVG/1.1/DTD/svg11.dtd">
<svg version="1.1" id="Layer_1" xmlns="http://www.w3.org/2000/svg" xmlns:xlink="http://www.w3.org/1999/xlink" x="0px" y="0px"
	 width="600px" height="750px" viewBox="0 0 600 750" enable-background="new 0 0 600 750" xml:space="preserve">
<g>
	<g>
		<path d="M158.539,133.312c2.845,131.34-2.454,262.656-5.714,393.937c-1.308,52.678-2.273,105.367-2.286,158.063
			c-0.001,5.773,6.277,9.079,11.084,9.681c7.516,0.941,15.413-1.691,22.014-5.012c13.232-6.656,27.821-19.306,27.824-35.292
			c0.031-131.767,6.095-263.427,8.164-395.161c0.82-52.276,0.969-104.567-0.164-156.839c-0.125-5.787-6.17-9.066-11.084-9.681
			c-7.516-0.941-15.413,1.692-22.014,5.012C173.385,104.549,158.195,117.418,158.539,133.312L158.539,133.312z"/>
	</g>
</g>
<g>
	<g>
		<path d="M110.256,150.929c96.757-2.161,193.47-6.083,290.244-7.582c4.024-0.062,8.05-0.118,12.074-0.169
			c1.742-0.022,3.485-0.042,5.228-0.062c0.859-0.009,1.72-0.019,2.579-0.028c4.978-0.053-6.48,0.06-1.544,0.014
			c7.596-0.069,15.19-0.107,22.786-0.109c16.849-0.005,32.696-8.668,43.024-22.006c3.842-4.961,7.69-11.699,6.813-18.298
			c-0.703-5.289-5.672-9.683-11.084-9.681c-98.523,0.028-197.039,4.041-295.51,6.802c-16.373,0.459-32.747,0.896-49.123,1.262
			c-7.974,0.178-17.099,5.343-23.379,9.74c-6.879,4.817-13.286,11.082-17.149,18.638c-2.503,4.897-4.378,11.611-0.874,16.617
			C98.095,151.425,104.574,151.056,110.256,150.929L110.256,150.929z"/>
	</g>
</g>
<g>
	<g>
		<path d="M114.256,448.929c33.701-7.096,67.926-11.4,102.314-13.203c8.734-0.457,17.478-0.71,26.223-0.827
			c-6.817,0.092-0.377,0.02,0.854,0.017c2.493-0.005,4.986,0.015,7.479,0.038c4.353,0.041,8.705,0.144,13.056,0.272
			c17.191,0.509,34.357,1.785,51.441,3.767c16.129,1.871,33.606-9.843,43.024-22.005c6.813-8.8,11.937-26.1-4.271-27.98
			c-71.185-8.257-144.522-4.698-214.633,10.064c-16.361,3.445-32.661,12.989-40.528,28.378c-2.503,4.897-4.378,11.611-0.874,16.617
			C101.646,448.783,109.013,450.033,114.256,448.929L114.256,448.929z"/>
	</g>
</g>
<g>
	<g>
		<path d="M161.256,706.929c79.94-2.172,159.831-5.95,239.784-7.729c6.382-0.142,12.764-0.266,19.146-0.367
			c2.924-0.047,5.847-0.087,8.77-0.121c0.623-0.008,1.246-0.015,1.869-0.021c4.156-0.045-7.093,0.064-2.988,0.029
			c1.46-0.013,2.919-0.021,4.379-0.029c8.467-0.046,16.946-0.055,25.408,0.303c16.612,0.702,33.028-9.097,43.024-22.005
			c3.842-4.962,7.69-11.699,6.813-18.299c-0.727-5.469-5.65-9.451-11.084-9.681c-32.62-1.378-65.485,0.144-98.102,1.045
			c-43.473,1.201-86.935,2.782-130.396,4.323c-27.043,0.959-54.085,1.96-81.136,2.695c-7.999,0.217-17.069,5.322-23.379,9.74
			c-6.879,4.816-13.286,11.082-17.149,18.638c-2.503,4.897-4.378,11.611-0.874,16.617
			C149.083,707.408,155.583,707.083,161.256,706.929L161.256,706.929z"/>
	</g>
</g>
</svg>
