<?xml version="1.0" encoding="utf-8"?>
<!-- Generator: Adobe Illustrator 15.0.1, SVG Export Plug-In . SVG Version: 6.00 Build 0)  -->
<!DOCTYPE svg PUBLIC "-//W3C//DTD SVG 1.1//EN" "http://www.w3.org/Graphics/SVG/1.1/DTD/svg11.dtd">
<svg version="1.1" id="Layer_1" xmlns="http://www.w3.org/2000/svg" xmlns:xlink="http://www.w3.org/1999/xlink" x="0px" y="0px"
	 width="600px" height="750px" viewBox="0 0 600 750" enable-background="new 0 0 600 750" xml:space="preserve">
<g>
	<g>
		<path d="M150.539,136.312c11.757,131.405,16.454,263.3,20.043,395.141c0.733,26.923,1.957,53.901,1.957,80.834
			c0,27.342,0,54.684,0,82.025c0,5.774,6.276,9.079,11.084,9.681c7.516,0.941,15.413-1.691,22.014-5.012
			c13.229-6.655,27.824-19.307,27.824-35.292c0-32.594,0.584-65.252-0.252-97.835c-0.843-32.863-1.696-65.727-2.645-98.588
			c-1.904-65.959-4.231-131.909-7.681-197.807c-2.861-54.651-6.546-109.261-11.423-163.77c-1.415-15.818-25.098-8.693-33.098-4.669
			C166.164,107.157,149.146,120.749,150.539,136.312L150.539,136.312z"/>
	</g>
</g>
<g>
	<g>
		<path d="M103.623,159.993c30.938,0.897,62.056-1.288,92.925-3.083c40.24-2.34,80.455-5.087,120.697-7.403
			c29.506-1.698,59.038-3.25,88.59-3.844c2.742-0.055,14.483-0.189,3.766-0.087c2.96-0.028,5.919-0.036,8.879-0.028
			c5.31,0.012,10.62,0.099,15.927,0.285c7.744,0.273,15.596,0.666,23.217,2.16c7.137,1.399,15.833-1.903,22.014-5.012
			c8.043-4.046,15.481-9.854,21.011-16.994c7.47-9.646,11.354-24.916-4.271-27.979c-10.104-1.981-20.598-2.171-30.859-2.362
			c-17.487-0.325-35.001,0.077-52.479,0.651c-39.509,1.297-78.976,3.797-118.424,6.267c-30.684,1.921-61.362,3.938-92.062,5.58
			c-12.661,0.677-25.328,1.282-38,1.685c-2.698,0.085-5.396,0.157-8.094,0.218c-2.763,0.062-12.732,0.167-1.51,0.063
			c-4.19,0.039-8.381,0.019-12.57-0.103c-16.69-0.484-32.925,8.963-43.024,22.006c-3.842,4.961-7.691,11.699-6.814,18.298
			C93.258,155.725,98.196,159.835,103.623,159.993L103.623,159.993z"/>
	</g>
</g>
<g>
	<g>
		<path d="M161.623,443.992c32.947,2.05,66.029,0.598,98.939-1.441c15.599-0.967,31.189-2.065,46.792-2.959
			c7.823-0.447,15.649-0.822,23.479-1.121c3.916-0.148,7.833-0.26,11.751-0.355c1.959-0.047,3.918-0.079,5.877-0.111
			c2.863-0.037,2.611-0.036-0.757,0.001c1.307-0.008,2.612-0.013,3.919-0.013c16.854-0.026,32.686-8.654,43.024-22.005
			c3.842-4.962,7.69-11.699,6.813-18.299c-0.702-5.283-5.673-9.689-11.084-9.681c-33.557,0.053-66.968,2.304-100.439,4.441
			c-15.476,0.988-30.96,1.851-46.462,2.298c-3.846,0.111-7.693,0.179-11.54,0.228c6.692-0.086,0.131-0.023-1.04-0.023
			c-1.915,0.001-3.83-0.017-5.745-0.035c-8.265-0.08-16.525-0.396-24.774-0.909c-16.49-1.026-33.186,9.3-43.024,22.005
			c-3.842,4.962-7.691,11.699-6.814,18.299C151.277,439.865,156.182,443.654,161.623,443.992L161.623,443.992z"/>
	</g>
</g>
</svg>
