<?xml version="1.0" encoding="utf-8"?>
<!-- Generator: Adobe Illustrator 15.0.1, SVG Export Plug-In . SVG Version: 6.00 Build 0)  -->
<!DOCTYPE svg PUBLIC "-//W3C//DTD SVG 1.1//EN" "http://www.w3.org/Graphics/SVG/1.1/DTD/svg11.dtd">
<svg version="1.1" id="Layer_1" xmlns="http://www.w3.org/2000/svg" xmlns:xlink="http://www.w3.org/1999/xlink" x="0px" y="0px"
	 width="600px" height="750px" viewBox="0 0 600 750" enable-background="new 0 0 600 750" xml:space="preserve">
<g>
	<g>
		<path d="M391.807,149.613c-41.681-13.25-84.293-21.756-128.201-18.867c-36.914,2.43-72.315,15.143-103.126,35.399
			C107.289,201.114,76.207,259.14,60.387,319.31c-12.706,48.331-16.151,98.686-17.379,148.465
			c-0.78,31.603-1.391,63.199,3.161,94.585c3.303,22.769,9.533,45.052,19.064,66.017c9.537,20.978,23.482,38.278,40.99,53.113
			c19.094,16.179,42.57,25.274,66.5,31.602c26.166,6.918,53.463,8.216,80.391,6.916c58.212-2.809,119.087-23.498,162.4-63.332
			c14.755-13.569,27.586-30.521,35.321-49.091c7.368-17.688,10.483-35.375,10.99-54.483c0.881-33.17-8.534-66.066-18.364-97.413
			c-1.809-5.769-4.775-8.891-11.084-9.681c-7.516-0.941-15.413,1.691-22.014,5.012c-8.043,4.047-15.481,9.854-21.011,16.993
			c-3.196,4.128-8.638,12.481-6.813,18.299c10.473,33.399,20.248,68.394,18.088,103.742c0.116-1.884,0.232-3.767,0.349-5.65
			c-0.728,10.385-2.564,20.591-5.861,30.476c-0.585,1.753-2.401,6.228,0.616-1.551c-0.45,1.162-0.944,2.308-1.438,3.451
			c-0.995,2.308-2.119,4.557-3.285,6.78c-1.214,2.316-6.422,10.562-0.417,1.257c-1.659,2.572-3.485,5.032-5.37,7.441
			c-0.827,1.059-1.695,2.083-2.562,3.108c-3.704,4.378,6.065-6.484,2.107-2.261c-1.932,2.061-3.978,4.009-6.055,5.919
			c-1.071,0.985-2.179,1.931-3.284,2.877c-4.745,4.058,7.576-6.009,2.586-2.131c-2.874,2.234-5.876,4.3-8.915,6.302
			c-1.279,0.844-2.584,1.648-3.89,2.451c1.886-1.131,3.771-2.261,5.656-3.392c-0.789,0.464-1.582,0.921-2.379,1.371
			c-2.412,1.378-4.872,2.67-7.346,3.935c-2.515,1.286-5.072,2.487-7.641,3.662c-1.3,0.595-2.611,1.161-3.924,1.728
			c-5.071,2.191,8.828-3.515,1.237-0.537c-5.477,2.148-11.058,4.021-16.681,5.74c-2.86,0.875-5.744,1.67-8.635,2.439
			c-1.455,0.388-2.918,0.749-4.38,1.11c-7.607,1.881,5.134-1.092,0.081,0c-12.504,2.704-25.219,4.39-37.975,5.295
			c-3.08,0.219-6.165,0.358-9.25,0.473c-1.542,0.057-3.084,0.087-4.627,0.117c7.647-0.15,2.065-0.025,0.469-0.03
			c-6.646-0.022-13.289-0.352-19.912-0.885c-12.475-1.003-24.86-3.054-37.001-6.077c-2.371-0.591-4.725-1.249-7.073-1.926
			c1.81,0.535,3.62,1.07,5.429,1.605c-20.551-6.087-40-15.367-56.422-29.282c1.284,1.106,2.567,2.214,3.851,3.32
			c-18.903-16.35-32.242-37.546-41.068-60.79c0.601,1.585,1.203,3.17,1.804,4.755c-14.745-39.632-16.76-82.28-15.906-124.131
			c0.396-19.443,0.806-38.879,1.993-58.293c-0.116,1.884-0.232,3.767-0.348,5.651c1.552-25.036,4.244-50.016,8.834-74.687
			c2.446-13.143,5.478-26.179,9.185-39.024c1.86-6.445,3.923-12.831,6.169-19.151c0.802-2.256,3.237-8.704-0.391,0.937
			c0.564-1.5,1.147-2.994,1.737-4.484c1.273-3.221,2.62-6.412,4.014-9.583c2.664-6.055,5.583-11.996,8.73-17.814
			c1.499-2.773,3.071-5.506,4.688-8.211c0.806-1.348,1.635-2.683,2.471-4.012c2.225-3.537-4.72,7.299-2.441,3.798
			c0.569-0.875,1.151-1.742,1.734-2.607c3.632-5.391,7.565-10.575,11.749-15.549c1.001-1.191,2.027-2.361,3.061-3.524
			c2.964-3.335-6.706,7.302-3.68,4.023c0.527-0.572,1.063-1.136,1.599-1.701c2.324-2.448,4.741-4.807,7.214-7.103
			c2.293-2.128,4.665-4.169,7.082-6.153c-12.634,10.37-1.872,1.633,1.552-0.779c2.606-1.836,5.285-3.566,8.003-5.229
			c-13.917,8.515-1.85,1.198,1.901-0.718c2.942-1.503,5.946-2.883,8.981-4.188c4.212-1.812-9.082,3.703-4.82,1.98
			c0.783-0.316,1.57-0.62,2.358-0.923c1.857-0.715,3.734-1.379,5.618-2.023c3.302-1.128,6.649-2.12,10.016-3.032
			c1.723-0.467,3.457-0.892,5.194-1.303c-11.825,2.8-3.183,0.726-0.342,0.177c8.82-1.702,17.771-2.665,26.737-3.127
			c2.377-0.123,4.758-0.188,7.138-0.233c4.408-0.083-6.905,0.035-2.472,0.033c1.408,0,2.815,0.021,4.223,0.045
			c5.471,0.095,10.937,0.413,16.39,0.86c23.958,1.964,47.585,7.166,70.608,13.954c-1.81-0.535-3.619-1.07-5.43-1.605
			c3.217,0.959,6.424,1.947,9.622,2.964c15.394,4.893,31.514-3.555,42.68-14.076c5.378-5.067,10.554-11.587,12.239-18.972
			C398.146,158.812,397.286,151.355,391.807,149.613L391.807,149.613z"/>
	</g>
</g>
<g>
	<g>
		<path d="M249.719,512.242c23.286-5.407,46.232-12.062,69.125-18.922c10.678-3.199,21.352-6.412,32.076-9.452
			c4.942-1.401,9.901-2.747,14.872-4.044c2.457-0.642,4.921-1.257,7.387-1.863c1.472-0.362,2.947-0.711,4.423-1.06
			c5.669-1.339-7.247,1.605-1.568,0.348c10.284-2.277,20.67-4.084,31.125-5.367c5.024-0.617,10.069-1.054,15.12-1.383
			c2.558-0.167,5.118-0.271,7.679-0.359c1.577-0.055,7.19-0.121-0.42-0.052c1.567-0.015,3.136,0.002,4.704,0.018
			c24.257,0.249,48.274,4.541,71.516,11.33c-1.81-0.535-3.62-1.07-5.43-1.605c0.622,0.186,1.244,0.371,1.866,0.557
			c6.956,2.077,12.451,2.121,19.525-0.145c8.601-2.753,16.602-7.757,23.154-13.931c5.378-5.066,10.554-11.587,12.239-18.973
			c1.015-4.443,0.194-12.083-5.306-13.726c-25.288-7.552-50.774-12.849-77.234-13.466c-23.641-0.552-46.98,1.765-70.104,6.609
			c-48.794,10.222-95.648,27.729-144.187,39.001c-8.392,1.948-17.015,8.146-23.154,13.931c-5.378,5.066-10.553,11.587-12.239,18.973
			c-1.224,5.359,0.101,11.008,5.306,13.726C236.448,515.653,243.359,513.72,249.719,512.242L249.719,512.242z"/>
	</g>
</g>
</svg>
