<?xml version="1.0" encoding="utf-8"?>
<!-- Generator: Adobe Illustrator 15.0.1, SVG Export Plug-In . SVG Version: 6.00 Build 0)  -->
<!DOCTYPE svg PUBLIC "-//W3C//DTD SVG 1.1//EN" "http://www.w3.org/Graphics/SVG/1.1/DTD/svg11.dtd">
<svg version="1.1" id="Layer_1" xmlns="http://www.w3.org/2000/svg" xmlns:xlink="http://www.w3.org/1999/xlink" x="0px" y="0px"
	 width="600px" height="750px" viewBox="0 0 600 750" enable-background="new 0 0 600 750" xml:space="preserve">
<g>
	<g>
		<path d="M171.539,140.312c-2.787,126.603-6.315,253.32-0.866,379.903c2.534,58.867,7.112,117.677,14.866,176.097
			c2.077,15.651,24.599,8.944,33.098,4.669c11.71-5.892,29.858-19.971,27.824-35.292C229.815,540.28,227.72,413.422,229.057,287.09
			c0.626-59.143,2.103-118.271,3.404-177.401c0.127-5.759-6.382-9.092-11.084-9.681c-7.516-0.941-15.413,1.692-22.014,5.012
			C185.88,111.803,171.893,124.241,171.539,140.312L171.539,140.312z"/>
	</g>
</g>
<g>
	<g>
		<path d="M453.539,134.312c-2.254,65.762,0.739,131.516,3.745,197.202c1.492,32.596,2.95,65.195,3.725,97.817
			c0.75,31.576,0.471,63.099,2.36,94.645c2.849,47.555,7.738,95.167,4.884,142.848c0.116-1.884,0.231-3.768,0.348-5.651
			c-0.591,9.195-1.472,18.358-2.713,27.488c-0.752,5.524-0.244,10.829,5.306,13.727c5.902,3.082,13.549,1.77,19.525-0.145
			c8.601-2.753,16.602-7.757,23.154-13.931c4.935-4.648,11.271-11.855,12.239-18.972c8.639-63.518,0.542-127.32-2.646-190.897
			c-1.592-31.757-1.019-63.588-1.952-95.369c-0.959-32.636-2.542-65.25-4.024-97.865c-2.748-60.462-5.104-120.996-3.029-181.52
			c0.197-5.75-6.441-9.1-11.084-9.681c-7.516-0.941-15.413,1.692-22.014,5.012C467.738,105.874,454.092,118.197,453.539,134.312
			L453.539,134.312z"/>
	</g>
</g>
<g>
	<g>
		<path d="M481.377,388.007c-120.162-16.482-245.456-15.876-362.735,17.717c-4.473,1.281-8.923,2.639-13.361,4.033
			c-14.538,4.564-31.803,17.181-35.394,32.903c-3.632,15.906,14.117,16.946,24.832,13.581c13.935-4.375,28.022-8.206,42.239-11.552
			c1.797-0.423,8.07-1.812-0.582,0.119c1.725-0.385,3.453-0.756,5.181-1.126c3.463-0.743,6.935-1.442,10.41-2.128
			c7.558-1.49,15.148-2.817,22.752-4.049c29.513-4.777,59.333-7.562,89.19-8.925c7.191-0.328,14.388-0.546,21.585-0.7
			c1.799-0.038,3.597-0.066,5.396-0.094c1.32-0.021,7.573-0.068,0.559-0.014c4.192-0.032,8.384-0.025,12.575-0.002
			c14.904,0.081,29.805,0.548,44.689,1.296c29.139,1.464,58.208,4.22,87.134,8.011c2.26,0.296,4.518,0.604,6.775,0.913
			c15.976,2.191,33.771-10.056,43.024-22.005C492.637,406.961,497.437,390.21,481.377,388.007L481.377,388.007z"/>
	</g>
</g>
</svg>
