<?xml version="1.0" encoding="utf-8"?>
<!-- Generator: Adobe Illustrator 15.0.1, SVG Export Plug-In . SVG Version: 6.00 Build 0)  -->
<!DOCTYPE svg PUBLIC "-//W3C//DTD SVG 1.1//EN" "http://www.w3.org/Graphics/SVG/1.1/DTD/svg11.dtd">
<svg version="1.1" id="Layer_1" xmlns="http://www.w3.org/2000/svg" xmlns:xlink="http://www.w3.org/1999/xlink" x="0px" y="0px"
	 width="600px" height="750px" viewBox="0 0 600 750" enable-background="new 0 0 600 750" xml:space="preserve">
<g>
	<g>
		<path d="M278.539,140.312c-7.188,130.542-17.228,261.011-18.212,391.807c-0.397,52.759,0.769,105.541,4.212,158.193
			c1.04,15.9,25.377,8.553,33.098,4.669c12.475-6.275,28.85-19.604,27.824-35.292c-8.533-130.513-2.87-261.395,4.671-391.807
			c3.05-52.735,6.426-105.45,9.329-158.193c0.315-5.734-6.542-9.112-11.084-9.681c-7.516-0.941-15.413,1.692-22.014,5.012
			c-8.043,4.046-15.481,9.854-21.01,16.994C280.818,127.869,278.938,133.074,278.539,140.312L278.539,140.312z"/>
	</g>
</g>
</svg>
