<?xml version="1.0" encoding="utf-8"?>
<!-- Generator: Adobe Illustrator 15.0.1, SVG Export Plug-In . SVG Version: 6.00 Build 0)  -->
<!DOCTYPE svg PUBLIC "-//W3C//DTD SVG 1.1//EN" "http://www.w3.org/Graphics/SVG/1.1/DTD/svg11.dtd">
<svg version="1.1" id="Layer_1" xmlns="http://www.w3.org/2000/svg" xmlns:xlink="http://www.w3.org/1999/xlink" x="0px" y="0px"
	 width="600px" height="750px" viewBox="0 0 600 750" enable-background="new 0 0 600 750" xml:space="preserve">
<g>
	<g>
		<path d="M142.623,144.993c48.26,8.333,97.231,12.017,146.177,12.509c50.94,0.512,101.912-2.166,152.456-8.573
			c16.144-2.046,33.113-13.873,40.528-28.378c2.503-4.897,4.378-11.611,0.873-16.617c-3.498-4.997-10.462-5.554-15.913-4.862
			c-23.882,3.027-47.856,5.226-71.886,6.661c-12.277,0.733-24.567,1.229-36.862,1.548c-3.086,0.081-6.173,0.14-9.26,0.194
			c-1.236,0.021-2.472,0.039-3.707,0.056c-6.398,0.09,5.616-0.037-0.783,0.009c-6.183,0.045-12.364,0.021-18.546-0.042
			c-48.312-0.485-96.694-4.266-144.323-12.49c-7.266-1.254-15.694,1.833-22.014,5.012c-8.043,4.046-15.481,9.854-21.01,16.994
			C131.072,126.415,126.822,142.264,142.623,144.993L142.623,144.993z"/>
	</g>
</g>
<g>
	<g>
		<path d="M427.539,139.312c0,66.243,0.005,132.485,0.517,198.727c0.256,33.123,0.65,66.244,1.228,99.363
			c0.46,26.357,2.488,52.641,3.138,78.991c0.312,12.693,0.218,25.397-0.521,38.075c0.116-1.884,0.232-3.768,0.349-5.651
			c-0.816,12.951-2.359,25.825-5.119,38.513c-1.285,5.909-2.925,11.735-4.827,17.474c-0.516,1.557-2.433,6.691,0.31-0.591
			c-0.523,1.391-1.091,2.766-1.659,4.14c-1.319,3.192-2.812,6.309-4.381,9.386c-1.342,2.631-2.825,5.188-4.356,7.712
			c-2.504,4.128,4.477-6.816,1.79-2.821c-0.598,0.89-1.225,1.759-1.851,2.628c-1.245,1.729-2.572,3.397-3.924,5.044
			c-0.674,0.819-1.372,1.618-2.071,2.416c-3.308,3.778,6.977-7.408,2.167-2.452c-1.473,1.518-3.014,2.968-4.574,4.394
			c-2.526,2.309-9.781,7.953,1.578-1.096c-3.613,2.878-7.44,5.48-11.365,7.912c12.31-7.625,4.48-2.677,1.458-1.044
			c-1.911,1.033-3.86,1.994-5.819,2.933c-1.976,0.947-3.984,1.824-6.002,2.679c12.346-5.229,2.687-1.162-0.347-0.083
			c-4.236,1.509-8.55,2.79-12.893,3.948c-2.581,0.688-11.47,2.622-0.296,0.17c-2.623,0.576-5.263,1.07-7.907,1.534
			c-9.623,1.688-19.377,2.576-29.136,2.925c-1.187,0.042-2.373,0.066-3.561,0.09c-4.76,0.097,6.641-0.027,1.875-0.027
			c-2.386,0-4.771-0.055-7.155-0.126c-5.182-0.155-10.356-0.515-15.518-0.997c-15.766-1.472-31.382-4.529-46.577-8.966
			c1.81,0.535,3.619,1.07,5.429,1.605c-24.348-7.237-48.044-18.169-67.505-34.722c1.284,1.107,2.567,2.214,3.851,3.321
			c-13.47-11.641-24.158-25.923-30.676-42.547c0.601,1.585,1.203,3.169,1.804,4.754c-6.694-17.861-8.222-36.809-7.098-55.733
			c-0.116,1.884-0.232,3.767-0.348,5.65c1.006-14.992,3.525-29.798,6.567-44.499c3.275-15.83-13.846-17.099-24.832-13.581
			c-14.287,4.573-32.135,17.157-35.394,32.903c-5.562,26.88-9.712,55.033-5.859,82.437c3.617,25.726,15.899,49.708,34.825,67.45
			c29.27,27.439,67.909,42.12,106.926,49.16c41.687,7.521,87.282,5.345,127.082-9.799c24.258-9.229,46.998-22.369,65.718-40.527
			c20.206-19.6,33.698-43.769,41.757-70.629c7.841-26.136,9.183-54.17,9.174-81.288c-0.008-25.488-2.046-50.912-2.999-76.37
			c-1.229-32.883-1.097-65.879-1.398-98.782c-0.305-33.12-0.462-66.242-0.551-99.363c-0.103-38.42-0.101-76.84-0.101-115.261
			c0-5.774-6.275-9.079-11.084-9.681c-7.516-0.941-15.413,1.692-22.014,5.012C442.135,110.675,427.539,123.327,427.539,139.312
			L427.539,139.312z"/>
	</g>
</g>
</svg>
