<?xml version="1.0" encoding="utf-8"?>
<!-- Generator: Adobe Illustrator 15.0.1, SVG Export Plug-In . SVG Version: 6.00 Build 0)  -->
<!DOCTYPE svg PUBLIC "-//W3C//DTD SVG 1.1//EN" "http://www.w3.org/Graphics/SVG/1.1/DTD/svg11.dtd">
<svg version="1.1" id="Layer_1" xmlns="http://www.w3.org/2000/svg" xmlns:xlink="http://www.w3.org/1999/xlink" x="0px" y="0px"
	 width="600px" height="750px" viewBox="0 0 600 750" enable-background="new 0 0 600 750" xml:space="preserve">
<g>
	<g>
		<path d="M101.539,141.312c-1.131,66.938,1.446,134.011,3.517,200.906c2.461,79.492,5.484,158.966,8.575,238.435
			c1.344,34.55,2.856,69.099,3.909,103.659c0.176,5.791,6.127,9.061,11.084,9.681c7.516,0.941,15.413-1.691,22.014-5.012
			c12.877-6.479,28.307-19.438,27.824-35.292c-1.685-55.348-4.208-110.675-6.309-166.007c-3.09-81.397-6.042-162.805-8.111-244.234
			c-1.124-44.223-2.328-88.519-1.581-132.759c0.098-5.763-6.357-9.089-11.084-9.681c-7.516-0.941-15.413,1.692-22.014,5.012
			C115.939,112.773,101.81,125.26,101.539,141.312L101.539,141.312z"/>
	</g>
</g>
<g>
	<g>
		<path d="M377.539,129.312c0.25,4.687,0.217,9.369-0.046,14.054c0.116-1.883,0.232-3.767,0.348-5.651
			c-1.116,17.619-5.413,34.852-11.194,51.484c-0.378,1.087-0.77,2.168-1.161,3.25c-1.595,4.408,2.378-6.26,0.702-1.859
			c-0.838,2.2-1.715,4.385-2.604,6.564c-1.973,4.832-4.094,9.602-6.296,14.333c-4.396,9.45-9.262,18.679-14.417,27.736
			c-2.544,4.471-5.191,8.883-7.895,13.259c-1.35,2.184-6.761,10.576-0.733,1.247c-1.656,2.562-3.348,5.101-5.054,7.629
			c-6.142,9.104-12.64,17.964-19.394,26.621c-6.751,8.652-13.831,17.046-21.163,25.21c-3.761,4.188,6.057-6.6,2.253-2.46
			c-0.882,0.959-1.772,1.912-2.662,2.863c-1.772,1.896-3.569,3.77-5.375,5.634c-3.87,3.997-7.832,7.904-11.854,11.747
			c-4.548,4.345-9.215,8.563-13.966,12.684c-2.174,1.886-4.379,3.735-6.597,5.568c-4.31,3.562,8.554-6.87,2.502-2.047
			c-1.258,1.002-2.528,1.989-3.8,2.973c-4.663,3.605-9.443,7.056-14.31,10.381c-2.205,1.506-4.441,2.966-6.69,4.405
			c-1.265,0.81-2.542,1.599-3.821,2.386c-4.619,2.839,9.585-5.656,3.227-1.95c-4.645,2.708-9.405,5.215-14.246,7.552
			c-2.175,1.05-4.378,2.039-6.593,2.999c-4.56,1.977,9.491-3.818,3.237-1.335c-1.234,0.49-2.479,0.952-3.725,1.41
			c-4.509,1.656-9.114,3.043-13.775,4.198c-4.342,1.075,8.908-1.904,2.95-0.684c-1.188,0.244-2.383,0.452-3.579,0.654
			c-2.341,0.397-4.7,0.68-7.063,0.904c-16.023,1.52-33.289,14.217-40.528,28.378c-2.503,4.897-4.378,11.611-0.874,16.617
			c3.576,5.106,10.387,5.387,15.914,4.862c41.834-3.967,81.586-27.173,113.998-52.622c37.836-29.708,71.083-65.143,98.758-104.487
			c19.3-27.436,36.562-56.684,48.896-87.944c10.968-27.798,19.165-57.002,17.552-87.187c-0.31-5.802-6.016-9.046-11.084-9.681
			c-7.516-0.941-15.413,1.692-22.014,5.012C392.751,100.364,376.697,113.565,377.539,129.312L377.539,129.312z"/>
	</g>
</g>
<g>
	<g>
		<path d="M212.184,416.395c12.657,29.568,31.5,56.64,50.16,82.662c24.25,33.816,50.439,66.241,77.405,97.919
			c23.033,27.058,46.794,53.602,71.971,78.692c8.422,8.394,17.018,16.681,26.197,24.25c5.457,4.5,12.33,10.168,19.574,11.253
			c0.057,0.006,0.112,0.012,0.169,0.019c15.513,1.726,29.447-15.16,35.772-27.204c4.188-7.976,11.685-31.42-4.091-33.175
			c-0.674-0.074-1.312-0.273-1.942-0.515c1.574,0.629,3.148,1.258,4.722,1.886c-6.558-2.646-12.28-8.085-17.535-12.646
			c-9.758-8.468-18.959-17.584-28.014-26.791c-25.672-26.103-49.961-53.594-73.511-81.614c-1.568-1.866-3.131-3.736-4.691-5.609
			c1.085,1.303,2.169,2.605,3.254,3.908c-23.339-28.049-45.915-56.777-66.94-86.608c-16.726-23.731-33.397-48.424-44.866-75.216
			c-6.264-14.633-26.71,0.105-32.814,6.361C217.318,383.892,206.009,401.97,212.184,416.395L212.184,416.395z"/>
	</g>
</g>
</svg>
