<?xml version="1.0" encoding="utf-8"?>
<!-- Generator: Adobe Illustrator 15.0.1, SVG Export Plug-In . SVG Version: 6.00 Build 0)  -->
<!DOCTYPE svg PUBLIC "-//W3C//DTD SVG 1.1//EN" "http://www.w3.org/Graphics/SVG/1.1/DTD/svg11.dtd">
<svg version="1.1" id="Layer_1" xmlns="http://www.w3.org/2000/svg" xmlns:xlink="http://www.w3.org/1999/xlink" x="0px" y="0px"
	 width="600px" height="750px" viewBox="0 0 600 750" enable-background="new 0 0 600 750" xml:space="preserve">
<g>
	<g>
		<path d="M108.539,141.312c0.021,60.333,3.047,120.748,5.665,181.009c3.563,82.014,7.79,164.022,13.647,245.906
			c2.747,38.394,5.468,76.932,10.688,115.085c2.139,15.634,24.552,8.968,33.098,4.669c11.665-5.868,29.917-19.994,27.824-35.292
			c-9.023-65.967-12.223-132.936-16.13-199.35c-4.742-80.598-8.531-161.262-11.389-241.948c-1.188-33.544-2.469-67.132-2.48-100.702
			c-0.002-5.774-6.274-9.079-11.084-9.681c-7.516-0.941-15.413,1.692-22.014,5.012C123.138,112.673,108.533,125.328,108.539,141.312
			L108.539,141.312z"/>
	</g>
</g>
<g>
	<g>
		<path d="M139.623,698.992c93.446-0.016,187.271-1.939,280.438-9.478c9.407-0.762,18.808-1.619,28.195-2.586
			c16.057-1.652,33.244-14.13,40.528-28.378c2.503-4.897,4.378-11.611,0.873-16.617c-3.556-5.078-10.405-5.43-15.913-4.862
			c-49.033,5.048-98.351,7.37-147.597,9.129c-24.683,0.882-49.374,1.531-74.067,2.013c-10.966,0.215-21.933,0.388-32.9,0.528
			c-2.431,0.031-4.862,0.06-7.293,0.087c-2.216,0.024-11.165,0.109-1.536,0.019c-4.705,0.045-9.41,0.079-14.116,0.106
			c-5.952,0.035-11.905,0.054-17.858,0.055c-16.848,0.003-32.697,8.669-43.024,22.005c-3.842,4.962-7.691,11.699-6.814,18.299
			C129.242,694.601,134.211,698.993,139.623,698.992L139.623,698.992z"/>
	</g>
</g>
</svg>
