<?xml version="1.0" encoding="utf-8"?>
<!-- Generator: Adobe Illustrator 15.0.1, SVG Export Plug-In . SVG Version: 6.00 Build 0)  -->
<!DOCTYPE svg PUBLIC "-//W3C//DTD SVG 1.1//EN" "http://www.w3.org/Graphics/SVG/1.1/DTD/svg11.dtd">
<svg version="1.1" id="Layer_1" xmlns="http://www.w3.org/2000/svg" xmlns:xlink="http://www.w3.org/1999/xlink" x="0px" y="0px"
	 width="696.875px" height="750px" viewBox="0 0 696.875 750" enable-background="new 0 0 696.875 750" xml:space="preserve">
<g>
	<g>
		<path d="M106.381,126.015c-9.67,21.319-14.674,44.148-19.229,67.03c-5.717,28.729-10.054,57.735-14.1,86.74
			c-9.947,71.312-17.593,142.949-24.69,214.593c-5.476,55.281-10.492,110.608-15.132,165.965
			c-0.697,8.321-1.373,16.644-2.065,24.965c-0.465,5.585-0.559,12.26,4.584,15.996c4.944,3.592,11.69,1.835,16.63-0.583
			c13.966-6.835,27.759-24.149,29.081-40.026c3.102-37.264,6.269-74.52,9.67-111.757c6.403-70.089,13.371-140.135,21.569-210.038
			c7.215-61.516,14.279-123.63,27.616-184.185c0.418-1.9,0.85-3.796,1.291-5.691c0.235-1.01,0.475-2.018,0.717-3.026
			c0.844-3.515-2.372,9.592-0.956,3.932c0.847-3.384,1.75-6.754,2.722-10.104c0.831-2.867,1.729-5.714,2.713-8.532
			c0.406-1.162,0.835-2.315,1.281-3.462c0.229-0.588,0.468-1.173,0.71-1.756c1.404-3.381-4.552,10.326-2.55,5.913
			c3.879-8.553,11.896-30.765-4.09-33.175C127.395,96.586,111.726,114.231,106.381,126.015L106.381,126.015z"/>
	</g>
</g>
<g>
	<g>
		<path d="M107.852,142.312c37.271,121.09,76.845,241.492,119.799,360.691c23.22,64.435,47.454,128.516,73.004,192.063
			c2.131,5.3,11.681,5.388,15.914,4.862c8.421-1.045,16.5-4.924,23.379-9.74c6.878-4.816,13.287-11.082,17.149-18.638
			c3.09-6.044,3.33-10.507,0.873-16.617c-12.693-31.57-25.048-63.275-37.117-95.09c0.601,1.585,1.202,3.17,1.803,4.755
			c-44.977-118.68-86.059-238.813-124.671-359.704c-9.906-31.016-19.633-62.088-29.211-93.207
			c-4.544-14.765-22.649-9.925-33.098-4.669c-8.043,4.046-15.481,9.854-21.01,16.994
			C111.45,128.166,106.053,136.469,107.852,142.312L107.852,142.312z"/>
	</g>
</g>
<g>
	<g>
		<path d="M465.312,114.102c-18.694,25.84-31.487,55.731-43.246,85.183c-13.536,33.9-24.904,68.663-35.665,103.527
			c-22.791,73.843-42.215,148.67-62.015,223.354c-5.597,21.111-11.191,42.228-17.198,63.228c-2.147,7.505-4.354,14.995-6.747,22.427
			c-0.908,2.819-1.852,5.629-2.854,8.417c-1.337,3.723-5.586,13.375,0.794-1.222c-3.75,8.579-11.985,30.752,4.09,33.175
			c14.634,2.205,30.606-15.384,35.772-27.204c8.66-19.813,14.358-40.56,20.106-61.372c8.655-31.345,16.817-62.824,25.152-94.255
			c20.166-76.037,40.568-152.175,65.822-226.712c4.233-12.494,8.642-24.93,13.279-37.28c2.216-5.903,4.499-11.78,6.845-17.633
			c1.063-2.653,2.146-5.298,3.242-7.938c1.361-3.283,6.312-14.694,0.559-1.451c4.092-9.418,8.454-18.724,13.248-27.806
			c2.132-4.038,4.374-8.018,6.733-11.927c2.978-4.933-5.598,8.926-3.17,5.065c0.575-0.914,1.164-1.819,1.757-2.722
			c1.124-1.713,2.295-3.396,3.496-5.056c6.179-8.541,17.748-30.348,5.562-39.201C488.713,87.86,471.49,105.561,465.312,114.102
			L465.312,114.102z"/>
	</g>
</g>
<g>
	<g>
		<path d="M457.852,136.312c10.915,65.462,22.887,130.757,35.553,195.901c15.132,77.824,31.104,155.6,50.644,232.453
			c7.434,29.238,15.303,58.479,25.315,86.955c3.918,11.144,8.058,22.31,13.243,32.938c2.775,5.688,5.921,11.814,10.648,16.156
			c0.132,0.119,0.265,0.236,0.4,0.352c5.014,4.331,9.072,5.712,15.913,4.862c8.422-1.045,16.5-4.924,23.379-9.74
			s13.287-11.082,17.149-18.638c1.896-3.711,5.175-12.901,0.873-16.617c-3.914-3.381-6.622-8.103-9.047-12.599
			c-3.961-7.344-7.12-15.123-10.087-22.911c0.602,1.585,1.202,3.17,1.804,4.754c-10.125-26.735-17.761-54.425-25.027-82.048
			c-9.563-36.353-18.032-72.992-26.105-109.701c-17.051-77.531-32.166-155.493-46.377-233.59
			c-6.006-33.01-11.838-66.055-17.356-99.15c-2.585-15.503-24.209-9.14-33.098-4.669c-8.043,4.046-15.481,9.854-21.011,16.994
			C460.949,122.812,456.774,129.854,457.852,136.312L457.852,136.312z"/>
	</g>
</g>
</svg>
