<?xml version="1.0" encoding="utf-8"?>
<!-- Generator: Adobe Illustrator 15.0.1, SVG Export Plug-In . SVG Version: 6.00 Build 0)  -->
<!DOCTYPE svg PUBLIC "-//W3C//DTD SVG 1.1//EN" "http://www.w3.org/Graphics/SVG/1.1/DTD/svg11.dtd">
<svg version="1.1" id="Layer_1" xmlns="http://www.w3.org/2000/svg" xmlns:xlink="http://www.w3.org/1999/xlink" x="0px" y="0px"
	 width="696.875px" height="750px" viewBox="0 0 696.875 750" enable-background="new 0 0 696.875 750" xml:space="preserve">
<g>
	<g>
		<path d="M96.852,142.312c1.392,128.026-0.097,256.174,7.542,384.043c3.316,55.504,8.453,110.924,16.458,165.957
			c2.269,15.598,24.453,9.018,33.098,4.669c8.043-4.047,15.481-9.854,21.01-16.993c3.795-4.901,7.767-11.751,6.814-18.299
			c-18.363-126.25-21.642-254.111-22.82-381.497c-0.52-56.167-0.569-112.337-1.18-168.503c-0.062-5.78-6.223-9.072-11.084-9.681
			c-7.516-0.941-15.413,1.692-22.014,5.012C111.572,113.611,96.678,126.372,96.852,142.312L96.852,142.312z"/>
	</g>
</g>
<g>
	<g>
		<path d="M100.655,149.066c17.999,16.513,33.747,35.525,49.089,54.469c21.474,26.515,41.885,53.889,61.988,81.45
			c47.692,65.386,93.433,132.181,139.31,198.844c39.67,57.643,78.889,115.729,120.813,171.771
			c11.651,15.574,23.434,31.298,36.8,45.465c10.458,11.084,29.164,2.214,39.292-4.878c6.879-4.816,13.287-11.082,17.149-18.638
			c2.142-4.188,4.884-12.366,0.873-16.617c-14.662-15.54-27.475-32.901-40.198-50.024c-19.184-25.815-37.691-52.132-56.097-78.504
			c-45.794-65.618-90.7-131.851-136.521-197.45c-41.789-59.826-83.791-119.853-130.018-176.374
			c-14.132-17.279-28.689-34.531-45.165-49.648c-4.836-4.437-9.239-5.691-15.914-4.862c-8.421,1.045-16.5,4.923-23.379,9.74
			c-6.879,4.817-13.286,11.082-17.149,18.638C99.561,136.298,96.434,145.193,100.655,149.066L100.655,149.066z"/>
	</g>
</g>
<g>
	<g>
		<path d="M519.985,143.938c8.603,131.893,17.286,263.935,16.207,396.181c-0.103,12.493-0.307,24.985-0.594,37.476
			c-0.061,2.63-0.128,5.259-0.197,7.888c0.178-6.778-0.118,3.694-0.165,5.2c-0.206,6.573-0.447,13.146-0.71,19.717
			c-0.999,24.993-2.456,49.967-4.361,74.907c-0.428,5.601-0.582,12.242,4.584,15.996c4.943,3.592,11.689,1.835,16.63-0.583
			c7.622-3.73,13.998-10.027,18.935-16.821c4.665-6.421,9.524-15.062,10.146-23.205c10.163-133.006,6.942-266.561-0.264-399.625
			c-2.8-51.692-6.188-103.349-9.557-155.006c-0.356-5.454-3.858-10.403-9.486-11.251c-6.583-0.992-13.387,2.739-18.415,6.494
			C530.074,110.762,518.917,127.559,519.985,143.938L519.985,143.938z"/>
	</g>
</g>
</svg>
