<?xml version="1.0" encoding="utf-8"?>
<!-- Generator: Adobe Illustrator 15.0.1, SVG Export Plug-In . SVG Version: 6.00 Build 0)  -->
<!DOCTYPE svg PUBLIC "-//W3C//DTD SVG 1.1//EN" "http://www.w3.org/Graphics/SVG/1.1/DTD/svg11.dtd">
<svg version="1.1" id="Layer_1" xmlns="http://www.w3.org/2000/svg" xmlns:xlink="http://www.w3.org/1999/xlink" x="0px" y="0px"
	 width="696.875px" height="750px" viewBox="0 0 696.875 750" enable-background="new 0 0 696.875 750" xml:space="preserve">
<g>
	<g>
		<path d="M359.668,105.823c-52.964,7.486-104.784,23.082-150.758,50.876c-36.719,22.2-68.171,52.917-91.575,88.843
			c-22.295,34.223-37.14,73.38-46.727,112.939C62.45,392.15,57.841,425.833,60.49,460.466
			c5.019,65.611,33.655,132.479,82.646,177.186c24.173,22.058,52.117,37.47,82.882,48.146
			c36.806,12.773,76.335,15.026,114.938,12.88c12.909-0.719,35.012-9.105,38.217-23.647c3.484-15.812-20.137-16.229-29.506-15.708
			c-2.615,0.146-10.456,0.419,1.281-0.019c-1.91,0.071-3.821,0.111-5.731,0.146c-3.743,0.07-7.487,0.045-11.23-0.027
			c-7.192-0.138-14.376-0.599-21.534-1.302c-1.733-0.17-3.463-0.37-5.193-0.575c10.383,1.231,3.524,0.446,1.205,0.111
			c-3.336-0.482-6.658-1.059-9.972-1.679c-6.805-1.273-13.542-2.896-20.204-4.775c-3.039-0.856-6.052-1.803-9.05-2.789
			c-1.903-0.626-7.727-2.746,0.746,0.297c-1.449-0.521-2.889-1.068-4.327-1.62c-5.986-2.298-11.846-4.914-17.595-7.751
			c-10.725-5.292-20.934-11.603-30.569-18.68c1.518,1.122,3.036,2.244,4.553,3.365c-25.728-19.1-46.558-43.866-62.211-71.75
			c0.828,1.479,1.655,2.959,2.483,4.438c-22.083-39.704-34.262-85.258-35.008-130.688c0.023,1.695,0.046,3.391,0.068,5.085
			c-0.291-22.337,3.188-44.25,7.702-66.08c5.542-26.8,13.419-53.161,24.284-78.297c-0.753,1.73-1.507,3.461-2.26,5.191
			c7.725-17.703,16.949-34.698,27.901-50.616c2.599-3.778,5.319-7.471,8.11-11.108c1.396-1.819,2.828-3.61,4.271-5.391
			c0.722-0.891,1.457-1.772,2.19-2.654c2.772-3.327-4.781,5.499-0.579,0.681c6.33-7.258,13.123-14.105,20.248-20.582
			c3.466-3.151,7.043-6.178,10.683-9.126c2.051-1.662,9.502-7.312,0.44-0.455c2.219-1.68,4.479-3.306,6.752-4.911
			c8.321-5.873,17.035-11.178,25.985-16.035c0.367-0.197,0.734-0.394,1.101-0.591c2.889-1.531,1.471-0.791-4.255,2.219
			c1.121-0.582,2.249-1.147,3.377-1.713c2.278-1.143,4.58-2.238,6.888-3.318c5.108-2.39,10.302-4.593,15.54-6.683
			c2.472-0.987,4.963-1.924,7.46-2.846c1.262-0.466,2.531-0.916,3.799-1.366c-2.084,0.72-4.168,1.439-6.253,2.158
			c0.858-0.294,1.718-0.584,2.58-0.872c5.707-1.914,11.477-3.633,17.277-5.237c7.437-2.057,14.951-3.822,22.501-5.406
			c2.835-0.595,10.861-2.096-1.838,0.319c1.98-0.376,3.966-0.727,5.953-1.074c4.56-0.797,9.136-1.492,13.719-2.14
			c13.045-1.844,34.844-8.344,38.217-23.647C392.538,106.263,369.142,104.484,359.668,105.823L359.668,105.823z"/>
	</g>
</g>
<g>
	<g>
		<path d="M350.812,140.567c9.907,1.785,19.695,4.087,29.354,6.924c2.26,0.664,4.505,1.375,6.745,2.1
			c1.834,0.593,9.924,3.482,1.71,0.532c4.804,1.725,9.54,3.63,14.232,5.635c17.976,7.683,34.982,17.553,50.748,29.093
			c-1.518-1.122-3.035-2.244-4.553-3.366c30.614,22.656,55.878,51.741,74.467,84.955c-0.828-1.479-1.655-2.958-2.483-4.438
			c21.239,38.389,34.341,82.591,34.966,126.608c-0.022-1.695-0.046-3.39-0.068-5.084c0.582,50.17-10.402,101.232-30.329,147.19
			c0.753-1.73,1.507-3.461,2.26-5.191c-6.785,15.521-14.72,30.508-23.946,44.72c-4.685,7.217-9.744,14.187-15.104,20.915
			c-1.296,1.626-2.62,3.227-3.955,4.82c-2.84,3.389,4.502-5.22,1.604-1.876c-0.684,0.788-1.377,1.568-2.07,2.348
			c-3.018,3.393-6.152,6.68-9.357,9.896c-6.243,6.263-12.881,12.125-19.807,17.621c-0.841,0.667-1.69,1.321-2.541,1.977
			c8.294-6.389,4.511-3.427,2.645-2.046c-1.741,1.287-3.51,2.536-5.287,3.771c-3.896,2.707-7.897,5.258-11.961,7.705
			c-1.898,1.145-3.823,2.244-5.756,3.33c-0.974,0.546-1.954,1.078-2.936,1.609c-4.576,2.479,8.253-4.272,3.616-1.883
			c-4.384,2.26-8.86,4.336-13.385,6.296c-4.277,1.853-8.625,3.537-13.008,5.121c-5.252,1.897,9.64-3.288,4.334-1.494
			c-1.132,0.383-2.269,0.747-3.405,1.112c-2.685,0.862-5.391,1.654-8.104,2.419c-4.36,1.229-8.765,2.3-13.187,3.283
			c-3.094,0.688-11.863,2.344,1.727-0.252c-2.524,0.482-5.059,0.907-7.597,1.314c-10.165,1.63-20.431,2.589-30.711,3.091
			c-12.894,0.631-35.024,9.165-38.216,23.647c-3.495,15.854,20.147,16.165,29.505,15.708c48.63-2.378,96.591-16.233,138.573-40.948
			c33.9-19.957,62.651-48.35,84.739-80.763c35.939-52.738,55.507-118.089,58.961-181.562
			c4.512-82.918-28.627-166.478-89.803-222.984c-39.333-36.332-88.977-60.504-141.613-69.988
			c-16.259-2.93-35.46,1.339-47.789,12.805c-4.027,3.746-8.086,9.414-6.504,15.316C339.05,136.265,345.479,139.606,350.812,140.567
			L350.812,140.567z"/>
	</g>
</g>
</svg>
