<?xml version="1.0" encoding="utf-8"?>
<!-- Generator: Adobe Illustrator 15.0.1, SVG Export Plug-In . SVG Version: 6.00 Build 0)  -->
<!DOCTYPE svg PUBLIC "-//W3C//DTD SVG 1.1//EN" "http://www.w3.org/Graphics/SVG/1.1/DTD/svg11.dtd">
<svg version="1.1" id="Layer_1" xmlns="http://www.w3.org/2000/svg" xmlns:xlink="http://www.w3.org/1999/xlink" x="0px" y="0px"
	 width="696.875px" height="750px" viewBox="0 0 696.875 750" enable-background="new 0 0 696.875 750" xml:space="preserve">
<g>
	<g>
		<path d="M195.165,149.307c-4.757,127.493-4.663,255.027-0.931,382.545c0.791,27.033,1.728,54.062,2.751,81.087
			c1.009,26.631,2.141,53.412,4,80c0.381,5.455,3.838,10.399,9.486,11.251c6.583,0.992,13.387-2.739,18.415-6.494
			c12.616-9.421,23.896-26.284,22.753-42.634c-2.178-31.152-3.363-62.516-4.512-93.72c-1.175-31.904-2.197-63.813-3.021-95.729
			c-1.602-62.056-2.359-124.132-1.995-186.208c0.152-25.828,0.513-51.655,1.057-77.478c0.135-6.406,0.286-12.812,0.445-19.217
			c0.038-1.522,0.312-11.896,0.125-4.975c0.106-3.89,0.218-7.779,0.333-11.668c0.405-13.793,0.874-27.584,1.389-41.374
			c0.212-5.685,0.717-12.145-4.584-15.996c-4.944-3.592-11.69-1.834-16.63,0.583c-7.622,3.73-13.998,10.027-18.934,16.821
			C200.817,132.288,195.462,141.35,195.165,149.307L195.165,149.307z"/>
	</g>
</g>
<g>
	<g>
		<path d="M179.957,137.677c2.806-0.153,5.611-0.292,8.418-0.417c-12.544,0.56-1.568,0.083,1.333-0.006
			c6.169-0.19,12.34-0.283,18.512-0.314c11.954-0.06,23.908,0.215,35.849,0.769c11.904,0.552,23.79,1.458,35.644,2.672
			c2.821,0.289,5.638,0.608,8.454,0.937c1.403,0.164,2.804,0.338,4.206,0.513c-9.641-1.199-4.114-0.522-2.005-0.238
			c5.992,0.806,11.967,1.732,17.928,2.74c21.829,3.694,43.447,8.871,64.394,16.066c4.664,1.602-6.134-2.198-1.515-0.527
			c1.173,0.424,2.341,0.863,3.508,1.301c2.31,0.868,4.602,1.779,6.888,2.707c4.833,1.96,9.596,4.092,14.299,6.345
			c8.59,4.115,16.897,8.817,24.82,14.104c2.121,1.415,4.196,2.898,6.249,4.409c-1.518-1.122-3.035-2.244-4.553-3.365
			c13.723,10.247,25.731,22.648,34.159,37.643c-0.828-1.479-1.655-2.958-2.483-4.438c7.935,14.456,11.909,30.419,12.152,46.884
			c-0.022-1.695-0.046-3.39-0.068-5.084c0.113,22.985-3.813,45.863-12.869,67.05c0.753-1.73,1.507-3.461,2.26-5.191
			c-3.698,8.471-8.143,16.551-13.312,24.213c-2.427,3.597-5.05,7.058-7.778,10.43c-1.216,1.502-4.158,4.919,1.537-1.731
			c-0.701,0.82-1.42,1.625-2.139,2.429c-1.676,1.876-3.414,3.695-5.176,5.49c-3.021,3.079-6.193,6.007-9.441,8.845
			c-1.627,1.422-3.294,2.798-4.972,4.16c-0.841,0.682-1.693,1.349-2.546,2.016c-3.698,2.894,7.112-5.31,1.763-1.368
			c-7.328,5.4-15.077,10.215-23.044,14.61c-0.963,0.532-1.934,1.049-2.905,1.567c1.88-0.981,3.759-1.963,5.638-2.945
			c-0.653,0.338-1.308,0.674-1.963,1.006c-1.97,1.004-3.959,1.967-5.954,2.917c-4.341,2.067-8.754,3.982-13.201,5.808
			c-4.122,1.693-8.295,3.261-12.49,4.759c-5.123,1.83,9.745-3.339,4.596-1.585c-1.057,0.36-2.117,0.708-3.178,1.057
			c-2.474,0.813-4.962,1.582-7.455,2.334c-8.874,2.677-17.872,4.935-26.929,6.896c-2.158,0.468-4.321,0.906-6.487,1.336
			c2.331-0.45,4.663-0.899,6.994-1.349c-0.719,0.137-1.439,0.272-2.16,0.405c-1.078,0.201-2.157,0.393-3.236,0.584
			c-4.638,0.824-9.294,1.545-13.958,2.204c-9.408,1.33-18.865,2.295-28.341,2.976c-2.375,0.171-4.753,0.312-7.131,0.442
			c-1.007,0.055-2.014,0.103-3.021,0.15c-4.935,0.233,10.25-0.393,3.57-0.158c-4.528,0.159-9.059,0.228-13.589,0.232
			c-15.462,0.02-35.485,4.839-44.513,18.814c-8.642,13.378,7.259,21.27,18.688,21.256c83.142-0.102,172.688-19.249,237.937-73.5
			c31.426-26.128,53.36-62.837,60.173-103.213c3.391-20.095,4.097-41.942-1.233-61.755c-4.635-17.227-14.411-33.422-26.449-46.482
			c-28.521-30.939-70.16-47.763-109.78-58.947c-46.638-13.165-95.913-18.226-144.245-19.156c-20.386-0.393-40.778,0.23-61.133,1.341
			c-12.906,0.704-35.014,9.114-38.217,23.647C146.965,137.789,170.589,138.188,179.957,137.677L179.957,137.677z"/>
	</g>
</g>
</svg>
