<?xml version="1.0" encoding="utf-8"?>
<!-- Generator: Adobe Illustrator 15.0.1, SVG Export Plug-In . SVG Version: 6.00 Build 0)  -->
<!DOCTYPE svg PUBLIC "-//W3C//DTD SVG 1.1//EN" "http://www.w3.org/Graphics/SVG/1.1/DTD/svg11.dtd">
<svg version="1.1" id="Layer_1" xmlns="http://www.w3.org/2000/svg" xmlns:xlink="http://www.w3.org/1999/xlink" x="0px" y="0px"
	 width="853.125px" height="813.5px" viewBox="0 0 853.125 813.5" enable-background="new 0 0 853.125 813.5" xml:space="preserve">
<g>
	<g>
		<path d="M296.863,25.105c-86.745,49.617-176.717,110.849-218.418,205.44c-8.521,19.327-16.436,39.641-19.181,60.718
			c-1.995,15.315-1.548,31.087-0.002,46.42c3.397,33.682,13.755,66.671,27.832,97.349c16.049,34.975,37.357,67.978,64.161,95.677
			c28.566,29.52,63.042,51.608,101.939,64.677c27.918,9.38,57.276,11.532,86.511,10.292c12.88-0.547,35.038-9.223,38.217-23.647
			c3.503-15.896-20.158-16.104-29.505-15.708c13.148-0.558,1.901-0.148-1.231-0.149c-2.811,0-5.621-0.086-8.428-0.206
			c-2.771-0.118-5.538-0.321-8.301-0.559c-1.564-0.134-3.125-0.301-4.685-0.473c-4.797-0.529,8.631,1.187,1.792,0.221
			c-11.336-1.601-22.5-4.322-33.368-7.904c-1.81-0.596-6.155-2.158,1.993,0.736c-1.414-0.502-2.817-1.032-4.218-1.566
			c-2.447-0.932-4.866-1.933-7.274-2.959c-5.142-2.193-10.173-4.64-15.12-7.24c-9.877-5.193-19.295-11.234-28.288-17.834
			c1.518,1.122,3.035,2.243,4.553,3.365c-33.733-25-60.666-58.211-81.14-94.69c0.828,1.479,1.655,2.958,2.483,4.438
			c-23.695-42.536-40.625-91.407-41.454-140.479c0.022,1.695,0.045,3.39,0.068,5.084c-0.341-27.486,7.197-53.193,18.106-78.31
			c-0.753,1.73-1.506,3.461-2.26,5.191c9.621-21.824,22.003-42.223,36.595-61.076c1.764-2.279,3.574-4.521,5.399-6.752
			c0.913-1.115,1.84-2.219,2.767-3.322c3.448-4.104-4.075,4.711-0.556,0.666c3.789-4.356,7.715-8.592,11.713-12.757
			c8.376-8.729,17.226-16.997,26.345-24.941c4.412-3.843,8.916-7.58,13.466-11.258c2.284-1.847,4.592-3.663,6.908-5.471
			c1.16-0.905,2.328-1.801,3.495-2.697c-7.591,5.826-3.055,2.325-1.389,1.074c9.88-7.42,20.023-14.487,30.305-21.337
			c20.344-13.554,41.353-26.088,62.567-38.223c9.933-5.681,19.709-20.499,5.557-27.752
			C329.986,11.539,310.296,17.422,296.863,25.105L296.863,25.105z"/>
	</g>
</g>
<g>
	<g>
		<path d="M315.15,52.035c7.248,0.262,14.476,0.76,21.689,1.505c1.519,0.157,3.035,0.338,4.551,0.518
			c-9.882-1.177-2.238-0.269-0.082,0.045c3.952,0.575,7.887,1.262,11.811,2c6.744,1.27,13.43,2.835,20.062,4.592
			c3.264,0.865,6.506,1.814,9.736,2.798c1.833,0.558,3.654,1.148,5.475,1.744c1.705,0.558,8.396,2.93,0.496,0.117
			c25.224,8.982,48.985,21.857,70.551,37.694c-1.518-1.122-3.035-2.244-4.553-3.366c33.468,24.826,61.113,56.747,81.494,93.057
			c-0.828-1.479-1.655-2.958-2.483-4.438c21.007,37.807,35.065,80.612,35.873,124.094c-0.022-1.695-0.046-3.39-0.068-5.085
			c0.408,32.362-6.485,64.229-19.329,93.887c0.753-1.73,1.507-3.46,2.26-5.191c-8.773,19.979-20.05,38.7-33.238,56.07
			c-3.25,4.28-6.643,8.45-10.114,12.552c5.839-6.899-0.546,0.545-1.943,2.1c-2.131,2.37-4.312,4.694-6.512,7
			c-7.986,8.371-16.462,16.268-25.253,23.785c-4.301,3.678-8.709,7.227-13.177,10.699c-4.433,3.446,6.046-4.56,1.553-1.176
			c-1.144,0.86-2.296,1.708-3.449,2.556c-2.703,1.988-5.444,3.924-8.199,5.84c-9.993,6.948-20.351,13.364-30.938,19.364
			c-2.579,1.461-5.181,2.88-7.79,4.285c-0.438,0.233-0.875,0.467-1.312,0.7c-2.961,1.564-1.75,0.934,3.632-1.894
			c-1.324,0.689-2.657,1.364-3.989,2.039c-5.815,2.945-11.713,5.724-17.658,8.396c-5.547,2.496-11.161,4.844-16.808,7.103
			c-2.846,1.138-5.709,2.231-8.578,3.31c-3.093,1.162-15.922,5.628-2.797,1.109c-8.839,3.043-17.787,5.761-26.798,8.244
			c-10.164,2.802-32.901,12.38-28.994,26.965c3.882,14.485,28.43,11.656,38.591,8.855c99.426-27.409,197.194-85.521,251.545-175.597
			c22.729-37.667,36.814-80.934,37.044-125.098c0.232-44.657-12.078-87.941-32.856-127.31
			c-21.308-40.371-50.332-75.943-87.088-103.208c-40.689-30.183-87.891-50.106-138.186-57.156
			c-12.737-1.785-25.491-3.112-38.346-3.577c-15.271-0.551-35.709,5.186-44.513,18.813C287.648,44.423,303.89,51.628,315.15,52.035
			L315.15,52.035z"/>
	</g>
</g>
<g>
	<g>
		<path d="M325.707,527.678c4.85-0.801,9.722-1.355,14.628-1.646c4.854-0.287-10.313,0.322-3.784,0.184
			c1.26-0.026,2.521-0.021,3.782-0.009c2.493,0.023,4.983,0.149,7.469,0.322c2.876,0.201,11.773,1.359-0.24-0.205
			c2.424,0.315,4.834,0.729,7.235,1.187c4.782,0.91,9.499,2.146,14.148,3.583c0.873,0.27,1.741,0.557,2.608,0.843
			c5.389,1.783-5.732-2.079-1.938-0.687c2.302,0.845,4.574,1.77,6.832,2.727c4.571,1.939,9.029,4.137,13.406,6.478
			c9.062,4.846,17.666,10.521,25.937,16.608c-1.519-1.122-3.036-2.243-4.553-3.365c28.534,21.165,53.002,47.312,76.956,73.387
			c25.724,28.002,50.923,56.574,78.915,82.37c40.239,37.083,87.539,68.505,142.455,77.612c16.373,2.716,35.336-1.224,47.789-12.805
			c4.027-3.746,8.086-9.414,6.504-15.316c-1.515-5.654-7.968-9.129-13.291-10.012c-8.74-1.45-17.35-3.487-25.819-6.087
			c-2.089-0.641-4.161-1.334-6.229-2.044c9.182,3.153,1.207,0.392-0.902-0.423c-4.396-1.696-8.72-3.576-12.994-5.56
			c-16.241-7.534-31.474-17.117-45.86-27.737c1.519,1.122,3.036,2.243,4.554,3.365C602.91,665.546,558.923,603.4,504.308,552.319
			c-21.347-19.966-45.027-38.832-71.809-50.945c-30.602-13.842-64.895-18.529-98.081-13.052c-9.077,1.499-17.688,3.819-25.555,8.783
			c-5.308,3.349-11.229,8.362-12.662,14.864C292.87,527.087,316.215,529.244,325.707,527.678L325.707,527.678z"/>
	</g>
</g>
</svg>
