<?xml version="1.0" encoding="utf-8"?>
<!-- Generator: Adobe Illustrator 15.0.1, SVG Export Plug-In . SVG Version: 6.00 Build 0)  -->
<!DOCTYPE svg PUBLIC "-//W3C//DTD SVG 1.1//EN" "http://www.w3.org/Graphics/SVG/1.1/DTD/svg11.dtd">
<svg version="1.1" id="Layer_1" xmlns="http://www.w3.org/2000/svg" xmlns:xlink="http://www.w3.org/1999/xlink" x="0px" y="0px"
	 width="600px" height="750px" viewBox="0 0 600 750" enable-background="new 0 0 600 750" xml:space="preserve">
<g>
	<g>
		<path d="M122.173,124.438c-1.417,58.983,0.255,118.126,1.352,177.1c1.501,80.708,3.539,161.416,6.48,242.085
			c1.499,41.104,2.836,82.308,6.167,123.315c0.443,5.459,3.791,10.393,9.486,11.251c6.583,0.992,13.387-2.739,18.415-6.494
			c12.5-9.335,24.075-26.358,22.753-42.634c-5.082-62.565-6.418-125.537-8.326-188.258c-2.437-80.072-4.261-160.168-5.345-240.27
			c-0.514-37.967-1.24-76.005-0.329-113.972c0.13-5.407-4.236-10.46-9.486-11.251c-6.583-0.992-13.387,2.739-18.415,6.494
			C131.346,91.946,122.579,107.562,122.173,124.438L122.173,124.438z"/>
	</g>
</g>
<g>
	<g>
		<path d="M83.588,112.451c27.937-0.006,55.86-0.319,83.787,0.624c17.177,0.58,34.342,1.595,51.455,3.196
			c4.222,0.395,8.439,0.837,12.652,1.312c2.112,0.238,4.222,0.492,6.331,0.751c4.755,0.585-8.122-1.049-3.372-0.43
			c1.405,0.183,2.809,0.375,4.212,0.568c8.734,1.203,17.435,2.636,26.093,4.295c9.171,1.758,18.281,3.837,27.302,6.249
			c4.239,1.133,8.451,2.369,12.639,3.678c2.221,0.694,4.43,1.426,6.634,2.175c1.878,0.638,5.925,2.107-2.524-0.903
			c1.232,0.439,2.46,0.895,3.686,1.353c15.638,5.845,30.755,13.363,44.219,23.29c-1.518-1.122-3.035-2.244-4.554-3.365
			c12.11,9.053,22.574,20.084,30.012,33.308c-0.828-1.479-1.655-2.958-2.483-4.438c7.891,14.337,11.618,30.272,11.955,46.582
			c-0.023-1.695-0.046-3.39-0.068-5.084c0.309,25.019-3.812,50.209-13.792,73.238c0.754-1.73,1.507-3.461,2.261-5.191
			c-2.903,6.597-6.256,12.965-10.061,19.086c-1.861,2.995-3.857,5.904-5.931,8.755c-1.051,1.446-2.142,2.863-3.245,4.27
			c-1.512,1.928-7.038,8.308-0.311,0.535c-5.128,5.925-10.767,11.396-16.714,16.493c-1.488,1.275-3.009,2.512-4.54,3.735
			c-0.776,0.62-1.562,1.227-2.35,1.833c8.421-6.495,4.773-3.623,2.874-2.225c-3.605,2.653-7.329,5.142-11.113,7.532
			c-3.651,2.306-7.395,4.463-11.183,6.537c-0.324,0.175-0.648,0.351-0.973,0.526c-2.842,1.514-1.298,0.711,4.633-2.408
			c-1,0.521-2.007,1.027-3.014,1.534c-2.397,1.205-4.823,2.35-7.259,3.473c-4.34,2-8.75,3.843-13.193,5.6
			c-2.305,0.912-4.629,1.776-6.958,2.627c-1.187,0.434-2.379,0.852-3.571,1.27c6.809-2.338,8.535-2.941,5.18-1.808
			c-0.817,0.273-1.636,0.543-2.456,0.81c-10.86,3.555-21.928,6.454-33.078,8.945c-2.862,0.64-5.734,1.233-8.608,1.812
			c-6.151,1.238,9.479-1.798,3.268-0.635c-1.496,0.28-2.995,0.545-4.493,0.811c-6.727,1.189-13.484,2.197-20.254,3.107
			c-13.554,1.821-27.183,3.062-40.828,3.951c-12.928,0.843-34.993,9.021-38.217,23.647c-3.472,15.751,20.121,16.319,29.505,15.708
			c53.664-3.497,108.204-12.976,157.715-34.678c36.719-16.095,70.562-39.74,93.935-72.722
			c17.494-24.689,27.271-54.691,29.806-84.694c1.389-16.437,1.422-33.452-2.7-49.511c-3.854-15.019-11.736-29.359-21.658-41.215
			c-21.969-26.251-54.835-40.891-86.643-51.192c-35.212-11.404-72.501-16.365-109.252-19.532
			c-42.912-3.698-85.913-3.263-128.934-3.253c-15.457,0.003-35.491,4.848-44.513,18.813
			C56.252,104.58,72.163,112.454,83.588,112.451L83.588,112.451z"/>
	</g>
</g>
<g>
	<g>
		<path d="M164.693,442.887c8.826,7.109,17.512,14.389,26.099,21.784c-1.283-1.107-2.567-2.214-3.851-3.321
			C264.19,528.047,335.527,607,431.623,646.883c17.634,7.318,35.964,13.068,54.5,17.609c6.86,1.681,16.121-2.048,22.014-5.012
			c8.043-4.047,15.481-9.854,21.011-16.993c3.842-4.962,7.69-11.699,6.813-18.299c-0.84-6.32-5.645-8.349-11.084-9.681
			c-5.151-1.263-10.271-2.635-15.362-4.118c1.81,0.535,3.62,1.07,5.43,1.605c-65.947-19.555-122.142-59.377-173.686-103.803
			c1.284,1.106,2.567,2.214,3.851,3.32c-44.001-38.021-85.483-78.896-130.803-115.399c-4.687-3.775-14.696-1.402-19.526,0.145
			c-8.6,2.753-16.601,7.757-23.154,13.931c-5.378,5.066-10.553,11.587-12.239,18.973
			C157.944,435.482,159.963,439.077,164.693,442.887L164.693,442.887z"/>
	</g>
</g>
</svg>
