<?xml version="1.0" encoding="utf-8"?>
<!-- Generator: Adobe Illustrator 15.0.1, SVG Export Plug-In . SVG Version: 6.00 Build 0)  -->
<!DOCTYPE svg PUBLIC "-//W3C//DTD SVG 1.1//EN" "http://www.w3.org/Graphics/SVG/1.1/DTD/svg11.dtd">
<svg version="1.1" id="Layer_1" xmlns="http://www.w3.org/2000/svg" xmlns:xlink="http://www.w3.org/1999/xlink" x="0px" y="0px"
	 width="600px" height="750px" viewBox="0 0 600 750" enable-background="new 0 0 600 750" xml:space="preserve">
<g>
	<g>
		<path d="M492.157,175.434c-23.061-34.843-56.572-64.328-95.398-80.236c-21.432-8.781-44.577-13.778-67.753-13.772
			c-31.128,0.008-60.491,7.079-89.125,19.085c-31.209,13.086-60.379,32.829-85.411,55.506
			c-18.474,16.737-35.143,37.861-41.478,62.387c-4.454,17.243-1.092,34.564,7.076,50.082c8.2,15.581,21.726,27.786,35.161,38.783
			c28.475,23.308,62.209,39.811,95.134,55.785c37.573,18.229,75.516,35.899,112.424,55.445
			c26.443,14.004,52.697,29.29,75.517,48.793c-1.284-1.107-2.567-2.214-3.852-3.321c14.302,12.368,27.682,26.849,34.517,44.77
			c-0.601-1.585-1.202-3.17-1.804-4.754c3.666,10.041,4.312,20.178,3.754,30.799c0.116-1.884,0.232-3.768,0.349-5.651
			c-0.798,12.378-3.33,24.464-7.375,36.184c-1.778,5.151,2.243-5.743,0.254-0.668c-0.541,1.379-1.123,2.741-1.705,4.103
			c-1.165,2.727-2.451,5.398-3.775,8.05c-1.326,2.655-2.767,5.251-4.242,7.825c-0.738,1.287-1.513,2.554-2.287,3.82
			c-2.676,4.377,4.448-6.651,0.09-0.213c-3.327,4.917-6.988,9.602-10.826,14.129c-0.958,1.13-1.946,2.234-2.934,3.339
			c1.257-1.382,2.514-2.764,3.771-4.145c-0.674,0.72-1.354,1.434-2.039,2.143c-2.385,2.482-4.877,4.859-7.409,7.189
			c-2.371,2.183-11.277,9.508-0.561,0.808c-2.266,1.839-4.604,3.587-6.964,5.301c-2.346,1.703-4.759,3.31-7.192,4.882
			c-2.324,1.5-7.64,4.593,3.089-1.781c-1.642,0.975-3.314,1.896-4.991,2.808c-2.496,1.358-5.051,2.608-7.622,3.818
			c-1.276,0.601-2.57,1.163-3.864,1.726c10.259-4.458,5.067-2.067,2.716-1.157c-6.869,2.657-13.952,4.812-21.044,6.781
			c-2.259,0.628-13.877,3.372-4.067,1.168c-3.238,0.728-6.499,1.351-9.766,1.938c-6.882,1.235-13.83,2.073-20.797,2.646
			c-3.141,0.258-6.289,0.411-9.437,0.529c-1.577,0.059-7.229,0.114,0.397,0.055c-1.55,0.012-3.099-0.01-4.648-0.032
			c-6.639-0.095-13.267-0.577-19.865-1.298c-12.525-1.367-24.895-3.983-37.001-7.447c-0.483-0.142-0.966-0.283-1.449-0.425
			c1.81,0.535,3.62,1.07,5.43,1.605c-44.91-13.468-84.746-39.328-120.847-68.697c-4.657-3.789-14.723-1.394-19.526,0.145
			c-8.601,2.753-16.601,7.757-23.154,13.931c-5.378,5.066-10.553,11.587-12.239,18.973c-1.449,6.345,0.59,9.89,5.306,13.726
			c41.755,33.97,87.951,61.929,140.87,74.123c26.665,6.145,54.713,6.947,81.813,3.506c30.102-3.822,61.348-12.678,87.818-27.737
			c51.659-29.39,96.363-80.191,105.263-140.617c1.746-11.854,2.685-24.684,0.518-36.56c-1.704-9.336-5.593-18.544-10.309-26.744
			c-10.229-17.788-26.517-31.882-42.53-44.29c-36.876-28.573-80.025-48.687-121.819-68.873c-33.146-16.01-66.73-31.52-99.053-49.15
			c-19.814-10.808-39.268-22.731-56.463-37.431c1.284,1.107,2.567,2.214,3.851,3.321c-12.771-11.042-24.692-23.982-30.858-39.951
			c0.601,1.584,1.203,3.169,1.804,4.754c-2.657-7.174-3.93-14.642-3.517-22.293c-0.116,1.884-0.232,3.768-0.348,5.651
			c0.228-3.22,0.729-6.378,1.485-9.515c0.359-1.489,0.814-2.952,1.291-4.407c1.304-3.981-2.572,6.589-1.007,2.649
			c0.361-0.909,0.763-1.801,1.165-2.693c0.693-1.542,1.477-3.041,2.277-4.529c0.5-0.928,1.037-1.834,1.573-2.741
			c2.453-4.144-4.496,6.828-1.792,2.752c2.632-3.967,5.642-7.674,8.787-11.242c-8.253,9.363-2.402,2.66-0.354,0.596
			c1.982-1.998,4.047-3.911,6.132-5.8c1.85-1.675,3.755-3.288,5.67-4.887c-10.803,9.02,0.323-0.148,2.946-2.134
			c5.498-4.162,11.178-8.078,16.966-11.823c1.518-0.982,3.056-1.932,4.594-2.882c-9.896,6.112-4.117,2.456-1.897,1.171
			c2.989-1.731,6.034-3.365,9.096-4.962c2.48-1.294,4.999-2.515,7.526-3.715c2.527-1.2,13.695-5.891,2.533-1.313
			c5.306-2.176,10.726-4.064,16.2-5.766c2.405-0.748,4.833-1.417,7.267-2.065c1.438-0.383,2.884-0.73,4.33-1.078
			c-9.257,2.223-3.785,0.856-1.727,0.434c5.596-1.148,11.259-1.949,16.94-2.528c2.306-0.235,4.62-0.392,6.934-0.529
			c1.373-0.082,2.748-0.128,4.123-0.175c5.18-0.176-6.34-0.005-1.181-0.007c5.358-0.001,10.712,0.332,16.041,0.866
			c9.924,0.994,19.726,3.037,29.294,5.829c-1.811-0.535-3.62-1.07-5.43-1.605c25.362,7.611,48.484,20.984,68.512,38.222
			c-1.284-1.107-2.567-2.214-3.852-3.321c14.826,12.915,27.816,27.771,38.668,44.167c3.345,5.053,10.6,5.522,15.913,4.862
			c8.422-1.045,16.5-4.923,23.379-9.74C483.037,204.455,500.48,188.009,492.157,175.434L492.157,175.434z"/>
	</g>
</g>
</svg>
