<?xml version="1.0" encoding="utf-8"?>
<!-- Generator: Adobe Illustrator 15.0.1, SVG Export Plug-In . SVG Version: 6.00 Build 0)  -->
<!DOCTYPE svg PUBLIC "-//W3C//DTD SVG 1.1//EN" "http://www.w3.org/Graphics/SVG/1.1/DTD/svg11.dtd">
<svg version="1.1" id="Layer_1" xmlns="http://www.w3.org/2000/svg" xmlns:xlink="http://www.w3.org/1999/xlink" x="0px" y="0px"
	 width="600px" height="750px" viewBox="0 0 600 750" enable-background="new 0 0 600 750" xml:space="preserve">
<g>
	<g>
		<path d="M87.756,127.429c1.97-0.028,3.941-0.053,5.912-0.075c-6.559,0.074,0.147,0.008,1.249,0.001
			c3.94-0.023,7.881-0.023,11.822-0.016c8.538,0.015,17.074,0.11,25.61,0.244c16.407,0.256,32.811,0.721,49.211,1.254
			c32.704,1.063,65.396,2.461,98.106,3.354c66.169,1.805,132.771,1.629,198.438-7.628c2.554-0.36,5.103-0.745,7.651-1.133
			c16.226-2.473,32.974-13.599,40.528-28.378c2.503-4.897,4.378-11.611,0.873-16.617c-3.438-4.91-10.523-5.684-15.913-4.862
			c-31.883,4.858-64.032,7.495-96.251,8.711c-7.756,0.293-15.515,0.483-23.275,0.622c-1.942,0.035-3.885,0.061-5.827,0.086
			c-6.635,0.089,5.494-0.039-1.144,0.013c-4.541,0.035-9.082,0.04-13.623,0.033c-16.266-0.022-32.53-0.317-48.791-0.729
			c-67.081-1.697-134.081-5.499-201.207-4.832c-2.627,0.026-5.255,0.058-7.882,0.095c-7.931,0.112-17.149,5.378-23.379,9.74
			c-6.879,4.817-13.286,11.082-17.149,18.638c-2.503,4.897-4.378,11.611-0.874,16.617C75.615,127.954,82.058,127.51,87.756,127.429
			L87.756,127.429z"/>
	</g>
</g>
<g>
	<g>
		<path d="M278.039,139.812c0.056,130.586,11.004,260.878,11.795,391.45c0.252,41.634-0.603,83.283-3.159,124.844
			c0.116-1.884,0.232-3.768,0.348-5.651c-0.203,3.236-0.415,6.472-0.636,9.707c-0.384,5.627-0.503,10.692,5.306,13.726
			c5.902,3.082,13.549,1.77,19.525-0.145c8.601-2.753,16.602-7.757,23.154-13.931c4.597-4.331,11.771-12.108,12.239-18.973
			c8.993-131.711,0.68-263.464-4.505-395.143c-1.79-45.481-3.127-90.988-3.146-136.508c-0.002-5.774-6.273-9.079-11.084-9.681
			c-7.516-0.941-15.413,1.692-22.014,5.012C292.639,111.172,278.032,123.828,278.039,139.812L278.039,139.812z"/>
	</g>
</g>
</svg>
