<?xml version="1.0" encoding="utf-8"?>
<!-- Generator: Adobe Illustrator 15.0.1, SVG Export Plug-In . SVG Version: 6.00 Build 0)  -->
<!DOCTYPE svg PUBLIC "-//W3C//DTD SVG 1.1//EN" "http://www.w3.org/Graphics/SVG/1.1/DTD/svg11.dtd">
<svg version="1.1" id="Layer_1" xmlns="http://www.w3.org/2000/svg" xmlns:xlink="http://www.w3.org/1999/xlink" x="0px" y="0px"
	 width="600px" height="750px" viewBox="0 0 600 750" enable-background="new 0 0 600 750" xml:space="preserve">
<g>
	<g>
		<path d="M127.039,106.812c6.104,83.008-0.875,166.404-4.681,249.353c-1.818,39.623-3.148,79.343-1.613,119
			c1.302,33.632,4.613,67.69,14.252,100.063c8.211,27.576,20.903,54.73,42.865,74.008c11.308,9.926,23.42,17.896,37.553,23.219
			c15.965,6.014,32.802,9.304,49.809,10.19c35.699,1.863,72.028-3.772,103.452-21.589c32.141-18.223,57.136-43.997,76.1-75.542
			c15.953-26.537,26.127-56.768,33.523-86.698c7.918-32.044,12.358-64.898,15.313-97.738c6.118-67.969,5.625-136.23,5.849-204.401
			c0.082-24.88,0.2-49.799,1.713-74.641c-0.116,1.884-0.232,3.768-0.349,5.651c0.912-14.67,2.119-29.567,5.787-43.847
			c1.363-5.305-0.203-11.062-5.306-13.727c-5.902-3.082-13.549-1.769-19.525,0.145c-14.869,4.76-31.33,17.083-35.394,32.903
			c-5.427,21.124-6.076,43.641-6.909,65.306c-1.098,28.521-0.951,57.087-0.989,85.625c-0.063,47.395-0.299,94.819-3.209,142.141
			c0.116-1.884,0.232-3.768,0.349-5.651c-2.098,33.643-5.494,67.261-11.7,100.412c-2.897,15.48-6.477,30.84-10.943,45.945
			c-2.12,7.171-4.48,14.27-7.07,21.284c3.516-9.522,1.004-2.688,0.14-0.488c-0.633,1.613-1.288,3.218-1.951,4.818
			c-1.415,3.416-2.916,6.796-4.476,10.147c-2.909,6.252-6.115,12.365-9.595,18.318c-0.814,1.394-1.655,2.772-2.504,4.146
			c-3.735,6.041,4.293-6.54,1.112-1.728c-1.883,2.85-3.865,5.632-5.914,8.364c-1.86,2.481-3.81,4.896-5.812,7.263
			c-0.992,1.171-2.01,2.319-3.037,3.46c8.477-9.408,5.59-6.094,3.699-4.083c-0.694,0.739-1.403,1.465-2.114,2.188
			c-2.119,2.159-4.325,4.23-6.584,6.242c-1.124,1.001-2.273,1.973-3.432,2.934c10.727-8.904,7.274-5.871,4.898-3.992
			c-0.785,0.621-1.583,1.226-2.382,1.827c-2.399,1.807-4.88,3.504-7.405,5.129c-0.632,0.407-1.272,0.803-1.912,1.198
			c-3.962,2.448,9.435-5.598,5.41-3.248c-1.524,0.89-3.076,1.73-4.638,2.552c-2.702,1.422-5.471,2.713-8.272,3.924
			c-4.078,1.764,9.197-3.745,5.068-2.084c-0.719,0.29-1.443,0.565-2.168,0.841c-1.705,0.648-3.43,1.242-5.161,1.815
			c-3.026,1-6.098,1.855-9.189,2.626c-2.348,0.585-6.487,1.46,4.303-0.95c-0.798,0.179-1.6,0.343-2.401,0.506
			c-1.896,0.388-3.804,0.717-5.714,1.024c-7.839,1.261-15.778,1.744-23.708,1.938c-1.935,0.048-6.469,0.033,2.294-0.01
			c-1.066,0.005-2.134-0.006-3.2-0.017c-2.432-0.024-4.862-0.111-7.291-0.225c-4.31-0.202-8.609-0.585-12.891-1.1
			c-7.896-0.949-15.71-2.543-23.343-4.771c1.81,0.535,3.62,1.07,5.429,1.605c-15.141-4.532-29.209-11.833-41.258-22.102
			c1.284,1.106,2.567,2.214,3.851,3.32c-17.126-14.813-28.819-34.459-36.821-55.454c0.602,1.585,1.203,3.17,1.804,4.755
			c-11.48-30.527-15.891-63.338-18.096-95.715c-2.641-38.786-1.772-77.768-0.271-116.582c3.226-83.362,10.711-166.842,6.797-250.313
			c-0.314-6.71-0.727-13.416-1.219-20.116c-1.167-15.873-25.283-8.6-33.098-4.669C142.481,77.749,125.888,91.166,127.039,106.812
			L127.039,106.812z"/>
	</g>
</g>
</svg>
