<?xml version="1.0" encoding="utf-8"?>
<!-- Generator: Adobe Illustrator 15.0.1, SVG Export Plug-In . SVG Version: 6.00 Build 0)  -->
<!DOCTYPE svg PUBLIC "-//W3C//DTD SVG 1.1//EN" "http://www.w3.org/Graphics/SVG/1.1/DTD/svg11.dtd">
<svg version="1.1" id="Layer_1" xmlns="http://www.w3.org/2000/svg" xmlns:xlink="http://www.w3.org/1999/xlink" x="0px" y="0px"
	 width="600px" height="750px" viewBox="0 0 600 750" enable-background="new 0 0 600 750" xml:space="preserve">
<g>
	<g>
		<path d="M44.654,116.557C78.755,233.75,115.236,350.349,160.383,463.82c28.089,70.599,59.822,139.766,96.095,206.546
			c2.816,5.185,11.073,5.463,15.914,4.862c8.421-1.045,16.5-4.924,23.379-9.74c9.796-6.859,25.274-21.903,18.022-35.255
			c-42.484-78.214-78.597-159.676-110.21-242.843c0.601,1.584,1.203,3.17,1.804,4.754
			c-38.093-100.428-69.813-203.119-99.812-306.211c-4.324-14.861-22.829-9.834-33.098-4.669c-8.043,4.046-15.481,9.854-21.01,16.994
			C48.196,102.484,42.933,110.641,44.654,116.557L44.654,116.557z"/>
	</g>
</g>
<g>
	<g>
		<path d="M473.374,101.694c-51.293,104.126-95.843,211.552-135.852,320.479c-27.293,74.307-52.09,149.568-73.498,225.787
			c-1.477,5.257,0.29,11.106,5.306,13.726c5.902,3.082,13.549,1.77,19.526-0.145c15.144-4.848,30.944-17.062,35.394-32.903
			c16.716-59.512,35.539-118.415,55.93-176.767c5.113-14.637,10.342-29.231,15.655-43.795c2.539-6.959,5.106-13.908,7.689-20.85
			c0.645-1.731,1.291-3.461,1.938-5.191c-2.413,6.453-0.181,0.486,0.265-0.697c1.513-4.019,3.036-8.034,4.563-12.048
			c10.737-28.219,21.856-56.292,33.313-84.227c26.378-64.314,54.617-127.904,85.338-190.268c2.442-4.957,4.414-11.56,0.873-16.617
			c-3.505-5.005-10.455-5.54-15.913-4.862C497.948,75.297,480.521,87.185,473.374,101.694L473.374,101.694z"/>
	</g>
</g>
</svg>
