<?xml version="1.0" encoding="utf-8"?>
<!-- Generator: Adobe Illustrator 15.0.1, SVG Export Plug-In . SVG Version: 6.00 Build 0)  -->
<!DOCTYPE svg PUBLIC "-//W3C//DTD SVG 1.1//EN" "http://www.w3.org/Graphics/SVG/1.1/DTD/svg11.dtd">
<svg version="1.1" id="Layer_1" xmlns="http://www.w3.org/2000/svg" xmlns:xlink="http://www.w3.org/1999/xlink" x="0px" y="0px"
	 width="817.5px" height="750px" viewBox="-217.5 0 817.5 750" enable-background="new -217.5 0 817.5 750" xml:space="preserve">
<g>
	<g>
		<path d="M-151.785,118.557c18.512,115.63,46.257,229.574,82.589,340.889c23.85,73.07,51.357,144.907,80.73,215.922
			c2.371,2.966,5.465,4.607,9.281,4.926c7.332,0.918,15.647-1.542,22.014-5.012c42.257-23.027,79.251-55.686,111.635-91.024
			c16.924-18.468,33.066-37.529,47.353-58.133c12.087-17.43,23.637-35.731,31.613-55.464c2.121-5.248,4.595-11.303,0.874-16.617
			c-3.505-5.006-10.456-5.54-15.914-4.862c-8.421,1.045-16.5,4.924-23.379,9.74c-6.357,4.451-14.135,11.181-17.149,18.638
			c-3.216,7.956-7.042,15.629-11.213,23.125c-2.305,4.143-4.751,8.206-7.257,12.23c-3.981,6.396,3.947-6.004-0.232,0.366
			c-1.516,2.31-3.071,4.594-4.637,6.87c-12.273,17.834-26.024,34.649-40.555,50.684c8.048-8.88,1.418-1.584-0.426,0.385
			c-2.081,2.222-4.189,4.417-6.307,6.604c-3.862,3.987-7.801,7.9-11.784,11.767c-7.767,7.539-15.797,14.806-24.051,21.808
			c-1.814,1.539-3.648,3.054-5.488,4.562c10.752-8.814,2.131-1.765-0.419,0.222c-3.903,3.039-7.883,5.977-11.916,8.842
			c-3.821,2.715-7.722,5.316-11.677,7.832c-0.694,0.439-1.391,0.875-2.089,1.307c-2.444,1.521-7.354,4.346,3.856-2.292
			c-2.014,1.191-4.057,2.333-6.111,3.452c10.431-0.028,20.863-0.057,31.294-0.086c-13.126-31.733-25.879-63.62-38.075-95.723
			c0.601,1.585,1.203,3.17,1.804,4.755c-38.376-101.167-70.727-204.527-95.007-310c-11.15-48.434-20.578-97.259-28.435-146.333
			c-2.487-15.533-24.285-9.102-33.098-4.669c-8.043,4.046-15.481,9.854-21.01,16.994
			C-148.712,105.089-152.824,112.07-151.785,118.557L-151.785,118.557z"/>
	</g>
</g>
<g>
	<g>
		<path d="M141.735,292.574c16.149,88.177,29.824,178.989,66.199,261.632c19.123,43.446,45.242,83.265,73.627,121.161
			c3.702,4.941,10.278,5.562,15.914,4.862c11.437-1.42,22.342-7.843,30.617-15.617c73.383-68.948,119.447-160.534,153.438-254.01
			c33.229-91.385,54.286-186.715,73.333-281.892c3.542-17.701,7.009-35.416,10.492-53.128c3.11-15.813-13.717-17.14-24.831-13.582
			c-14.167,4.536-32.301,17.178-35.394,32.903c-18.313,93.104-36.725,186.351-64.54,277.184
			c-3.634,11.867-7.449,23.678-11.428,35.434c-1.904,5.625-3.861,11.231-5.853,16.826c-0.993,2.79-2.003,5.575-3.02,8.357
			c-0.507,1.39-1.021,2.776-1.533,4.164c-2.469,6.671,1.343-3.545-0.265,0.704c-8.606,22.762-18.082,45.197-28.556,67.164
			c-10.178,21.347-21.418,42.193-33.847,62.315c-1.463,2.369-2.953,4.722-4.451,7.069c5.862-9.183,0.223-0.406-1.168,1.688
			c-3.3,4.969-6.703,9.867-10.175,14.717c-6.592,9.207-13.541,18.156-20.794,26.852c-2.296,2.753-4.64,5.467-7.006,8.161
			c-1.179,1.342-2.372,2.671-3.568,3.998c8.289-9.195,2.268-2.49,0.337-0.434c-5.453,5.812-11.112,11.429-16.919,16.886
			c15.51-3.585,31.021-7.17,46.531-10.755c-33.707-45.002-63.5-92.603-83.522-145.338c0.602,1.585,1.203,3.17,1.804,4.754
			c-12.086-32.044-20.844-65.191-28.339-98.575c-9.978-44.443-17.957-89.329-26.161-134.124
			C197.601,234.344,137.32,268.465,141.735,292.574L141.735,292.574z"/>
	</g>
</g>
</svg>
