<?xml version="1.0" encoding="utf-8"?>
<!-- Generator: Adobe Illustrator 15.0.1, SVG Export Plug-In . SVG Version: 6.00 Build 0)  -->
<!DOCTYPE svg PUBLIC "-//W3C//DTD SVG 1.1//EN" "http://www.w3.org/Graphics/SVG/1.1/DTD/svg11.dtd">
<svg version="1.1" id="Layer_1" xmlns="http://www.w3.org/2000/svg" xmlns:xlink="http://www.w3.org/1999/xlink" x="0px" y="0px"
	 width="600px" height="750px" viewBox="0 0 600 750" enable-background="new 0 0 600 750" xml:space="preserve">
<g>
	<g>
		<path d="M86.604,113.312c55.233,99.759,107.773,201.069,167.178,298.46c57.991,95.074,122.987,186.589,201.859,265.597
			c10.796,10.814,28.872,2.419,39.292-4.878c6.879-4.816,13.287-11.082,17.149-18.638c2.073-4.055,4.97-12.514,0.873-16.617
			c-80.518-80.656-146.44-174.299-205.428-271.46c-58.01-95.552-109.486-194.842-163.609-292.597
			c-2.865-5.174-11.03-5.469-15.914-4.862c-8.421,1.045-16.5,4.923-23.379,9.74C94.914,84.859,79.25,100.03,86.604,113.312
			L86.604,113.312z"/>
	</g>
</g>
<g>
	<g>
		<path d="M451.65,96.26c-70.232,94.758-138.085,191.564-196.931,293.893c-49.653,86.342-91.775,176.729-124.566,270.811
			c-1.784,5.117,0.524,11.229,5.306,13.726c5.902,3.082,13.549,1.77,19.526-0.145c15.896-5.089,29.872-17.061,35.394-32.903
			c2.358-6.766,4.764-13.515,7.217-20.247c1.221-3.353,2.461-6.697,3.708-10.04c-2.466,6.613-0.294,0.804,0.18-0.45
			c0.839-2.216,1.688-4.428,2.538-6.639c5.282-13.74,10.803-27.39,16.503-40.962c11.267-26.826,23.381-53.295,36.166-79.431
			c25.286-51.688,53.454-101.933,83.526-150.979c6.011-9.803,12.111-19.55,18.271-29.259c1.542-2.429,3.091-4.854,4.642-7.278
			c0.62-0.97,1.242-1.939,1.864-2.908c-4.84,7.542-1.414,2.206-0.396,0.627c3.439-5.326,6.904-10.635,10.383-15.934
			c13.014-19.825,26.315-39.459,39.812-58.958c27.334-39.492,55.554-78.365,84.151-116.949c3.775-5.095,7.704-11.596,6.813-18.298
			c-0.773-5.821-5.629-8.998-11.084-9.681C478.844,72.271,460.679,84.079,451.65,96.26L451.65,96.26z"/>
	</g>
</g>
</svg>
