<?xml version="1.0" encoding="utf-8"?>
<!-- Generator: Adobe Illustrator 15.0.1, SVG Export Plug-In . SVG Version: 6.00 Build 0)  -->
<!DOCTYPE svg PUBLIC "-//W3C//DTD SVG 1.1//EN" "http://www.w3.org/Graphics/SVG/1.1/DTD/svg11.dtd">
<svg version="1.1" id="Layer_1" xmlns="http://www.w3.org/2000/svg" xmlns:xlink="http://www.w3.org/1999/xlink" x="0px" y="0px"
	 width="600px" height="750px" viewBox="0 0 600 750" enable-background="new 0 0 600 750" xml:space="preserve">
<g>
	<g>
		<path d="M75.5,126.641c2.863,10.135,7.887,19.683,12.849,28.916c7.37,13.714,15.54,26.998,23.866,40.146
			c20.906,33.014,43.239,65.123,65.68,97.104c18.602,26.51,37.429,52.86,56.038,79.366c12.544,17.868,25.481,35.678,36.587,54.497
			c7.949,13.471,25.534,1.101,32.814-6.361c6.288-6.444,11.43-14.356,14.333-22.907c1.879-5.534,3.752-13.985,0.485-19.521
			c-13.744-23.292-30.014-45.214-45.591-67.287c-22.709-32.18-45.594-64.237-67.981-96.643
			c-18.162-26.289-36.111-52.768-52.824-80.009c-10.73-17.489-22.987-36.142-28.624-56.09c-1.561-5.526-9.158-6.484-13.632-5.545
			c-7.413,1.557-14.023,6.618-19.183,11.906c-6.288,6.444-11.43,14.356-14.333,22.908C73.602,114.14,73.528,119.662,75.5,126.641
			L75.5,126.641z"/>
	</g>
</g>
<g>
	<g>
		<path d="M467.426,90.641c-67.52,104.324-137.693,207.651-191.628,319.919c-2.4,4.997-4.438,11.525-0.874,16.617
			c3.505,5.006,10.456,5.54,15.914,4.862c15.833-1.966,33.547-13.848,40.528-28.378c26.236-54.613,56.412-107.202,88.19-158.755
			c7.885-12.792,15.882-25.515,23.936-38.201c4.027-6.344,8.074-12.674,12.131-18.999c3.625-5.651-3.707,5.763-0.075,0.116
			c1.016-1.579,2.033-3.158,3.051-4.736c2.034-3.157,4.072-6.311,6.111-9.464c16.619-25.702,33.38-51.312,50.011-77.007
			c3.552-5.489,7.745-11.29,6.813-18.298c-0.773-5.821-5.629-8.998-11.084-9.681c-7.516-0.941-15.413,1.692-22.014,5.012
			C480.92,77.429,472.099,83.421,467.426,90.641L467.426,90.641z"/>
	</g>
</g>
<g>
	<g>
		<path d="M257.791,410.167c0.423,6.173,0.669,12.351,0.773,18.537c-0.023-1.694-0.046-3.39-0.069-5.084
			c0.502,41.089-5.143,81.914-8.071,122.825c-2.971,41.508-3.574,84.567,8.866,124.709c4.469,14.419,27.943,11.708,38.591,8.855
			c8.111-2.174,16.275-5.869,22.489-11.648c3.87-3.6,8.291-9.551,6.504-15.316c-7.256-23.414-9.974-47.783-10.396-72.221
			c0.023,1.694,0.046,3.39,0.069,5.085c-0.829-64.801,13.272-128.981,8.826-193.852c-0.394-5.753-8.953-9.017-13.291-10.012
			c-8.271-1.898-17.188-1.017-25.3,1.156C274.256,386.56,256.744,394.893,257.791,410.167L257.791,410.167z"/>
	</g>
</g>
</svg>
