<?xml version="1.0" encoding="utf-8"?>
<!-- Generator: Adobe Illustrator 15.0.1, SVG Export Plug-In . SVG Version: 6.00 Build 0)  -->
<!DOCTYPE svg PUBLIC "-//W3C//DTD SVG 1.1//EN" "http://www.w3.org/Graphics/SVG/1.1/DTD/svg11.dtd">
<svg version="1.1" id="Layer_1" xmlns="http://www.w3.org/2000/svg" xmlns:xlink="http://www.w3.org/1999/xlink" x="0px" y="0px"
	 width="600px" height="750px" viewBox="0 0 600 750" enable-background="new 0 0 600 750" xml:space="preserve">
<g>
	<g>
		<path d="M97.03,120.923c29.079-1.325,58.149-2.818,87.231-4.071c2.285-0.099,8.839-0.37-1.726,0.07
			c1.705-0.071,3.409-0.14,5.114-0.208c3.402-0.137,6.806-0.268,10.208-0.395c7.352-0.275,14.705-0.521,22.059-0.739
			c14.127-0.421,28.258-0.706,42.391-0.838c28.763-0.27,57.531,0.232,86.259,1.692c14.942,0.76,29.868,1.822,44.772,3.136
			c7.362,0.649,14.717,1.384,22.066,2.172c3.733,0.4,7.465,0.828,11.195,1.264c1.881,0.22,3.761,0.449,5.641,0.678
			c1.26,0.154,2.519,0.311,3.777,0.469c-4.432-0.568-5.064-0.647-1.897-0.237c12.296,1.598,24.562,3.42,36.804,5.399
			c-3.7-6.763-7.4-13.525-11.1-20.288c-15.282,20.809-31.286,41.07-47.736,60.965c-3.996,4.833-8.025,9.638-12.071,14.429
			c-2.029,2.403-4.067,4.798-6.108,7.192c-3.689,4.328,3.921-4.573,0.216-0.253c-1.369,1.596-2.742,3.189-4.115,4.781
			c-8.62,9.994-17.334,19.908-26.094,29.78c-35.383,39.877-71.647,78.963-107.051,118.823
			C186.48,423.986,117.683,506.916,71.126,602.848c-9.09,18.729-17.328,37.917-24.604,57.423
			c-2.016,5.405,2.827,10.695,7.104,12.888c8.999,4.613,22.204,4.252,31.555,1.053c6.027-2.062,12.166-3.762,18.354-5.268
			c3.364-0.818,6.747-1.56,10.137-2.266c0.885-0.184,1.772-0.362,2.659-0.54c2.91-0.583,7.827-1.486-5.536,1.063
			c2.174-0.414,4.353-0.805,6.532-1.187c17.559-3.074,35.287-5.166,53.028-6.843c9.934-0.938,19.884-1.706,29.84-2.366
			c4.963-0.33,9.928-0.621,14.894-0.892c2.52-0.138,5.04-0.264,7.56-0.387c3.094-0.151,14.7-0.641,1.624-0.098
			c21.712-0.902,43.446-1.294,65.176-1.297c40.961-0.006,81.973,1.392,122.79,4.895c8.758,0.752,17.505,1.628,26.237,2.634
			c2.065,0.238,4.13,0.488,6.193,0.743c4.67,0.578-8.187-1.054-3.549-0.453c0.994,0.129,1.988,0.263,2.982,0.396
			c4.147,0.557,8.288,1.164,12.422,1.812c12.923,2.021,25.853,4.469,38.4,8.209c7.829,2.334,17.629,0.898,25.3-1.156
			c8.111-2.174,16.275-5.869,22.489-11.648c4.027-3.746,8.086-9.414,6.504-15.316c-1.652-6.166-7.909-8.408-13.291-10.012
			c-31.516-9.395-65.251-12.441-97.864-15.276c-41.686-3.623-83.586-4.932-125.419-4.894c-44.545,0.041-89.214,1.615-133.577,5.753
			c-17.747,1.655-35.462,3.805-53.028,6.843c-16.51,2.856-33.194,5.993-49.133,11.282c-0.441,0.147-0.882,0.297-1.322,0.448
			c12.887,4.646,25.773,9.294,38.66,13.94c3.759-10.078,7.791-20.047,12.077-29.912c-0.753,1.73-1.507,3.461-2.26,5.19
			c20.681-47.268,47.243-91.657,76.938-133.778c15.121-21.449,31.102-42.284,47.561-62.722
			c8.305-10.312,16.758-20.506,25.298-30.625c2.056-2.436,4.12-4.864,6.188-7.291c3.721-4.367-3.9,4.549-0.166,0.191
			c1.039-1.212,2.08-2.422,3.121-3.632c4.517-5.248,9.062-10.472,13.621-15.683c70.698-80.811,146.154-157.663,211.635-242.922
			c4.996-6.505,9.914-13.07,14.769-19.68c6.843-9.317-1.479-18.733-11.1-20.288c-62.196-10.052-124.95-15.536-187.941-16.435
			c-59.233-0.846-118.451,2.067-177.597,4.905c-13.548,0.649-27.096,1.301-40.646,1.919c-12.887,0.587-35.032,9.194-38.217,23.647
			C64.026,121.091,87.677,121.349,97.03,120.923L97.03,120.923z"/>
	</g>
</g>
</svg>
